<svg xmlns="http://www.w3.org/2000/svg" xmlns:xlink="http://www.w3.org/1999/xlink" width="162" height="92" viewBox="0 0 162 92">
  <defs>
    <rect id="rect-1" width="162" height="92" x="0" y="0"/>
    <mask id="mask-2" maskContentUnits="userSpaceOnUse" maskUnits="userSpaceOnUse">
      <rect width="162" height="92" x="0" y="0" fill="black"/>
      <use fill="white" xlink:href="#rect-1"/>
    </mask>
    <path id="path-4" fill-rule="evenodd" d="M97.89282227 92.2576294h63.34240722V40.3623352H97.89282227v51.8952942z"/>
    <mask id="mask-5" maskContentUnits="userSpaceOnUse" maskUnits="userSpaceOnUse">
      <rect width="162" height="92" x="0" y="0" fill="black"/>
      <use fill="white" xlink:href="#path-4"/>
    </mask>
    <path id="path-6" fill-rule="evenodd" d="M97.89282227 92.2576294h63.34240722V40.3623352H97.89282227v51.8952942z"/>
    <mask id="mask-7" maskContentUnits="userSpaceOnUse" maskUnits="userSpaceOnUse">
      <rect width="162" height="92" x="0" y="0" fill="black"/>
      <use fill="white" xlink:href="#path-6"/>
    </mask>
    <path id="path-8" fill-rule="evenodd" d="M97.89282227 92.2576294h63.34240722V40.3623352H97.89282227v51.8952942z"/>
    <mask id="mask-9" maskContentUnits="userSpaceOnUse" maskUnits="userSpaceOnUse">
      <rect width="162" height="92" x="0" y="0" fill="black"/>
      <use fill="white" xlink:href="#path-8"/>
    </mask>
    <path id="path-11" fill-rule="evenodd" d="M0 92.2576294h51.82562256V40.3623352H0v51.8952942z"/>
    <mask id="mask-12" maskContentUnits="userSpaceOnUse" maskUnits="userSpaceOnUse">
      <rect width="162" height="92" x="0" y="0" fill="black"/>
      <use fill="white" xlink:href="#path-11"/>
    </mask>
    <path id="path-13" fill-rule="evenodd" d="M0 92.2576294h51.82562256V40.3623352H0v51.8952942z"/>
    <mask id="mask-14" maskContentUnits="userSpaceOnUse" maskUnits="userSpaceOnUse">
      <rect width="162" height="92" x="0" y="0" fill="black"/>
      <use fill="white" xlink:href="#path-13"/>
    </mask>
    <path id="path-15" fill-rule="evenodd" d="M0 92.2576294h51.82562256V40.3623352H0v51.8952942z"/>
    <mask id="mask-16" maskContentUnits="userSpaceOnUse" maskUnits="userSpaceOnUse">
      <rect width="162" height="92" x="0" y="0" fill="black"/>
      <use fill="white" xlink:href="#path-15"/>
    </mask>
    <linearGradient id="linearGradient-19" x1="2.768" x2="159.4" y1="34.058" y2="34.058" gradientUnits="userSpaceOnUse">
      <stop offset="0" stop-color="rgb(125,125,125)"/>
      <stop offset="1" stop-color="rgb(212,212,212)"/>
    </linearGradient>
    <path id="path-21" fill-rule="evenodd" d="M5.75842285 51.89474487h149.71850586V11.53173828H5.75842285v40.3630066z"/>
    <mask id="mask-22" maskContentUnits="userSpaceOnUse" maskUnits="userSpaceOnUse">
      <rect width="162" height="92" x="0" y="0" fill="black"/>
      <use fill="white" xlink:href="#path-21"/>
    </mask>
    <path id="path-23" fill-rule="evenodd" d="M5.75842285 51.89474487h149.71850586V11.53173828H5.75842285v40.3630066z"/>
    <mask id="mask-24" maskContentUnits="userSpaceOnUse" maskUnits="userSpaceOnUse">
      <rect width="162" height="92" x="0" y="0" fill="black"/>
      <use fill="white" xlink:href="#path-23"/>
    </mask>
    <path id="path-25" fill-rule="evenodd" d="M5.75842285 51.89459229h149.71850586v-40.3630066H5.75842285v40.3630066z"/>
    <mask id="mask-26" maskContentUnits="userSpaceOnUse" maskUnits="userSpaceOnUse">
      <rect width="162" height="92" x="0" y="0" fill="black"/>
      <use fill="white" xlink:href="#path-25"/>
    </mask>
    <path id="path-34" fill-rule="evenodd" d="M17.27520752 80.72546387h126.68487549V-.00057983H17.27520752v80.7260437z"/>
    <mask id="mask-35" maskContentUnits="userSpaceOnUse" maskUnits="userSpaceOnUse">
      <rect width="162" height="92" x="0" y="0" fill="black"/>
      <use fill="white" xlink:href="#path-34"/>
    </mask>
    <path id="path-36" fill-rule="evenodd" d="M17.27520752 80.72546387h126.68487549V-.00057983H17.27520752v80.7260437z"/>
    <mask id="mask-37" maskContentUnits="userSpaceOnUse" maskUnits="userSpaceOnUse">
      <rect width="162" height="92" x="0" y="0" fill="black"/>
      <use fill="white" xlink:href="#path-36"/>
    </mask>
    <path id="path-38" fill-rule="evenodd" d="M17.27520752 80.7253418h126.68487549V-.0007019H17.27520752v80.7260437z"/>
    <mask id="mask-39" maskContentUnits="userSpaceOnUse" maskUnits="userSpaceOnUse">
      <rect width="162" height="92" x="0" y="0" fill="black"/>
      <use fill="white" xlink:href="#path-38"/>
    </mask>
  </defs>
  <g>
    <use fill="none" xlink:href="#rect-1"/>
    <g mask="url(#mask-2)">
      <path fill="rgb(217,217,217)" fill-rule="evenodd" d="M159.39259512 41.35594665l.69676676-.18451665c-4.49731274 14.68637185-14.0159529 26.71455075-28.54440368 36.0845367-14.89123017 9.59486563-31.85548541 14.39229844-50.90428255 14.39229844-19.14093158 0-36.16852926-4.86662655-51.03672581-14.57104893-14.78182051-9.59486563-24.24863505-21.80179503-28.3889268-36.62655436l1.21502303.36326715c4.49731274 3.5577116 14.0101945 6.50997794 28.54440368 8.89716205 14.66665245 2.22573205 31.4466388 3.35589652 50.36299267 3.35589652 18.35203037 0 34.7289285-1.13016447 49.17100324-3.35589652 14.28659785-2.13923987 23.93192288-4.9358203 28.88414946-8.3551444z"/>
      <g>
        <use fill="none" xlink:href="#path-4"/>
        <g mask="url(#mask-5)">
          <use fill="none" xlink:href="#path-6"/>
          <g mask="url(#mask-7)">
            <use fill="none" xlink:href="#path-8"/>
            <g mask="url(#mask-9)">
              <path fill="rgb(191,191,191)" fill-rule="evenodd" d="M134.87331513 48.71744008c10.39391742-1.41847172 18.51326566-3.19444444 24.40411193-5.33945046-1.03651254 3.33859808-2.65462378 6.82711593-4.86009213 10.50015042-4.38214469 6.98280185-11.06189217 14.02903129-20.06227607 21.15022062-6.9273588 5.33945046-15.7434738 9.84280987-26.477137 13.51007822L99.73554 89.7781601c13.86047603-5.08574007 23.64400273-12.50100281 29.42543935-22.2054252 2.65462378-4.27847974 4.31880225-8.31478138 5.01556901-12.09737264.47218905-2.00661853.69676676-4.25541516.69676676-6.75792218z"/>
            </g>
          </g>
        </g>
      </g>
      <g>
        <use fill="none" xlink:href="#path-11"/>
        <g mask="url(#mask-12)">
          <use fill="none" xlink:href="#path-13"/>
          <g mask="url(#mask-14)">
            <use fill="none" xlink:href="#path-15"/>
            <g mask="url(#mask-16)">
              <path fill="rgb(191,191,191)" fill-rule="evenodd" d="M47.12677018 88.00218737C36.0591196 83.74100607 26.6556475 77.70961818 18.91635386 69.8676607 11.06765057 62.05453395 5.758403 53.22079949 2.99436956 43.37798962l1.20926463.36326715 2.59128135 1.59722222c1.84268896 5.70271761 4.85433373 11.48616125 8.9946255 17.4368231 8.09631462 11.48616126 18.53629926 19.88743482 31.33722914 25.22688528z"/>
            </g>
          </g>
        </g>
      </g>
      <path fill="url(#linearGradient-19)" fill-rule="evenodd" d="M136.38201672 12.7270357c15.3403856 5.92183113 23.0105784 13.03725431 23.0105784 21.32897112 0 8.42433815-7.6701928 15.51669675-23.0105784 21.32897112-15.23097594 5.92183113-33.69817437 8.89716205-55.38432008 8.89716205-21.57097765 0-40.03817608-2.97533092-55.37856168-8.89716205C10.39391742 49.57270357 2.76403344 42.48034497 2.76403344 34.05600682c0-8.2917168 7.62988398-15.40714 22.85510152-21.32897112 15.3403856-5.92759727 33.80758403-8.87409747 55.37856168-8.87409747 21.57097765 0 40.04393448 2.9465002 55.38432008 8.87409747z"/>
      <path fill="rgb(245,245,245)" fill-rule="evenodd" d="M161.6383723 31.91676695h-5.01556902c-1.03075414-7.346069-8.816115-13.56197353-23.34456578-18.65347975-14.44207473-5.08574007-31.74031735-7.65744083-51.94079508-7.65744083-20.06227607 0-37.31445146 2.54863618-51.73349258 7.65744083-14.5572428 5.09150622-22.33684525 11.30741075-23.3733578 18.65347975H.33974579c1.84268896-8.04377257 10.45725985-14.80169475 25.79764545-20.25070197 15.56496332-5.44900722 33.87668487-8.1763939 54.8603054-8.1763939 21.12182222 0 39.41051016 2.72738668 54.86606382 8.1763939 15.3403856 5.44900722 23.9549565 12.2069294 25.77461184 20.25070197z"/>
      <g>
        <use fill="none" xlink:href="#path-21"/>
        <g mask="url(#mask-22)">
          <use fill="none" xlink:href="#path-23"/>
          <g mask="url(#mask-24)">
            <use fill="none" xlink:href="#path-25"/>
            <g mask="url(#mask-26)">
              <path fill="rgb(0,0,0)" fill-rule="evenodd" d="M150.80105784 34.39433539c1.84268896 2.24879663 2.81010067 4.43416566 2.91951032 6.57340553l-.85224364-1.05520457c-3.01740318-5.33945046-8.18844907-9.01248496-15.58799693-11.03640192-1.95785702-.58814681-5.24014673-1.23972122-9.85262754-1.9374248-4.96950179-.72076814-9.28830404-1.5568592-12.97944037-2.50250701-4.16332537-1.05520458-9.06372632-1.48766547-14.71271967-1.23972122-6.47820338.4728239-11.64924927.70346971-15.58799693.70346971-12.4611841 0-21.0987886.1787505-25.95888074.5362515-3.4608002.11532291-8.29785872 1.71254513-14.52845077 4.79743282-5.66626856 2.86000802-9.35740488 5.16069996-11.09068419 6.93667268-.80617642-.357501-1.77358812-.4728239-2.92526872-.357501-2.19970995.4728239-4.04815731 2.31799037-5.5511005 5.51820096-.33974577.69770357-1.62386964 1.96048937-3.80630438 3.7364621-2.06726668 1.78173887-3.23622249 3.20021059-3.4608002 4.2611813-3.80054599-2.25456277-6.34576011-4.21505214-7.60109197-5.85840353-.47218905-1.66641596.15547688-3.73646209 1.88875619-6.2389691 1.50294318-2.25456279 3.4608002-4.14585841 5.89084627-5.6738869 1.61811124-1.0840353 5.08466985-2.43331327 10.39391742-4.09972923 5.28621395-1.78173887 8.93128306-3.24633976 10.88338167-4.43993181 6.34576011-4.0305355 14.14839618-6.21590454 23.3733578-6.57340554 2.18243473-.1153229 7.6701928-.2940734 16.44024057-.54201765 7.38227265-.22487966 13.16370926-.51895307 17.29824262-.88222022 7.40530626-.58238066 16.91818802 1.17629363 28.5674373 5.33945047 10.03689643 3.6730345 17.0736649 6.62530084 21.1218222 8.87409747 2.18243475 1.19359206 4.09422454 2.90613718 5.71809419 5.16069996z"/>
            </g>
          </g>
        </g>
      </g>
      <path fill="rgb(245,245,245)" fill-rule="evenodd" d="M156.64583689 31.73801645h5.01556901c.22457772.72076815.33974578 1.66641596.33974578 2.86000802 0 8.6492178-7.89477052 15.98952066-23.70734516 22.02667469-15.81257465 6.06021861-34.9131974 9.07591255-57.29610988 9.07591255-22.37715407 0-41.47777683-3.01569394-57.29035148-9.07591255C7.89477052 50.58754513 0 43.24724228 0 34.59802446l.33974578-2.84270958h5.89084627v1.60298837c0 7.70357 7.33044702 14.21354793 21.97406586 19.54723225 14.64361883 5.45477336 32.37374168 8.1763939 53.1327845 8.1763939 20.8972445 0 38.66767617-2.72162054 53.311295-8.1763939 14.66665246-5.33368432 21.97406587-11.84366225 21.97406587-19.54723225v-1.6202868h.0230336z"/>
      <path fill="rgb(248,244,183)" fill-rule="evenodd" d="M94.58752773 1.44268953c4.49731274-1.85093261 9.31133765-1.4415363 14.44207473 1.17052748l.2015441 4.95311873c4.49731275.58814681 9.06372633 1.60298837 13.69924075 3.0618231 4.9925354 1.55685921 8.073281 3.06758925 9.1961696 4.53219014-.24761134.85338949-.3800546 1.82210188-.3800546 2.90037104.49522265 0 1.26109025.34020256 2.25153557 1.01484155.87527725.58814681 1.81965535.74383273 2.81010066.44975933 0-.674639.1785105-1.7990373.5585651-3.35589651.385813-1.46460088.49522265-2.51980546.385813-3.21750903.49522265-.09225832 1.23805664-.09225832 2.24577717 0 1.12864699.10955676 1.50870158.357501 1.12864699.74383273.49522265-.20181508 1.61811124 1.00907542 3.37442415 3.64420378 1.86572258 2.61782992 3.12681284 3.87484957 3.75447876 3.7883574 4.36486948 5.13186923 6.86401638 8.40127356 7.4916823 9.75055154 2.13636752 3.89791416 1.81965536 7.38643201-.92134447 10.49438428-.49522266 0-1.01347893-.357501-1.50870159-1.03214-.62766593-.7668973-1.19198942-1.21665663-1.68721208-1.30891496-.99044531 2.63512836-1.9348234 4.37073807-2.81010066 5.24719214-1.128647-.28830726-3.37442416-.4728239-6.77188193-.58238067-2.8561679 0-5.1710459-.38633172-6.92735882-1.17052747 1.12288859 4.77436823 1.05378775 8.51083032-.17851049 11.238217-1.75631292 3.75952668-5.51079167 4.45723025-11.26919468 2.02391697-2.38973724 3.87484958-7.19800375 6.64836543-14.46510834 8.3147814-7.4916823 1.64335137-13.07157482.67463898-16.6936103-2.92920177-.3800546.96871239-.69676677 2.2314982-.9443781 3.78259125-.49522266-.08649218-1.30139908-.51895307-2.43004607-1.30314882-1.12288858-.67463898-1.929065-1.06097071-2.44732127-1.17052747-2.1133339.20181508-3.42049139.24794424-3.93874766.15568592-.35702098 0-1.48566797-.674639-3.37442416-2.0527477-6.25362566.40939631-12.36904965-.85338949-18.37506398-3.78259125-3.37442416 3.60384075-7.64715919 4.37073807-12.77789626 2.34105495-5.758403-3.39625952-9.80656031-5.44900722-12.19053916-6.1236462-7.51471592-1.4415363-13.13491725-2.65819295-16.8951544-3.62690534-6.74884833-1.96048937-8.18844908-4.61868231-4.31880226-8.02070798-3.50686743-1.55109306-5.37259-2.56593462-5.62020133-3.0618231-.13820167-.3805656.62766593-1.84516647 2.24577717-4.37073808-.62766593-1.55109306-1.05378775-2.56593461-1.30139908-3.0618231-.24761133-.76689731-.13820167-1.89129563.35702099-3.35589651-2.60855656-1.82210189-3.057712-3.82872042-1.30139908-5.96796029.87527726-1.17052748 3.19015526-2.90613718 6.95039242-5.24719214 4.49731275-2.81387886 8.49940284-1.98355395 12.01202867 2.4736763-1.128647-1.64335139-1.64690326-2.81387886-1.50870159-3.48851785 1.12288859-1.34927798 2.18243474-2.86000803 3.19591367-4.5033594 2.1133339 1.4415363 3.30532332 2.36411953 3.55293465 2.7446851-1.61811124-3.37896108-.385813-5.51820095 3.75447876-6.39465503 3.37442416-.67463898 7.44561508-.34020256 12.19053915 1.01484156-1.7505545-4.46299639-.67373315-7.14425391 3.19591367-8.02070798 3.86964682-.67463899 7.2671046 1.03790614 10.1463061 5.1145708 4.2497014.76689731 7.3074134 1.4415363 9.17313598 2.02391696 3.51262583-1.84516646 6.88704999-2.31799037 10.14630609-1.4415363 3.12681283.85915564 5.48775806 2.90613719 7.12890291 6.10634778-.7601092-4.95311874 1.05954616-8.44740273 5.44744925-10.49438428z"/>
      <path fill="rgb(237,226,106)" fill-rule="evenodd" d="M49.0788688 5.29447453c3.6681027-.85915564 7.6701928-.54201765 11.97171984.92258323-1.9117898 4.84356198-.24761133 7.63437626 5.01556901 8.37820899 4.7909913.74383273 9.66835864-.20181509 14.59755161-2.79081428.49522266.60544524 1.75055452 1.7990373 3.8235796 3.534647 1.77358812 1.48766547 2.81010066 2.83694345 3.12681283 4.07666467 2.06726668-1.35504412 3.35139055-3.22327517 3.8235796-5.56433012.15547687-2.1161753-.31671217-4.209286-1.43960076-6.33122744 1.9117898-.357501 4.14029176-.55931609 6.7027811-.55931609 2.8792015 5.09150622 4.86009213 8.1763939 5.98298072 9.30079222 3.03467838 2.97533093 7.26710459 4.209286 12.68576181 3.71916366 6.05208156 5.0626755 9.4034721 7.96881268 10.05417165 8.7126454 2.54521412 2.86000803 4.07119092 6.64836543 4.54337997 11.35353992-.65069954.1153229-1.12288859-.06919374-1.43960076-.56508223-.15547688.1153229-.4030882.49588849-.71980037 1.10709988-.31095376.74383273-.71980038 1.23972122-1.19198942 1.48766546l-10.30178297-2.59476534-.22457772-4.63598075c-3.03467838 0-5.10770347-.13838748-6.23059205-.38633173-2.38397884-3.33283193-8.45909401-4.63598074-18.17351988-3.89791416-11.02158335 1.73560971-18.26565432 2.8427096-21.77252175 3.33859808-6.39182734 1.12439831-10.5493943 1.72984356-12.4611841 1.86823105-2.54521413.24794424-6.77188193-.06919375-12.6684866-.92258324-6.23059206-.24794424-10.61273674-.49588849-13.15795087-.74383273-4.7909913-.49588849-6.3169681-1.7356097-4.56641358-3.71916366l-5.48775806 2.2314982c-3.19591367-2.86000803-4.63551442-6.57917168-4.31880225-11.15172483 2.72372462-.24794425 9.17889438-.49588849 19.3885429-.74383273 0-1.37234256.24761134-2.36411954.71980038-2.96956479 8.6145709.99177698 13.15795086 4.32460891 13.63013991 10.02156037 4.7967497.36326715 8.37271797.36326715 10.77973042 0 3.50686743-.74383273 5.79871183-2.4102487 6.92735881-5.02231247-6.39182733-3.33283193-10.77397201-5.81227437-13.15795086-7.4094966-3.66810271-2.61206377-5.80447022-5.9448957-6.46092817-10.04462494z"/>
      <path fill="rgb(237,226,106)" fill-rule="evenodd" d="M112.85318205 34.5518953l-.11516806-.09225832.24761133.09225833c.42612182.02306458.89831087.04612916 1.43960075.10955676 7.4916823.85915563 9.72018427 3.40202567 6.67974748 7.61707781-1.3474663 2.34105496-5.10194506 5.06844164-11.22312745 8.15332933-14.84516294 7.31723826-26.33893533 10.04462495-34.45828357 8.1763939 0-1.98355395.15547688-3.54041316.47218905-4.6417469 4.00209009-.24794424 8.52243644-3.7133975 13.6301399-10.40789209 4.16332538-5.55856398 9.89869477-6.68872844 17.2291418-3.33283193-2.51642212-4.25541516-.47218906-6.14671079 6.09814877-5.67388688z"/>
      <path fill="rgb(209,185,47)" fill-rule="evenodd" d="M128.72909913 25.33759527l.9501365 2.34105495 2.81010066-1.3262134c.74283399.87645407 2.20546835 1.89129563 4.31880225 3.0618231 1.26109026.88222022 2.38397885 2.0527477 3.37442416 3.494284l4.49731275-2.02968311c2.13636751.87645407 4.31880225 2.34105495 6.57033782 4.37073807 2.26881079 2.13923987 3.4608002 3.98440633 3.57596827 5.54126554-3.12681283 2.31799037-5.5568589 4.0305355-7.33620543 5.09150622-1.7332793.9687124-4.24970141 2.61206378-7.4916823 4.95311873.63342433-.58238067-1.43960075-.09225832-6.18452483 1.4415363-4.62975601 1.66641597-7.15193653 2.72738668-7.50895751 3.22327517-1.64690326-1.93742479-2.63159018-3.56347774-3.01740318-4.82049739-2.98861116-1.5568592-5.62020133-2.65819294-7.8717369-3.35589651.74283398 2.51980545 1.01347893 4.48029482.74283398 5.8295728-.24761132 4.66481148-3.69113632 7.59401324-10.32481658 8.74147614-1.23805665-.38056559-11.98899505-.58814681-32.28160723-.58814681-17.49978673.1153229-27.39272309-1.72984357-29.64425866-5.51820097-4.3879031.38633173-7.19800376.51895307-8.4360604.4324609-1.88875619-.09225833-3.12681283-1.17052748-3.75447876-3.2002106-1.37049991-.09225832-3.01740317-.54201765-4.88312575-1.30891496-2.13636751-.78419575-3.68537792-1.21665664-4.69885685-1.30314882 0-.2940734-.81193482-.83609105-2.43004606-1.6202868-1.64114486-.85915563-2.56248934-1.4415363-2.81010067-1.7356097-2.14212592-.4958885-3.8235796-1.71254513-5.08466985-3.64996992-1.48566798-2.31799037-2.6776574-3.7364621-3.55293465-4.209286l9.76049309.13262134c-.24761133-.674639-.385813-1.21665664-.385813-1.59722222-.3800546-.58814682-.3800546-1.21665664 0-1.89129563 1.62386964-.40939631 2.4991469-.58814681 2.63734857-.58814681.24185293-.20181509.5585651-.7899619.92134448-1.7586743 2.13636751.29407341 5.5741341.34020258 10.32481658.16145207-.36277938-.5881468-.67949155-2.00661853-.92710288-4.23811672-.24185292-2.04698155-.7601092-3.48851785-1.50294318-4.37073807l4.87736734 1.17629362c.24761133-.38633173.04606723-.68040513-.55856509-.88222021 1.9117898.5881468 5.03860263.9687124 9.3804385 1.17052747l2.63159016-4.23235058c6.25362567.7899619 11.130993.74383273 14.62058523-.13262134 4.27273503-1.2627858 5.51079167-3.7883574 3.75447876-7.59401323 3.51262583.1153229 6.144216 1.37234255 7.89477051 3.78259125 1.128647 1.3781087 2.36094523 3.56347774 3.76023716 6.57917168.87527726-.58814681 2.42428767-1.21665664 4.67582324-1.89129563 2.4991469-.69770357 3.93874766-1.17052747 4.31880225-1.46460088l-1.68721208 3.35589651c.49522266.09225832 1.68721208.13262134 3.57596827.13262134 1.37049991 0 2.36094523.20758123 2.99436956.58814681-2.00392424 3.10795227-3.443525 4.95311873-4.31880225 5.54126555-1.50870159-.674639-2.8792015-1.01484156-4.14029176-1.01484156l-1.12288859 2.02968311c-6.61640505-1.17052747-13.00247398-.92258323-19.12365637.72076815l-.2015441 3.35589651c4.14029176-.4728239 7.62412557-.38633173 10.50332707.2940734 3.76023716 1.05520458 6.00601434 2.81387887 6.77188194 5.24719215-1.88875619-1.2627858-3.57596827-2.00661854-5.08466986-2.18536904-1.37049991 1.4415363-2.4933885 2.65819294-3.37442416 3.62690534-.35702098.20181508-2.74099983.44975932-7.12890291.74383273l.94437809 2.4736763c-.62766593.4728239-1.05378775.92258323-1.30139908 1.30891496 2.1133339.20181508 3.4377666.62850982 3.93298925 1.30314881.99044532 1.35504413 1.62386965 2.13923987 1.86572257 2.32375652l-2.81010066.2940734c-.49522266 2.34105496-.62766593 3.4423887-.3800546 3.35589652.7658676.49012234 2.314878.62850982 4.69885685.44975932 1.26109026 2.22573205 2.94830234 3.87484958 5.06163624 4.93005415 1.26109026-1.7356097 2.13636751-3.2405736 2.63159017-4.5033594 1.61811125 0 4.24970142-.20181508 7.89477052-.58814681 3.12681283-.38056559 5.7353694-.47282391 7.8717369-.28830726-.13244326-.68040514-.17851049-1.89706178-.17851049-3.64996992 0-1.7356097-.2015441-2.90613718-.55856509-3.494284.35702099-.20181508.87527726 0 1.47990957.58814682.63342433.4728239 1.08257977.67463899 1.3301911.58238066-.13820168-1.84516646.24761132-2.96956478 1.12288858-3.3558965.36277939.20758122 1.93482341.72076814 4.68158164 1.60298836 2.38397885.67463899 4.00209009 1.37234256 4.87736735 2.04698155 2.63159017-2.04698155 5.64899334-2.81387886 9.0234175-2.34105496.35702099.09225833.74283399.20181509 1.12288859.2940734-.3800546-2.23149819-1.05954616-4.95888487-2.06726668-8.15332931-1.87148098-5.83533895-2.18243474-9.71018853-.92710288-11.6706779 1.7332793-2.99262936 7.18072854-3.71339751 16.3077973-2.16230445z"/>
      <path fill="rgb(237,226,106)" fill-rule="evenodd" d="M57.45159912 28.33596802c-2.3897705-.2479248-4.23242187.1095581-5.49353027 1.10134887-.6506958.51895142-1.8427124 1.55685425-3.59899903 3.17715455l4.43395997.27099609c1.1229248-1.55685425 2.67767334-3.06182861 4.65856933-4.54949951zm-6.68548584 10.76541137c-.08642578-2.0296936.54125977-4.0074768 1.91174317-5.94488525-3.55291749.40362549-5.46472168.72076416-5.73535157.9456482-1.77355957.60543823-2.71795654 2.09310912-2.87921142 4.45721435-.96740723-.2479248-2.6315918-.31713867-5.03857422-.20181274-2.53948975.13262939-4.22668457.13262939-5.01556397 0-.62768554 2.9753418 1.03649903 5.51821899 5.01556397 7.61132812 2.40698242 1.23971558 6.14422607 2.97531128 11.24615478 5.20681763.49523926-1.4876709.6564331-5.4951477.49523926-12.0743103z"/>
      <g>
        <use fill="none" xlink:href="#path-34"/>
        <g mask="url(#mask-35)">
          <use fill="none" xlink:href="#path-36"/>
          <g mask="url(#mask-37)">
            <use fill="none" xlink:href="#path-38"/>
            <g mask="url(#mask-39)">
              <path fill="rgb(173,75,1)" fill-rule="evenodd" d="M125.08978843 17.97235384c4.31880225 1.48766546 6.54154581 3.9671079 6.7027811 7.43256117 4.47427913.74383273 8.20572428 2.47944244 11.24616106 5.20682912l-1.43960075 2.5889992c-1.10561338-.4728239-2.79282546-.85915563-5.01556901-1.10709988-2.72372462-.38056558-4.48003754-.67463899-5.26318035-.92258323.31095376 1.35504412 2.94254394 4.75130365 7.89477052 10.20607701 3.35139055 4.45723025 1.68721208 5.94489571-5.01556902 4.45723025.78314281-3.33283193-1.28412387-6.86747894-6.23059205-10.5866426-5.10770346-3.58077617-10.21540692-5.27025672-15.32311039-5.02231248 1.128647 1.23972122 2.16515953 3.71916366 3.12681283 7.43256118-2.24577717-.357501-4.2266678-1.28008424-5.98298072-2.7677497-2.56248933-2.2314982-4.31880225-3.60384076-5.26318034-4.09972925-1.75055451 2.2314982-.24761133 5.87570197 4.54337997 10.96720819 5.5798925 5.81227437 8.37271796 9.71018853 8.37271796 11.69374248 1.43960075.38056558 3.19015527 1.12439831 5.26318035 2.22573205-2.70069101 3.10795226-6.39182733 4.46299639-11.00430814 4.09972924.78890121-5.5873947-.33398737-10.22337545-3.35139055-13.94253911-2.22274356-2.72162054-6.85825797-6.06021861-13.87775123-10.02156037-5.89084628 1.98355395-9.48984815 6.2620337-10.77397202 12.8181408-1.43960075 6.93667268 1.9117898 10.47131969 10.05417164 10.5866426.16123528.73806658.09213445 1.86823104-.24761133 3.3558965l-15.5419297-.38633173c-.31671217 1.6202868.24761133 4.39380265 1.66417846 8.3551444 1.12288859 3.35589652.81193483 6.0832832-.94437809 8.17639391-.62766593-.62850983-2.25153557-4.45723024-4.7909913-11.50922583-1.75631291-4.70517449-5.73536939-6.75792218-11.96596144-6.12364621.47218905-1.48766546.81193483-2.43331328.9674117-2.79658042.15547689-.38056559 1.09985498-.92258324 2.8561679-1.66641597.81193482-3.46545327-.15547688-7.18461693-2.8561679-11.14595868-3.03467837-4.4629964-6.86401637-6.12941236-11.49377239-5.02231248-3.51262583.87645407-5.26318034 3.71339751-5.26318034 8.5338949 0 3.9671079.71980037 7.18461693 2.15940113 9.66405937-8.93128306.87645407-11.33829552-2.77351584-7.17497015-10.94990974 5.10194506-9.79668071 6.36303532-15.42443843 3.8235796-16.9121039-4.95222658-2.83694344-8.70670534-.06919374-11.24616107 8.3551444-2.38397884 7.68050542-2.8792015 13.01995589-1.43960075 15.98952067-6.36879372 0-10.59546152-1.37234256-12.69152022-4.0939631 6.54730422-.85915564 10.30754138-3.15408143 11.25191947-6.87324509.15547688-4.82049739.9674117-8.60308864 2.40701246-11.33047533.47218904-.74383273 3.10377922-3.33283193 7.89477051-7.79006217 1.59507764-1.48766546.62766593-4.09972924-2.8792015-7.8188929-.16123528-.10955676-2.22850196-.60544525-6.21331684-1.48766546-2.40125405-.49012235-1.929065-1.84516647 1.42232554-4.07666467 1.59507764-.98601083 4.38214469-1.55109306 8.38999318-1.66641596 1.57204402 0 4.6067224.18451665 9.08675994.54201765.62766592 0 3.57596826.44975933 8.8391486 1.30891496 4.16332538.74383273 6.95039243.8533895 8.38999318.38056559 1.86572258-.54201765 3.50686743-1.64335139 4.90615936-3.35589652.08637605-.09225832.15547688-.1787505.22457772-.27100882.22457772-.2940734.42612182-.55931608.60463231-.83032491 1.43960075-2.36411953 3.35139055-3.7883574 5.7353694-4.28424589l-3.93298926 3.24633975c.82921004-.49588848 1.59507763-.69770357 2.26881079-.6515744 3.82357959.24794424 5.73536939.99177697 5.73536939 2.22573204.15547688 2.36988568.31671216 3.60384076.47218904 3.71916366.49522266.62850983.40884662 1.86823105-.22457771 3.71339752-.47218905 1.23972122.7889012 2.2314982 3.82357959 2.97533092 2.72372462.74383273 4.95222658.674639 6.7027811-.1787505 1.10561337-.49588849 2.54521412-1.48766546 4.29576864-2.97533093.81193482-.49588848 1.37625831-1.98355395 1.68721208-4.45723024.31671216-1.85093261 2.22850196-2.72738668 5.73536939-2.5889992 1.43960075 0 2.79282545.78419575 4.07119092 2.4102487 1.60083603 1.9777878 2.700691 3.14831528 3.35139055 3.51158243 2.22850196 1.12439831 6.05208155 2.2949258 11.47649718 3.53464701z"/>
            </g>
          </g>
        </g>
      </g>
      <path fill="rgb(220,200,191)" fill-rule="evenodd" d="M74.68072854 30.18115724l7.89477052.56508223c-1.60083603 2.96956478-5.26318034 4.95311873-10.99854973 5.9448957-.47218905 1.73560972-.16123529 4.0305355.9674117 6.86747895 1.25533186 3.22327517 1.9117898 5.45477336 1.9117898 6.69449458-3.35139055-3.1137184-5.758403-7.19038307-7.19800376-12.25305856-1.57780242-5.95066185.89831087-8.56272563 7.42258147-7.8188929z"/>
      <path fill="rgb(220,200,191)" fill-rule="evenodd" d="M106.50742194 18.6719314v-.92258323c2.72372462-.74383273 5.42441563-.67463898 8.14238185.1787505 2.56248933.87645408 4.63551442 2.2314982 6.23059205 4.09972925-3.66810272-.24794425-7.57805835-.20181508-11.71835011.1787505-4.7909913.74383273-8.45909402 1.23972122-11.02158335 1.48766546 0-3.96134175 2.78706705-5.63352386 8.36695956-5.02231247z"/>
      <path fill="rgb(220,200,191)" fill-rule="evenodd" d="M46.1996673 17.74934817c.33974577.87645408.65645793 2.2949258.9674117 4.27847975-1.12288859-1.23972122-4.13453336-3.78259126-9.08675994-7.61131167 3.19591366-2.12194144 8.6145709-1.9374248 16.26748848.5362515 7.6701928 2.61782992 13.33646136 3.06758925 17.00456407 1.30891496 4.24970142 2.90613719 2.33791162 4.07666466-5.758403 3.53464701-11.47649719-1.37234256-17.95470057-2.04698155-19.39430132-2.04698155z"/>
      <path fill="rgb(127,165,17)" fill-rule="evenodd" d="M109.38662344 38.73811673c1.43960075.36326714 2.70069101 1.06097071 3.8235796 2.02968311-2.22850197 1.2627858-4.07119093 1.93742479-5.48775806 2.04698155-1.59507764.24794424-4.0020901.1153229-7.19800376-.357501.49522266-2.72738669 2.97133595-5.02231248 7.42258147-6.86747895l-3.57596826 2.4102487c3.01164477.49012234 4.69885685.73806659 5.01556901.73806659z"/>
      <path fill="rgb(127,165,17)" fill-rule="evenodd" d="M123.98417506 19.23701364c1.95785702 1.0090754 3.30532332 1.82210188 4.07119092 2.4102487 1.28412387.98601082 2.00392424 2.22573204 2.15940112 3.7133975-4.47427913-.24794424-7.26134618-1.3031488-8.38999317-3.177146-.9443781-1.57415764-.24761133-2.56593462 2.15940113-2.9465002z"/>
      <path fill="rgb(127,165,17)" fill-rule="evenodd" d="M59.49581983 37.16395909l6.81794915.44975932c.80617642 3.10795227.15547688 5.13763538-1.9117898 6.15247694-2.07302508 1.10133373-4.95222658.92258323-8.61457089-.56508223.15547688-2.07581228 1.39353353-4.07666466 3.70841154-6.03715403z"/>
      <path fill="rgb(127,165,17)" fill-rule="evenodd" d="M90.47026958 31.12680505v-1.30314881l5.51079167.1787505c1.75631292.24794424 3.28228971.87645407 4.54337997 1.86823105-3.66810271 3.33283193-8.21148268 4.25541516-13.6301399 2.7677497.15547687-1.48189932.7889012-2.4736763 1.9117898-2.96956479.9674117-.24794424 1.50870158-.42669474 1.66417846-.54201765z"/>
      <path fill="rgb(127,165,17)" fill-rule="evenodd" d="M38.44309845 26.1967509l7.2843798.4728239c-.15547689.99177698-.24761133 2.54287005-.24761133 4.63598076-4.29576864-.357501-7.01373486-1.10133374-8.11934824-2.22573205-.80617642-.9052848-.44915543-1.85093262 1.08257977-2.8830726z"/>
      <path fill="rgb(127,165,17)" fill-rule="evenodd" d="M97.66827333 7.9065383l-1.9117898 1.10133374c.78890122.24794425 1.98089064.94564782 3.57596827 2.0527477 1.75631292.99177697 3.97905648 1.37234255 6.7027811 1.12439831-.81193483 4.8204974-4.2266678 6.12364621-10.27874936 3.89791416-5.91387989-2.2314982-5.28621396-4.95888488 1.9117898-8.1763939z"/>
      <path fill="rgb(127,165,17)" fill-rule="evenodd" d="M78.27972412 10.69735718c2.87921143-1.86825562 3.25927734-3.42510987 1.19195557-4.65905762-1.80236817-.99179077-3.59899903-1.06097412-5.3782959-.18450928-1.7736206 1.6260376-2.29187012 3.29244995-1.54901123 5.02230835.78314209 1.98355103 2.69488525 1.91436768 5.73535156-.17874145zm-4.543396-4.65905762c.08636475-.04614258.2015381-.11532593.35699463-.18450928.0914917-.10534668.16485596-.19979858.27197266-.28909301l.09082031-.06842041c-.03314209.02252197-.06311035.0453186-.09082031.0684204l-.62896729.4736023z"/>
    </g>
  </g>
</svg>
