<svg xmlns="http://www.w3.org/2000/svg" width="49.749" height="45.946" viewBox="0 0 49.749 45.946">
  <g opacity=".65" transform="rotate(-23.000008 24.87467521 22.97298271)">
    <path fill="rgb(255,255,255)" fill-rule="evenodd" d="M42.75928497 18.78471502c-.64801026-2.6845398-2.7189331-4.06872558-4.91668701-4.94961547-3.14160157-1.25836182-6.5368042-1.60791016-9.9319458-1.25836182-1.11297608.12582397-2.14141846.9927063-3.24023438 1.48208618-.22009277.09851074-.46270752.23904419-.70629883.38012695-.55163574.31948853-1.10827637.64190674-1.4210205.48675537-1.48925782-.79864501-3.06048585-.72332763-4.6090088-.64910888-.26776123.0128479-.53485107.02566528-.80072021.03390503-.95800781 0-1.94415283.36352539-2.88806152.71307373-.74664307.26565552-1.352417.88085937-2.09906006 1.18847656-1.38061524.57324219-2.12731934 1.67782593-2.81762696 2.88027954-.35217285.54528809-.26763916.8109436.29589844 1.09057617.42260742.22372437.94384766.44741822 1.14111328.8109436.56347657 1.20245362 1.04248047 2.44683839 1.50738526 3.69125367.22540283.58721924-.05633545.90881348-.69030762.90881348-.16906738 0-.32403564 0-.49310303-.0279541.05236817.05670165.1095581.13412475.1661377.21072387.11083984.150177.21942138.29714966.284729.27862549.56347656-.09786987 1.23968506-.15377808 1.63415528-.48934937.59173584-.5732727.5635376-1.32827758-.02813721-1.99942016-.5635376-.61520386-.84527588-1.16049195-.02819824-1.9015503.49310302-.4474182.42266845-1.18847656.07043457-1.7197876-.32403565-.48934936-.7607422-.96475219-1.54968262-.54528808-.2999878.14291382-.73278809.08294678-1.13336182.0274353-.06958008-.00964355-.1381836-.01916504-.20495605-.0274353-.15496826 0-.2958374-.1538086-.45080567-.25167847.12677002-.15377807.1972046-.36352539.35217286-.47537231 1.70465087-1.03466797 3.35290527-2.16720581 5.14208984-3.06204224.4020996-.19952392.90167236-.17837524 1.40814209-.1569519.3100586.01309204.62237549.02630615.91638184-.01083374.37249755-.03695679.7388916.06570434 1.10632324.16864014.6050415.16955566 1.21221924.33969116 1.85211181-.11273194.15472412-.1055603.42224121-.05300903.68902588-.00061035.1217041.02392578.24310303.04779053.35351563.05654907-.19726563.32159424-.39447022.64315796-.59173584.9367981-.05633545.06991577-.12677002.1538086-.16900635.16778564-2.25408936 1.51004029-3.5501709 3.57937622-4.00097656 6.2079773-.22540283 1.20245361-.45080567 2.41888428-.59173584 3.62130737-.03509522.24395752.02282715.49874878.08166504.75784302.0355835.15652466.07147216.3145752.08740234.47259521-.39447021-.26568603-.7888794-.5453186-1.1833496-.81097412-.09863282-.06991577-.15496827-.19573974-.25360108-.26565552-.12677002-.12582397-.25360108-.22369384-.36627198-.32159423-.01019287.05560302-.03326416.1166687-.0559082.17663574-.04003906.105896-.07867432.20831299-.0427246.27081299.42266845.58721924.8875122 1.18844604 1.3383789 1.7756958.45080566.61520386.95794678 1.20245361 1.33831787 1.87356567.07043457.1538086-.42260742.81097412-.56347656.7829895-1.0425415-.19573974-2.07098389-.48934936-3.08526612-.8109436-.76074218-.25167847-1.50744629-.61520386-2.25408935-.83892822-.17840576-.06521607-.38183594-.04351807-.58544922-.02175904-.10168457.01089478-.20343018.02175904-.30206299.02175904.16900635.25167846.2958374.5453186.52124024.68511963 1.9300537 1.23040771 3.94458007 2.19519043 6.33953857 1.99942016.22540283 0 .59173584.06991577.66217041.25167847.74664307 1.51004028 1.90185547 2.58666992 3.24017334 3.55142212.98620605.71307373 1.97235107 1.51004028 3.08526611 2.04135132.859375.44741821 1.9019165.64318847 2.85986328.7829895.42224122.06777954.86633301.06497192 1.30938721.06213379.5623169-.00357056 1.1229248-.00714112 1.63500977.13360595 1.9440918.51733399 3.80371093.57327271 5.60699463-.41943359 2.81756591-1.52404785 5.64923095-3.03408813 8.4668579-4.68395996.25354004-.9647522.71844483-1.81765747.71844483-2.6565857-.07043457-2.81036376-.15496826-5.62072753-.52124023-8.4031372-.1972046-1.39819336-1.28198243-2.6845398-1.63421631-4.11068726zm.3803711 14.69500733c.14086913-.09786987.40856933-.13980103.46490478-.29360962.14086914-.41946411.2113037-.89483643.2958374-1.34225464-.15496826.06988525-.2958374.16778564-.45080567.22369385-.07043457.04196167-.16906738.04196167-.2677002.06991577.02819825-.12582398.02819825-.22372437.0563965-.34954834.08453368-.19573975.22540283-.3914795.25354003-.58724976.0180664-.40029907.0386963-.79934692.05932617-1.19766235.07580567-1.46585083.15106202-2.92184448.0956421-4.39511108-.09857178-2.16720581-.7607422-4.22253418-1.9440918-6.06814576-.7467041-1.1744995-1.26794434-2.75445556-2.32452393-3.39761352-1.81732178-1.1185608-3.94464111-1.84561157-6.04370117-2.3210144-1.05096436-.25109864-2.18927002-.18865967-3.33135986-.1260376-.51141358.02804565-1.02355957.05612182-1.5289917.05612182-.16906739 0-.35217285.1258545-.52124024.19577027.16906739.09786987.32397461.26565551.52124024.26565551 1.80322265.19573975 3.60650634.34954834 5.40979004.51733399.15490722.01397705.2958374.16775513.42260742.26565552-.14086914.06988525-.2958374.19573974-.46490479.22369384-.38427734 0-.76983642.01208496-1.15594482.02420044-.85968018.02694702-1.7218628.0539856-2.57733154-.05215454-1.4432373-.17333984-2.59857178.42721558-3.75561524 1.02868653-.6161499.32028198-1.23278808.64083862-1.89367676.84487915-.16906738.05593872-.35217285.15380859-.52124023.22372436.11273193-.20974731.19720459-.47540283.36627197-.5732727.87347412-.48934937 1.77508545-.90881348 2.62036133-1.42614746.32403564-.19573975.49310303-.58724976.71850586-.90881348-.1375122.02020264-.28973389.0166626-.44073486.01315308-.26672364-.00619507-.52947998-.01229859-.70037842.1126709-1.74694824 1.18847656-3.4375 2.44683837-5.28302002 3.80310058-.36627197.29360962-.7888794.53131103-1.11291504.88085937-2.43719482 2.65655518-2.93029785 5.81646729-1.84552002 9.17214966.61987305 1.84561157 1.39471436 3.77511597 2.54992676 5.32711792 1.62011719 2.18118286 3.62060547 4.0967102 6.76220703 3.99884033.43389892-.03076171.86779785.03152466 1.30169678.09381104.3550415.05096436.71002197.10192871 1.06506347.10192871.41186524.01486206.83862305.05340576 1.26916504.09231567 1.18963623.10748291 2.40838623.21762085 3.42211914-.16223144 2.54992676-.9367981 4.91668701-2.41888428 7.31164551-3.74716187.36627197-.19573974.50714111-.83892822.76074219-1.25836181.08453369-.1258545.18310547-.22372437.25354004-.32159424 0 .12582397.02819824.22372436.02819824.34954834.05633545.22372436.09863281.41946411.15496826.64315796zm-31.3737793-13.32476807c.26770019.19573975.54943847.41946411.81707763.61520386-.09857178.51733398-.22540283.8109436-.35217285 1.09060669-.1972046-.29364014-.49310303-.58724976-.61987305-.9367981-.05285644-.1468811.0211792-.3645935.09124756-.5704956.0232544-.06848145.04614258-.13568115.0637207-.19851685z"/>
    <path fill="rgb(255,255,255)" fill-rule="evenodd" d="M35.44767865 7.87879614c-.15496722-.22371104-.46490166-.39149431-.74666024-.54529564-1.43696876-.8109525-2.8175858-.64316922-4.14185113.41945818-.16905515.36353043-.26767065.68511504-.36628615.9927177.25358272-.05592775.54942923-.05592775.71848438-.19574715 1.3101774-1.1325371 2.6203548-.88086219 3.97279598-.05592775.197231.12583745.45081373.12583745.66213266.19574715-.02817586-.26565685.05635172-.58724146-.0986155-.8109525z"/>
    <path fill="rgb(255,255,255)" fill-rule="evenodd" d="M31.67211367 9.36088173c-.2958465.19574715-.59169301.26565685-.76074816.44742206-.22540687.22371103-.36628616.54529564-.54942923.78298861.26767065 0 .56351716.05592776.76074816-.0699097 1.4087929-.68511503 2.6203548-.54529563 3.67694947.61520535.0986155.09787357.35219823.02796387.49307752.02796387 0-.19574715.07043964-.3914943 0-.54529564-.5353413-1.23041067-2.16954107-1.81765213-3.62059776-1.25837455z"/>
    <path fill="rgb(255,255,255)" fill-rule="evenodd" d="M15.79501768 18.08561199c-.197231.22371103-.46490166.51733176-.46490166.76900667.05635172.51733177.25358272 1.03466353.36628616 1.55199529.26767065-.29362073.56351716-.57325952.84527574-.9927177.0986155-.47538595.22540686-.78298862.22540686-1.1325371.02817586-.19574716-.197231-.39149431-.2958465-.58724147-.2394948.12583746-.50716545.22371103-.6762206.3914943z"/>
    <path fill="rgb(255,255,255)" fill-rule="evenodd" d="M4.93322441 22.14037445c.07043965.48936788-.0986155 1.35624813.52125338.90882607.59169301-.3914943.78892402-1.35624813 1.15521018-2.06932705-.0986155-.02796388-.22540687-.05592776-.32402237-.0699097-1.0143309-.30760267-.91571539.71307892-1.35244119 1.23041068z"/>
    <path fill="rgb(255,255,255)" fill-rule="evenodd" d="M12.28712336 27.11794492c-.42263787-.02796388-.76074817 0-1.14112225.02796388.197231.22371103.42263787.44742207.59169301.68511504.15496722.22371103.22540687.47538594.35219823.68511503.12679136.16778328.26767065.3495485.42263787.51733177.197231-.19574716.49307752-.36353043.54942923-.61520534.18314308-.61520534-.05635171-1.0626274-.7748361-1.30032038z"/>
    <path fill="rgb(255,255,255)" fill-rule="evenodd" d="M14.65389543 21.83277178c-.05635172-.02796388-.07043965-.05592776-.15496722-.15380133-.91571538.68511503-.2958465 1.35624813.07043965 1.99941735.05635171.05592776.54942923 0 .59169301-.12583746.38037409-.69909697.08452758-1.24439261-.50716544-1.71977856z"/>
    <path fill="rgb(255,255,255)" fill-rule="evenodd" d="M7.34226027 27.48147535c.07043965.29362073.07043965.64316922.25358273.83891637.25358272.29362073.61986887.48936788.98615503.64316922-.07043965-.48936788-.12679136-.9927177-.35219823-1.38421201-.08452757-.1398194-.57760509-.0699097-.88753953-.09787358z"/>
    <path fill="rgb(255,255,255)" fill-rule="evenodd" d="M6.93371033 23.24494767c.32402237.3495485.64804474.71307892 1.0143309.99271771.15496721.12583746.42263786.05592776.64804473.05592776-.0986155-.22371103-.19723101-.44742207-.36628616-.7410428-.47898959-.1398194-.90162746-.23769297-1.29608947-.30760267z"/>
    <path fill="rgb(255,255,255)" fill-rule="evenodd" d="M30.15064239 25.83162054c-.32403565-.68511963.63397217-2.11126709 1.25378418-2.36294556 1.01434326-.4194641 1.87371826.26565552 2.16955566 1.87356568-.43670654.55929565-.80297851 1.25839233-1.35241699 1.42617798-.81713867.26565551-1.67645264-.06991577-2.07092285-.9367981zm1.73364258-1.21368408c-.0939331.11932373-.18273926.23214722-.15582276.47262573.1126709-.09790039.23950196-.19577026.36627198-.29364013-.07043457-.04193116-.12677002-.12582398-.19726563-.19573975l-.0131836.01675415z"/>
    <path fill="rgb(255,255,255)" fill-rule="evenodd" d="M21.40201343 19.62362534c-1.93004628 1.70579662-2.69079445 3.87299724-2.6203548 6.38974636 0 .26565685.25358272.54529564.36628615.78298861.12679137-.26565685.26767066-.54529564.35219823-.83891637.2958465-1.35624813.59169302-2.71249627.94389124-4.1386541.07043965-.16778327.07043965-.29362073.15496722-.36353043.69030852-.7829886 1.4087929-1.55199528 2.07092557-2.36294778.22540686-.22371103.32402236-.54529564.46490165-.83891637-.25358272.15380134-.54942923.25167491-.76074816.41945819-.35219823.27963879-.6339568.65715116-.9720671.95077189z"/>
    <path fill="rgb(255,255,255)" fill-rule="evenodd" d="M36.56062504 18.58896181c-.15496722-.25167491-.36628615-.41945818-.56351716-.64316922-.07043964.29362073-.12679136.57325952-.25358272.90882607-.39446201 1.09059129-.26767065 1.97145348.74666024 2.544713.36628615.19574715.76074816.3215846 1.15521017.47538594.19723101.0699097.39446202.12583746.59169302.16778327-.02817586-.22371103-.02817586-.47538594-.12679136-.6711331-.49307751-.93678994-1.00024296-1.87357989-1.54967219-2.78240596z"/>
    <path fill="rgb(255,255,255)" fill-rule="evenodd" d="M25.13531461 19.3999143c-.36628615.26565686-.71848438.64316922-.91571538 1.0626274-.16905515.39149431-.15496722.8808622-.22540687 1.32828426.45081373-.05592776.85936367-.09787357 1.38061705-.22371103.32402236-.3914943.69030852-.68511504.78892402-1.09059128.15496722-.41945819.05635172-.93678995.05635172-1.4121759-.38037409.11185552-.78892403.11185552-1.08477054.33556655z"/>
    <path fill="rgb(255,255,255)" fill-rule="evenodd" d="M23.7687855 29.83044119c-.07043965-.02796388-.36628615.51733176-.49307752.86688025.39446202.3215846.71848438.6711331 1.08477054.83891637.36628615.15380134.81709988.12583746 1.23973775.16778328-.05635172-.36353043 0-.86688026-.22540686-1.0626274-.45081373-.37751238-1.04250675-.61520535-1.60602391-.8109525z"/>
    <path fill="rgb(255,255,255)" fill-rule="evenodd" d="M35.12365628 33.99705917c-.64804473.19574715-1.28200154.47538594-1.97231006.76900667-.05635172.25167491-.0986155.51733176-.02817586.57325952.66213267.3914943 2.07092557.0699097 2.49356344-.57325952.12679136-.16778327.12679136-.44742206.16905514-.6711331-.21131893-.05592775-.46490165-.18176521-.66213266-.09787357z"/>
    <path fill="rgb(255,255,255)" fill-rule="evenodd" d="M40.0403435 28.18057233c-.12679136.2516749.0986155.74104279-.07043964.93678994-.69030852.86688025.32402237.54529564.52125337.78298862.25358273-.22371104.64804474-.39149431.71848438-.64316922.12679136-.41945819.02817586-.8808622-.02817585-1.4121759-.69030853-.69909697-.94389125-.08389163-1.14112225.33556656z"/>
    <path fill="rgb(255,255,255)" fill-rule="evenodd" d="M38.51884717 16.71538192c-.2958465.15380133-.49307751.26565685-.69030852.41945818.26767065.09787358.54942923.26565685.84527574.29362073.16905515.02796388.39446201-.09787358.59169302-.15380133-.21131893-.19574716-.40854994-.39149431-.74666024-.55927758z"/>
  </g>
</svg>
