<svg  class="mobile-left" xmlns="http://www.w3.org/2000/svg" width="411.304" height="331.316" viewBox="0 0 411.304 331.316">
  <g>
    <path fill="rgb(11,11,13)" fill-rule="evenodd" d="M399.59450618 71.85284314c60.73904338 99.47040832-134 204-146 204s-193.583115 76.87373346-201.12913172 49.61454805C50.78848186 319.40979443-.1222001 205.7237089.00022042 205.47860489.67353331 204.1305327 135.59450618 52.3667273 135.59450618 35.85284313c0-16.51388416 203.26095662-63.47040832 264 36z"/>
    <g opacity=".3" transform="scale(-1 1) rotate(2 0 -19083.46778598)">
      <path fill="rgb(255,255,255)" fill-rule="evenodd" d="M340.76250402 91.86785779c5.33159637 2.053833 7.97996902 5.9177246 7.87542915 11.9050293.83545494-.09387207 1.6928196-.04089356 2.5477047.01196289 1.99770927.12365722 3.9818859.24633789 5.64134407-1.50878907 2.57868194-2.99365234 5.50583649-5.7088623 7.73604584-9.01574707.94086456-1.39245605.76663208-3.8638916.27877044-5.67407226-.1393814-.55688477-2.78775787-.3828125-4.32102966-.55688477-2.37438965-.38671875-3.88862991.9831543-5.40627289 2.35620117-.53149414.48083496-1.06340408.9621582-1.63282776 1.3684082-.76663208.62658692-1.28933906 1.49682618-1.95143127 2.22790528.46337509 0 .92109299.022583 1.37543106.04504395.67318725.03320312 1.33895874.06604003 2.00473022.02453613.34846878-.03479004.59239579-.80065918 1.0105629-1.04431152 1.95143127-1.07910157 3.90286636-2.19299317 5.92399597-3.06323243.8363266-.31335449 1.74234772-.62658691 1.08026123 1.49682618-1.70750427 5.53466796-6.09823608 7.7277832-10.2798767 10.26879882-1.42233277.89465332-1.67003442-.0205078-1.88678742-.82141113-.07000923-.25854492-.13679123-.5053711-.23888207-.67529297-.80148124-1.25317383-1.4287281-2.75-1.672657-4.1772461-.1742344-1.35754394-.1742344-3.3765869.59239959-4.10754394 2.09082222-1.91455078 4.49526405-3.48095703 6.93455696-4.90820312 2.54383469-1.49682617 3.41500854-3.75939942 3.41500854-6.54418946 0-3.41137695-.55755233-4.03796386-3.6240921-2.5411377-3.06653595 1.4272461-6.02853203 3.34179688-8.7466011 5.4650879-1.32615853 1.09863281-1.54145813.0678711-1.6491394-.4477539-.0083275-.03979493-.0160122-.07666016-.02351762-.10913087-1.91658783-5.67407226-3.55439758-11.34802246-5.57552528-16.8828125-.69693947-1.87963867-.52270508-2.2277832 1.1847992-2.9239502 3.13623237-1.28796386 6.86486434-2.40185546 8.88599205-4.90820312 3.65893554-4.42089843 5.15736007-10.33850097 5.26189804-16.25622558 0-1.67077637-1.4287262-3.79418946-3.79832268-2.9239502-4.0422554 1.42712403-7.59665108 3.79418946-10.41926193 7.2055664-.48785782.55700684-.90602303 1.28796388-1.0105629 1.98413087-.05027962.35168457.15334892.73937988.36229134 1.1373291.08068275.15368652.16215515.3088379.23010826.46398926.34847068-.3133545.8363285-.48730469 1.11510467-.87023926 1.25449371-1.4272461 2.439291-2.92407227 3.72863197-4.28161621.18323136-.20910645.58274842-.18273926.97700501-.15649414.1306057.00854492.26063156.01721191.38202858.01721191-.1742344.3133545-.34847069.7310791-.52270508 1.04431153-.94087028 1.49682617-1.95143318 2.92407226-2.71806908 4.42089843-.17386817.32250977-.08217239.78649903.01008225 1.25341797.03717422.18811035.0744419.37670899.09445953.55664063.41816521-.34802246.97571755-.59179688 1.25449372-1.04431153 1.53326797-2.2277832 2.89230346-4.59484863 4.56496048-6.64868164.66209411-.8005371 1.95143318-1.00939941 2.96199798-1.49682617.03439331.33215332.10650635.67553711.1778679 1.01538086.14554404.6932373.28796577 1.37145996.10090827 1.9086914-.87117576 2.61071778-1.98628044 5.18664551-3.06653976 7.72778321-.31362343.696167-.34846878 1.67089844-.83632851 2.053833-2.78776169 2.0189209-5.57552338 4.00305177-8.39813423 5.74353028-1.11510468.66137695-2.23020935.55700684-2.89230347-1.25317383-1.14995193-3.1328125-2.71806717-6.05688476-3.79832649-9.2244873-.31362343-.97473145.10454178-2.92407227.87117577-3.4810791 2.05597496-1.77526856 4.66950225-2.81958008 6.72547721-4.5600586 5.01797295-4.03796386 7.80573464-9.32897949 6.79517174-16.25610351-.03484726-.62658692-.5923996-1.18359375-.87117576-1.74060059-.48785973.5222168-1.08025933.9399414-1.3590355 1.56652832-.17130851.2689209-.13637352.65795899-.10038948 1.05871582.01525307.16992188.03069687.34191895.03069687.50769043-.03484726 7.1011963-2.92715072 12.21826172-9.26931 15.07263184-1.28934097.55700683-2.64837455 1.18359375-4.00741004 1.74047851.10454177-1.28796386.1742363-2.6455078.27877616-3.96826172v-.6265869c.10454178-6.30053712 3.90286827-11.83532716 9.58293343-14.1328125.66209412-.24365235 1.14995193-1.2183838 1.67265892-1.9145508-.13532066-.1040039-.2892971-.25146483-.44799805-.40344237-.37258148-.35668946-.77120018-.73840332-1.01557731-.64086914-2.09082222.76586914-4.84373665 1.11401367-5.92399597 2.68041992-2.99684525 4.42077636-6.02853585 9.01574707-5.61037064 14.9333496 0 .55700684-.31362343 1.04431153-.4181652 1.60131837-.45301057-.45251465-1.11510468-.83544922-1.28934098-1.32275391-1.08025694-2.43676758-2.09082079-4.90820312-3.0316906-7.41455078-.1305933-.36242676-.27327156-.72338867-.41563988-1.08361817-.8833363-2.23522949-1.75477027-4.44030761.34594584-6.74853515.27877617-.3133545.24392939-1.3227539 0-1.81018067-.24392939-.6265869-.87117577-1.07910156-1.35903406-1.56640625-.17423487.59179688-.52270556 1.2183838-.5923996 1.91455079-.02191257.39404296.0526309.8293457.1283164 1.27124023.04467345.26086426.08974457.52404785.11561299.7824707 0 .3133545-.24392939.93994141-.41816426.93994141-.41816425.06958008-.94087028 0-1.28934002-.24365234-.66209411-.38293457-1.1499524-.93994141-1.67265748-1.4272461 0 .29589844-.02096272.60083008-.04181862.9041748-.0502882.73144532-.09995652 1.4539795.14635944 2.01989747 3.44985628 8.45874023 6.93455887 16.88269043 10.41926098 25.34143066 1.56811714 3.9683838 3.24077415 7.90185547 4.59980774 11.93981934 1.53326988 4.42077636 2.71806907 9.01574707 4.18164444 13.43652344 1.46357536 4.21203613 3.2059269 8.31958007 4.66950226 12.56640625.2141819.52294921.08706665 1.17578125-.03727532 1.81445312-.05772972.29650879-.11486053.58996582-.13695907.86584473-.5923996-.38293457-1.25449372-.80065918-1.84689331-1.18347168-.62724686-.45251465-1.1847992-1.07910157-1.88174057-1.3227539-.49596024-.15771485-1.05025673-.15515138-1.61571503-.15246583-.3086052.00146484-.620533.00292969-.92811775-.02160644.5923996.48730468 1.08025932 1.18347167 1.77719879 1.42712402zm16.55233574-10.75610352c-.20907975.55688477-.59239579 1.00952149-.87117386 1.49682617-2.71806717 2.68029786-5.19220734 4.90820313-7.59665108 7.37963868-.86802673.89343261-.90213776.61657715-.9716034.05285644-.02256202-.1829834-.04885291-.3963623-.10865592-.6097412-1.04541016-3.68994142-.69693947-4.66455079 2.4392929-6.47473145 1.91658593-1.14868164 3.79832459-2.33215332 5.74975968-3.37646485.52270508-.31335449 1.28934097-.24365234 1.95143127-.38293457-.17423248.66137695-.34846878 1.28796387-.5923996 1.91455078z"/>
      <path fill="rgb(255,255,255)" fill-rule="evenodd" d="M320.20275186 79.37123857c-2.12566921-2.5063051-1.95143403-4.59489268-.17423518-6.33538233.24392925-.24366855.41816444-.4873371.6620937-.69619586-.59239963-.31328814-1.11510517-.62657627-1.70750479-.93986441-.83632887-.45252731-1.60296367-.93986441-2.43929254-1.42720152.8711759-.31328813 1.84689292-1.009484 2.71806883-1.009484 3.62409178-.13923917 7.14364245-.13923917 10.76773423 0 .83632887.0696196 1.67265775.80062525 2.47413958 1.32277214-.7666348.38290772-1.60296367.73100566-2.43929254 1.11391338-.06969408.06961958-.17423518-.06961959-.24392926 0-2.89230401 1.25315255-5.749761 2.5063051-8.57237094 3.79426744-.17423518.06961958-.1045411 1.32277213.24392926 1.67087006 2.71806883 3.30693034 6.09823136 4.80375144 10.3495698 3.93350662.52270554-.13923918 1.67265774.24366855 1.67265774.31328813-.06969408 1.32277214-.24392926 2.5411149-.59239962 3.72464786-.10454111.31328814-1.25449331.24366855-1.88173996.17404896-1.84689293-.13923917-3.62409178-.4525273-5.3664436-.4873371-.6620937 0-1.35903442.55695669-2.02112811.87024483.4878585.4873371.8711759 1.32277213 1.46357553 1.4968211 1.67265774.55695669 3.41500956.80062524 5.0876673 1.32277213 2.64837477.80062524 5.2619025 1.60125048 7.91027725 2.5411149.06969408 0 .10454111 1.11391337-.06969407 1.18353296-.7666348.31328813-1.67265774.73100565-2.36959847.55695668-3.72863289-1.11391337-7.3875717-2.22782675-10.94196941-3.72464785-2.9619981-1.25315255-3.13623327-4.24679475-.48785851-6.16133337.34847036-.31328813.69694073-.62657627 1.11510516-.9398644-.4878585-.24366856-.94086998-.62657628-1.42872849-.87024483-1.11510516-.41771752-2.36959847-.87024483-3.72863289-1.42720152"/>
      <path fill="rgb(255,255,255)" fill-rule="evenodd" d="M303.05800998 25.20720062c.34847036-1.91453862.4878585-4.83856123 1.4287285-5.22146896 1.60296366-.55695669 3.79832695.45252731 5.68006691.87024483.41816444.06961958.69694073.69619586 1.08025813 1.04429379-.4878585.13923917-.8711759.24366855-1.35903442.31328814-.34847036.06961958-.7666348 0-1.18479923 0-1.11510516.13923917-2.23021033.24366855-3.38016253.31328813.69694073 1.18353297 1.35903442 2.36706593 2.12566922 3.41135972 1.01056405 1.35758193 1.95143404 2.85440303 3.24077438 3.86388703 1.08025813.73100565 2.61352773.69619586 3.90286807 1.11391337.8711759.31328814 1.70750478.87024483 2.54383365 1.25315255-.7666348.4873371-1.5332696.93986442-2.23021032 1.42720152-2.02112811 1.42720151-4.42557362 2.5063051-5.92399618 4.35122413-2.36959847 2.85440303-1.70750478 4.73413185 1.60296367 5.9872844 2.64837476 1.04429379 5.43613767 1.67087006 8.1542065 2.54111489.87117591.31328814 1.67265775.80062524 2.47413959 1.25315255.24392925.17404896.41816443.4873371.66209369.73100565-.2787763.13923917-.59239962.4873371-.87117591.4873371-5.0876673-.06961958-9.86171129-1.42720151-14.1827438-4.42084371-1.60296367-1.11391338-1.2544933-7.0315782.2787763-8.9809266 2.71806883-3.37654993 2.71806883-3.37654993-.06969408-6.30057254-1.32418738-1.28796234-2.54383365-2.61073448-3.97256214-4.037936"/>
      <path fill="rgb(255,255,255)" fill-rule="evenodd" d="M328.7751228 49.50443615c-3.20592734 2.78478345-6.72547801 4.24679475-10.59349905 5.11703958-.94086998.24366855-1.88173996.69619586-2.71806883 1.32277213-.59239962.45252731-1.01056405 1.25315255-1.2544933 1.9841582 0 .17404897.94086997.73100566 1.46357552 1.0442938 3.65893881 2.19301696 7.3875717 4.17717516 11.81314532 3.72464785.59239962-.06961958 1.18479923 0 1.77719885-.06961958 1.01056406-.13923918 2.02112811-.24366856 3.03169216-.45252731-.94086998 1.009484-1.77719885 2.4366855-2.89230401 2.92402261-3.65893882 1.42720151-7.10879542-.4525273-10.41926387-1.4968211-2.05597514-.69619586-3.97256214-2.12339737-5.68006692-3.4809793-.83632888-.73100566-1.70750479-2.5411149-1.4287285-3.30693034.83632888-1.74048965 2.43929255-4.56008289 3.55439771-4.4904633 4.77404398.24366855 8.50267687-2.78478344 12.82370938-3.62021848.24392925.0348098.4878585.41771752.52270554.80062524"/>
      <path fill="rgb(255,255,255)" fill-rule="evenodd" d="M334.28095455 17.23575801c-.17423519-2.54111489-.34847037-4.80375143-.6620937-6.9619586 0-.06961959-1.01056405-.24366855-1.2544933 0-1.60296368 1.60125048-3.03169217 3.41135971-4.5998088 5.04741999-.7666348.73100565-1.70750478 1.32277213-2.61352773 1.91453861.24392926-1.11391337.2787763-2.4366855.83632888-3.30693033 1.11510516-1.91453862 2.43929254-3.86388703 3.97256214-5.43032772 2.23021032-2.29744634 4.73919694-1.42720151 6.09823136 1.4968211 1.70750478 3.68983806 1.35903442 7.10119778-.59239962 10.5125575-1.60296367 2.92402261-3.0665392 5.91766481-4.77404398 8.77206784-.34847036.73100566-1.2544933 1.11391338-1.95143403 1.60125048.1045411-1.009484 0-2.05377779.34847036-2.85440303 1.6378107-3.5157891 3.48470363-6.9967684 5.19220842-10.79103584"/>
      <path fill="rgb(255,255,255)" fill-rule="evenodd" d="M352.01809604 61.44419516c-.34847036-.06961958-.69694072-.13923917-1.11510516-.24366855.52270555-.31328814 1.01056406-.93986441 1.5332696-.93986441 5.0876673 0 7.03910134 3.4809793 5.19220842 8.70244826-1.70750478 4.80375143-5.78460804 6.61386067-9.33900574 9.0157364-.41816444.31328813-1.4287285-.45252732-2.1953633-.69619587.34847037-.55695669.59239962-1.25315255 1.01056406-1.67087006 2.64837476-2.78478345 6.86486616-4.037936 7.87543021-8.5283993.24392926-1.25315255.24392926-2.5063051.34847037-3.72464785-.94086998.55695669-1.88173997 1.04429379-2.82260995 1.60125048-.27877629.17404896-.52270554.4873371-.83632887.73100565.06969407-.4525273.10454111-.87024482.10454111-1.32277213.1045411-.87024483.17423518-1.81010924.41816444-2.78478345.1045411-.38290772.1045411-.55695668.17423518-.73100565-.10454111.20885876-.20908222.41771752-.34847037.59176648"/>
      <path fill="rgb(255,255,255)" fill-rule="evenodd" d="M348.35915723 103.77290349c.4878585.4873371.69694073 1.18353296 1.18479923 1.35758192 5.2619025 2.5063051 4.84373806 7.41448592 4.84373806 12.21823736 0 .4525273-.24392926.93986441-.34847037 1.35758193-.4878585-.31328814-1.2544933-.4873371-1.35903441-.93986442-.48785851-1.91453861-1.35903442-4.03793599-1.11510517-5.91766481.48785851-4.037936-2.23021032-4.80375144-4.66950287-5.5347571-4.42557361-1.32277213-8.99053537-2.12339737-13.48580306-3.23731074-.7666348-.17404897-1.35903442-.93986442-2.05597515-1.4968211.6620937-.06961959 1.28934035-.38290773 1.88173997-.31328814 3.90286807.69619586 7.73604206 1.35758193 11.6040631 2.05377779 1.08025812.20885876 2.23021032.34809793 3.51955067.4525273"/>
      <path fill="rgb(255,255,255)" fill-rule="evenodd" d="M310.61981687 5.40042838c.34847036-1.32277213.4878585-2.54111489 1.11510516-3.16769116.6620937-.69619586 1.88173996-.80062524 2.82260994-1.18353297-.17423518.73100566-.17423518 1.5664407-.52270554 2.22782676-2.47413958 4.9778004-.7666348 9.53788329 1.18479923 14.13277597.10454111.31328814.41816444.55695669.59239962.87024482-.17423518.0696196-.34847036.17404897-.52270554.17404897-3.20592735-.45252731-6.5163958 2.12339737-9.65262907-.55695669-.2787763-.24366855-.66209369-.4873371-.94086998-.73100565.34847036-.17404897.69694073-.38290773 1.11510516-.5569567.17423518-.06961958.34847037 0 .59239962 0 1.95143403-.13923916 3.90286807-.24366854 5.92399618-.38290771-.69694073-1.74048966-1.67265775-3.4809793-1.95143404-5.29108854-.27877629-1.67087007.13938815-3.4809793.24392926-5.5347571"/>
      <path fill="rgb(255,255,255)" fill-rule="evenodd" d="M320.44668112 39.16592762c-.17423519-.10442938-.41816444-.17404896-.69694073-.24366855-.31362333.13923917-.69694073.20885876-1.11510516.20885876-.48785851 0-.90602295-.10442938-1.25449331-.27847834-2.09082218.17404896-4.46042065.76581544-4.9831262 1.42720151-.06969407.06961959 0 .17404896.10454111.4873371.7666348.31328814 1.35903442.69619586 2.0211281.73100566 3.0665392.24366855 6.27246655.31328813 8.15420651 3.68983806.17423518.24366855.52270555.31328813.83632887.4873371.06969408-.31328814.10454111-.55695669.10454111-.87024483.13938815-2.61073447-1.21964627-4.35122413-3.1710803-5.63918647z"/>
      <path fill="rgb(255,255,255)" fill-rule="evenodd" d="M317.24075377 3.10298204c1.5332696.17404897 3.55439771.13923918 4.14679733 1.0442938 1.28934034 2.12339737 1.95143403 4.73413185 2.7877629 7.17081736.10454111.38290772-.4878585 1.009484-.7666348 1.4968211-.34847036-.31328814-.7666348-.55695669-1.01056405-1.009484-1.77719885-2.85440303-3.5543977-5.70880606-5.15736138-8.70244826"/>
      <path fill="rgb(255,255,255)" fill-rule="evenodd" d="M341.38974996 29.69766392c.59239962.24366855 1.18479924.69619586 1.11510516.73100565-1.70750478 3.23731075-3.48470363 6.33538233-5.33159656 9.5378833-.06969407.06961958-1.08025812-.31328814-1.08025812-.38290773.24392925-1.60125048.1045411-3.4809793.8711759-4.83856123 1.11510517-1.87972883 2.75291588-3.37654993 4.42557362-5.04742"/>
      <path fill="rgb(255,255,255)" fill-rule="evenodd" d="M331.31895646 58.83346068c-1.35903442.45252731-2.71806884.73100566-4.07710326 1.009484-.59239961.06961959-1.28934034.31328814-1.77719885.06961959-1.2544933-.62657628-2.43929254-1.4968211-3.62409178-2.22782676 1.18479924 0 2.36959847.0696196 3.5543977.0696196h1.18479924c.52270555-.0696196 1.11510517-.13923918 1.67265775-.17404897-.41816444-.4873371-.7666348-1.0442938-1.25449331-1.5664407-.4878585-.4873371-1.08025813-.9398644-1.60296367-1.4272015.24392925-.17404897.59239962-.5569567.7666348-.4873371.8711759.13923916 2.0211281.17404896 2.61352772.80062523 1.01056406 1.009484 1.70750478 2.43668551 2.54383366 3.93350661"/>
      <path fill="rgb(255,255,255)" fill-rule="evenodd" d="M337.24295263 79.51047774c.7666348.4873371 1.28934035 1.009484 1.70750479 1.5664407.4878585.55695668.83632887 1.25315254 1.2544933 1.87972881-.8711759-.06961958-1.84689292.0696196-2.61352772-.31328813-.87117591-.45252731-2.05597515-1.11391338-2.36959847-1.91453862-.7666348-2.19301696-2.43929255-2.85440303-4.07710326-3.72464785-.66209369-.31328814-1.08025812-1.25315255-1.60296367-1.91453862.7666348.13923917 1.67265775 0 2.23021033.38290772 1.81204589 1.14872317 3.4498566 2.64554427 5.4709847 4.037936"/>
      <path fill="rgb(255,255,255)" fill-rule="evenodd" d="M348.63793352 64.12454923c.17423518 2.74997364-.6620937 4.83856123-2.61352773 6.40500191-.34847036.24366855-.69694072.45252731-1.08025812.62657628-.17423518-.38290773-.52270555-.80062524-.6620937-1.25315255-.34847036-1.74048965 2.64837477-6.5442411 4.42557362-7.20562716.06969407.41771752.06969407.80062524-.06969407 1.42720152"/>
      <path fill="rgb(255,255,255)" fill-rule="evenodd" d="M317.24075377 25.20720062c.10454111.73100565.10454111 1.35758193.06969408 1.9841582-1.95143404-.24366855-3.90286808-.38290772-5.85430211-.73100565-.2787763 0-.83632887-.80062524-.7666348-1.0442938.17423518-.4525273.7666348-.9398644 1.11510516-.9398644 1.77719886.03480979 3.55439771.34809792 5.43613767.73100565"/>
      <path fill="rgb(255,255,255)" fill-rule="evenodd" d="M329.5417576 20.99521566c-.8711759.38290772-1.5332696.80062524-2.12566921 1.18353296.24392925-.62657627.41816443-1.32277213.7666348-1.91453861.8711759-1.35758193 1.77719885-2.74997365 2.71806883-4.037936.34847036-.55695668.8711759-.9398644 1.35903442-1.35758192-.06969408.62657627.06969407 1.35758193-.17423518 1.87972882-.62724666 1.42720152-1.46357553 2.78478344-2.54383366 4.24679475"/>
      <path fill="rgb(255,255,255)" fill-rule="evenodd" d="M316.54381305 11.00480506c.41816443-.4873371.7666348-.69619586 1.18479923-.87024482.59239962 1.9841582 1.25449331 3.9683164 1.70750478 6.02209419.10454111.24366855-.34847036.69619586-.52270554 1.0442938-.24392926-.38290773-.52270555-.69619587-.69694073-1.0442938-.59239962-1.60125048-1.1499522-3.20250096-1.67265774-5.15184937"/>
      <path fill="rgb(255,255,255)" fill-rule="evenodd" d="M340.6579622 97.43752116c-1.60296368-.0696196-2.9619981-.24366856-4.39072658-.4873371-.2787763-.0696196-.59239962-.31328814-.83632888-.5569567 0-.06961958.2787763-.69619586.34847037-.62657627 1.74235182.24366855 3.90286807-.93986441 4.87858509 1.67087007"/>
      <path fill="rgb(255,255,255)" fill-rule="evenodd" d="M342.5745492 97.54195053c0 .17404897-.2787763.45252731-.59239962.62657628-.10454111 0-.2787763-.31328814-.48785851-.45252731.24392925-.0348098.52270554-.10442938 1.08025813-.17404897"/>
      <path fill="rgb(255,255,255)" fill-rule="evenodd" d="M331.31895646 59.14674882c.17423518-.06961958.34847036.06961959.52270554.17404897-.17423518-.06961959-.34847036-.06961959-.52270554-.17404897"/>
    </g>
  </g>
</svg>
