<svg xmlns="http://www.w3.org/2000/svg" width="155" height="299" viewBox="0 0 155 299">
  <g>
    <ellipse cx="124.5" cy="222.5" fill="rgb(22,22,26)" rx="12.5" ry="12.5"/>
    <ellipse cx="58" cy="265" fill="rgb(22,22,26)" rx="34" ry="34"/>
    <g opacity=".3" transform="matrix(-1 0 0 1 155.00004578 0)">
      <path fill="rgb(255,255,255)" fill-rule="evenodd" d="M151.66888428 100.36010742c-5.01152039-14.96142578-10.9711609-29.38110351-23.83856201-40.28051758-9.54898072-7.98852539-19.84291077-11.17041015-30.54318238-14.35205078-2.97981262-1.015625-4.40200805-1.7602539-5.01150512-4.94213867-1.76080323-9.6130371-3.927948-19.29394531-5.8242035-29.04248047-.47406005-2.16625976-.33862304-4.53588867-1.28674316-6.36352539-.2055664-.4020996-.39817047-.81713867-.58978271-1.22998047-1.26023102-2.71582031-2.47772217-5.3395996-7.0629425-3.57666015-2.34560395.92895507-4.98042298.75952148-7.65875245.5871582-1.42015076-.09155274-2.85253906-.18359375-4.26052857-.11328125-1.08357238.1352539-2.03169631 1.42163086-2.97982406 2.16625976.94812775 1.015625 1.89625168 2.30175782 3.11526108 2.77563477 1.89625549.7446289 4.87608337.40625 5.82420349 1.62475586.63391113.98120117 1.30793762 1.95141602 1.98272705 2.92285156 3.7949829 5.46362305 7.6133728 10.9609375 4.4509735 18.60522461-4.26655578 10.76416016-8.32995605 21.79882813-13.47691344 32.08911133-2.2348671 4.67114258-6.4337082 9.88378906-10.83571625 11.44091797-4.63793945 1.75-9.03928375 4.23999023-13.44487 6.73242187l-.00045013.00024414c-8.7176609 4.93188477-17.45197678 9.87304688-28.0690136 9.10864258-1.41513633-.0883789-2.85914802.19848633-4.29432678.48364258-.76265716.15161133-1.52281952.30249023-2.27482605.39648438.47406197-2.43701172.94812584-4.80639649 1.55763436-7.24365235.13544654-.7446289.47406387-1.48925781.81267929-2.30175781 8.32995605-19.1586914 23.16134262-32.08886719 39.14402008-43.1237793 7.65272522-5.21289062 16.79536056-7.58227539 25.32848358-11.4411621.51889038-.24804688 1.28579712.08984374 2.04785156.42578124 1.52552033.67211914 3.03155518 1.33569336 2.48960877-2.72729492-.66098023-4.14477539-3.50782013-3.54614258-5.7496338-3.07470703-.28485107.05981445-.55993652.11767578-.81951904.16357422-4.87606811.7446289-10.1584854 1.62475586-14.56049347 3.79101562C45.81750107 28.80297852 36.13307952 34.625 26.448658 40.24389648c-2.16714287 1.28637696-4.40200806 2.77563477-5.95964241 4.80664063C12.22678375 55.94995117 5.58990669 68.00024414 1.52651215 81.53979492-2.06281662 93.31933594.44294357 96.63671875 11.549551 94.7409668c1.4221859-.27075196 2.97982216-.40600586 4.19883919 0 5.25330734 2.10058593 10.05540466.7055664 15.02400207-.73779297.47587204-.1381836.95326996-.27709961 1.43273926-.41308594 15.5086174-4.46801758 27.69879913-14.21655273 37.38321686-27.0114746.23126984-.3046875.46131897-.60888673.6905365-.91210938 5.67754364-7.50854493 10.84707641-14.34521485 21.52267456-11.61206055 2.7766571.7446289 5.62103271 1.42163086 8.46540832 1.28613281 7.7881775-.27075195 14.28959656 2.77563477 20.31697083 7.71777344 5.62101745 4.80639648 14.28959656 6.49902344 14.56048584 16.72143555.13545227 1.1508789 1.42218017 2.3017578 2.0316925 3.52026367 3.45388794 7.7175293 7.99134827 15.23217773 9.8875885 23.42358398 1.33668518 5.71875.94267273 11.90185547.55091858 18.04956055-.10446167 1.63891602-.20874023 3.27563477-.2800293 4.90014648-.74494933 15.7060547-6.70458984 29.65185547-17.20169067 40.28051758-6.70458984 6.83764649-15.7795105 11.17016602-24.10946655 15.70605469-2.50575256 1.42163086-7.855896 1.48925781-9.0749054-.13549805-2.28251647-3.00756836-4.0881958-2.16210937-5.93479156-1.29760742-.56394196.26416016-1.13167572.5300293-1.71793366.68847656-1.50650787.35546875-3.0711975.9050293-4.64213562 1.45654297-3.51368713 1.23388672-7.05863952 2.47875977-10.05380249 1.58984375-6.84004211-1.89550781-13.34147644-5.55126953-20.0460739-8.8684082-.60950852.203125-1.21901704.3383789-1.963974.3383789-2.30258942 0-3.86022187-1.1508789-4.80834962-2.7080078-1.82852554-.203125-3.52160644-.40600587-4.94379425-1.28613282-3.1152687-1.89550781-5.75647354-4.80664063-8.32995605-7.44677734-3.45388413-3.45263672-7.99133873-6.49902344-9.81986618-10.62866211-2.16714287-5.07739258-2.2348652-11.30566407-2.64120484-17.12768555-.47406196-7.9885254-2.50576019-11.91503906-7.17866134-12.52416992 1.21901703 4.19726562 2.37031173 8.4621582 3.45388412 12.79492187.16721535.3762207.02477837.85546875-.12467193 1.3581543-.09266282.31176758-.18802453.63256836-.21394349.94360352-.81267929-.40625-2.16714477-.47387696-2.37031364-1.15087891-.25712204-.56542969-.53159714-1.12988281-.80668068-1.6953125-1.89854622-3.9038086-3.82604218-7.8671875-.2768898-12.65673828.05666733-1.0480957-.10004425-2.10791016-.25191116-3.13476563-.21113396-1.42797851-.41285897-2.79248047-.01898194-3.9736328.40175247-1.204834.90078545-2.38842774 1.39790917-3.56738282 1.84926796-4.38574219 3.6721363-8.70898438.36289405-13.83105469-.81267929-1.42163086-.74495506-3.65576172-1.08357238-5.55126953-1.4221878 1.28637695-3.25071335 2.30175781-4.26656342 3.92651367-3.25071335 4.19726563-4.40200806 33.8491211-1.76080322 38.65576172 2.03169632 3.65576172 3.927948 7.44677734 5.95964432 11.30566406 2.03169632 3.92651367 3.58933067 8.4621582 6.43370628 11.64404297 6.29825783 7.10839844 13.27375221 13.67504883 20.046072 20.30957031 3.11526871 2.91088868 6.23053742 6.22827149 9.88759232 7.85302735 8.93946457 4.06176758 17.81121063 6.09277343 28.30831146 4.53564453 12.1901703-1.89550781 24.71896363-1.28613281 36.16418457-6.9729004 5.4855957-2.77563476 11.30978394-5.07739257 16.25357056-8.73291015 8.26223755-5.95751953 11.30978394-15.70605469 15.37316895-24.84545898 7.78817749-17.5336914 10.36166381-36.1508789 4.33428955-54.56469727zM80.3563385 46.33666992c.27089691-4.06176758.74495697-8.1237793 1.21902466-12.05029297 0-.47387695.33860779-1.01538086.6095047-1.4892578.81267547.40625 2.23487091.88012694 2.37030792 1.42163085.33862305 4.33276367.33862305 8.7331543.60951233 13.20117188-2.84437561 2.23413085-5.01152039 3.65576171-4.8083496-1.08325196zM54.28290176 185.3215332c.47406388.60913086.67723465 1.48925782 1.28673935 1.76000977 1.4221878.47387695 2.97982407.609375 4.4697342 1.015625-.40634156-.88012695-.74495698-1.69262695-1.6930809-3.18188477-1.42218781.13549805-2.7766533.27075196-4.06339265.40625z"/>
      <path fill="rgb(255,255,255)" fill-rule="evenodd" d="M45.41115916 48.90923846c7.31410773-5.55126236 14.28959936-11.0348264 21.46826066-16.24759717 1.6930805-1.2862681 3.92794674-1.42166475 5.95964334-2.16634629-1.08357152 1.76015636-1.76080372 3.92650265-3.25071455 5.3481674-9.07491145 8.12379859-18.28526933 16.11220053-27.427904 24.10060247-.3386161.27079329-2.23486625-.60928489-2.3703127-1.15087146-.60950897-4.67118419 1.6930805-7.5145137 5.62102725-9.88395495"/>
      <path fill="rgb(255,255,255)" fill-rule="evenodd" d="M111.0349591 159.18980425c.74495541.88007818 1.7608037 2.91102783 1.69308049 3.18182111-1.76080372 1.42166476-3.7925003 3.04642447-5.8241969 3.31721776-1.42218761.27079328-3.1152681-1.62475972-4.67290216-2.5048379 1.21901795-.74468154 2.37031269-1.76015636 3.72477708-2.30174293 1.55763406-.67698322 3.18299133-.9477765 5.07924148-1.69245804"/>
      <path fill="rgb(255,255,255)" fill-rule="evenodd" d="M129.32022843 108.88995135c-.3386161 2.16634629-.27089288 3.92650265-.94812508 5.21277076-.3386161.74468153-1.89625015.88007818-2.97982167 1.01547482-.27089288 0-.74495542-1.48936308-.81267864-2.43713958-.13544644-1.2862681-.3386161-2.5048379 0-3.65570936.47406254-1.76015636 1.28674118-3.52031272 2.0316966-5.21277076.81267863 1.35396643 1.76080371 2.91102783 2.70892879 5.07737412"/>
      <path fill="rgb(255,255,255)" fill-rule="evenodd" d="M75.81888483 175.64049638c1.28674117 1.76015636 2.23486625 3.18182112 3.31843776 4.53578755-1.42218761-.13539665-2.97982167-.13539665-4.26656284-.47388825-1.42218762-.40618993-2.97982167-.74468154-3.92794675-1.76015636-.81267863-.88007818-.94812507-2.5048379-1.28674117-3.791106 1.08357151.27079328 2.16714303.40618992 3.25071455.60928488.94812507.13539665 1.7608037.40618993 2.91209845.88007818"/>
      <path fill="rgb(255,255,255)" fill-rule="evenodd" d="M50.21950776 148.42577113c.81267864.88007818 1.76080371 1.48936307 1.89625015 2.16634628.3386161 2.43713958.47406254 4.80658083.60950898 7.24372041-.94812508-.27079329-2.50575913-.27079329-2.776652-.88007818-.94812509-2.8433295-4.19883963-5.88975397.27089287-8.52998851"/>
      <path fill="rgb(255,255,255)" fill-rule="evenodd" d="M72.83906316 85.66942706c-1.28674118 1.01547482-2.23486626 1.62475972-3.25071455 2.43713957.13544644-2.30174293-.3386161-4.94197747.47406254-6.70213383.60950897-1.15087146 3.25071454-1.01547482 5.01151826-1.48936307-.13544644 1.2862681 0 2.5048379-.3386161 3.791106-.20316966.54158658-1.0158483 1.08317315-1.89625015 1.96325133"/>
      <path fill="rgb(255,255,255)" fill-rule="evenodd" d="M37.6907121 117.96152643c1.55763406-1.62475971 2.77665202-3.04642447 4.0633932-4.19729593.33861609-.40618993 1.7608037-.40618993 1.89625014 0 .47406254.6092849.74495542 1.895553.3386161 2.43713957-1.55763405 2.30174294-3.25071454 4.33269258-5.01151826 6.49903887-.47406254-1.5570614-1.08357151-2.91102783-1.28674117-4.7388825"/>
      <path fill="rgb(255,255,255)" fill-rule="evenodd" d="M66.87941982 130.01182767c-.81267864.40618993-1.6930805.6092849-2.0316966.27079328-1.69308049-1.2862681-3.25071454-2.77563118-4.74062538-4.19729593 1.42218762-.27079329 2.97982167-1.01547483 4.26656285-.6092849 1.76080371.47388825 3.4538842 1.895553 5.1469647 2.91102783-.6772322.47388825-1.55763406.88007818-2.64120557 1.62475972"/>
      <path fill="rgb(255,255,255)" fill-rule="evenodd" d="M125.73089778 135.49539171c.27089288-1.42166475.3386161-2.30174293.81267864-2.77563118 1.21901795-1.01547482 2.64120557-1.895553 4.06339318-2.77563118-.47406254 2.30174293-.81267863 4.46808922-1.55763405 6.56673718 0 .2707933-2.09941981-.27079328-3.31843777-1.01547482"/>
      <path fill="rgb(255,255,255)" fill-rule="evenodd" d="M77.64741176 156.68496635c-1.21901796.6092849-2.16714303.88007818-3.11526811 1.15087147.13544644-2.03094965.13544644-3.92650265.60950898-5.82205565.13544644-.6092849 1.55763405-.74468154 2.23486625-1.15087147.47406254 1.15087147 1.08357152 2.30174293 1.28674117 3.4526144.20316966.54158657-.40633931 1.35396643-1.0158483 2.36944125"/>
      <path fill="rgb(255,255,255)" fill-rule="evenodd" d="M115.03062906 84.78934888c-1.6930805-.27079329-3.31843777-.88007818-4.74062538-2.03094965-.27089288-.27079328.47406254-2.03094964.81267863-3.04642447 1.28674118 1.42166476 2.57348235 2.91102783 3.92794675 5.07737412"/>
      <path fill="rgb(255,255,255)" fill-rule="evenodd" d="M90.78571639 74.22841072c-1.28674118-.40618993-2.23486625-1.01547482-3.25071455-1.76015636.47406254-.47388825 1.08357152-1.15087147 1.55763406-1.62475972.74495541 1.01547482 1.28674117 2.03094965 1.69308049 3.38491608"/>
    </g>
  </g>
</svg>
