<svg xmlns="http://www.w3.org/2000/svg" width="254.19" height="359" viewBox="0 0 254.19 359">
  <g>
    <g transform="rotate(-20.000007 127.09503935 141.5185207)">
      <path fill="rgb(92,92,95)" fill-rule="evenodd" d="M199.18231962 90.37002217c1.65283203 3.14318848 3.30566406 6.28631592 4.80114746 9.50805664 4.1715088 8.95800781 9.83850098 17.52313232 11.57006836 27.10974121 4.1715088 19.95910645 6.37536621 39.9967041 1.41674805 60.89874268-2.99084473 12.96551513-8.18566895 24.59521484-13.14416504 36.22491455-1.6529541 3.8503418-5.2734375 6.91491699-8.57922363 9.27227783-7.16247559 4.95050049-14.40356446 10.8439331-22.4317627 13.35845947-11.09790039 3.4574585-22.98278808 4.95043946-34.7890625 1.72869873-1.1019287-.23571777-2.20373535-.3928833-3.30566406-.55004883.47216797 1.02154541 1.02319336 1.8859253 1.41674805 2.90740967.86572265 2.51452637 1.65283203 5.02905274 2.51855468 7.5435791-2.36120605-.15710449-4.7224121-.47143554-7.08361816-.47143554-4.3289795-.23571778-8.73669434 0-12.90820313-.55004883-3.6204834-.39294434-7.24108886-1.72875977-10.70422363-2.9074707-.78710937-.07855225-1.73168945-1.02148438-2.04650879-1.72869873-1.65283203-5.02905274-4.56506347-6.05059815-10.23205566-5.57910157-3.93530274.31433106-8.73657227.15716553-11.80615234-1.88592529-10.15332032-6.914917-19.9918213-14.4584961-29.43688965-22.39501953-2.75476075-2.3572998-3.93530274-6.914917-5.98181153-10.45098877-11.491333-18.85894775-16.05639648-39.91809082-13.30163574-61.68444824 2.67614746-20.430542 8.18566895-40.62536621 22.35314942-56.18395996 7.94946289-8.72229004 15.2692871-18.54467774 27.07556152-21.21636963 2.19006348-.51373291 4.3873291-1.0911255 6.59228515-1.67041016 12.29626465-3.23083496 24.82739258-6.52337646 37.64160157.8060913.78710937.39288331 1.25939941.39288331 1.6529541.55004884-.39355469-.31433106-.86584473-.55004883-1.25939942-.86437989 1.02319336-7.7793579-3.14831542-13.67272949-7.47717285-18.70178222-5.4309082-6.28631592-11.41271972-11.94403076-17.63061523-17.20880127-1.88903809-1.65020752-5.35217285-1.33587647-7.87084961-2.51452637-1.81030273-.78582764-2.9909668-2.51452637-4.40771484-3.85040283 1.25939941-.55004883 2.5974121-1.41442871 4.01416015-1.88586426 2.75476074-.70721435 5.66699219-1.0215454 8.18566895-2.20025635 6.7689209-2.5930786 12.51452636-.70715332 15.8203125 6.20776368 5.50952148 11.6296997 11.491333 22.94506836 16.05639648 34.88903808 2.67614746 7.22930908 3.06970215 15.48010254 4.3289795 23.10223389.31481933 1.25726318.39355468 2.75030517.70837402 4.0861206.944458-.94293212 1.81030273-2.27880859 2.91223144-2.82885742 2.59729004-1.57159424 5.2734375-3.37890625 8.02819824-4.40039062 4.72253418-1.72875977 9.4449463-2.9074707 14.16748047-4.55761719 1.10192871-.31433106 1.96765137-1.65014648 2.91223145-2.51452637-.43640137-.19366455-.94750977-.46929931-1.45739746-.74432373-1.14538574-.61773681-2.28442383-1.23205566-2.5567627-.90582275-3.8491211 3.84283447-7.91027832 2.85430908-11.92297363 1.87750244-1.97802734-.48144531-3.94299316-.9597168-5.8651123-.85595703-1.28723145.11175537-2.5744629-1.04797363-3.86169434-2.20770264-.52307129-.47125244-1.0460205-.94244385-1.5690918-1.32836914.59143067-.18786621 1.25634766-.53155517 1.93188477-.88085937 1.30273437-.67340088 2.64489746-1.3671875 3.57763672-1.00500489 3.90686035 1.42694092 7.98034668 1.54864502 12.09631347 1.67163086 6.08325196.18170166 12.25939942.36621094 18.12756348 4.77178955 3.69934082 2.82885743 8.89404297 4.79333496 14.6397705 5.10766602.15734864.07855224.236084.07855224.31481934.15716553q.35412598.58935546.94445801 1.1786499c1.81030274 1.65020752 3.77807617 2.90740967 5.8244629 3.77178955zm-11.80615234 138.1418457c14.63964844-13.98706054 19.51953125-33.08172607 20.77893066-53.27648926.17504883-3.00567626-.13256836-6.0736084-.43823242-9.1206665-.38146973-3.80377197-.75964355-7.57519531-.19152832-11.152771 2.5974121-17.36590576-.86572266-33.2388916-8.8939209-48.24743652-7.8708496-14.6942749-16.05651855-19.25189209-30.93225097-15.16577148-7.08374024 1.88592529-13.85266114 5.57910156-20.77905274 8.64367675-7.79199219 3.53607178-10.3894043 2.20025635-12.19970703-6.20770263-3.46313477-18.23034668-7.39855957-16.89447022-22.35302734-20.27337647-1.06286622-.20214843-2.19091797.01812744-3.34204102.24298096-.63903809.12475586-1.28527832.25097656-1.93139648.30706787 1.49536132 1.1786499 2.91210937 2.98596192 4.7224121 3.53607178 9.13012696 3.0645752 15.8203125 8.722229 18.73254395 18.5446167.35644531 1.01696777.35046387 2.19836426.34448242 3.37402344-.0032959.64117431-.00646972 1.28063964.04907227 1.89074707-1.4954834-1.02148438-3.14831543-1.88586426-4.40771485-3.22174073-.83740234-.87237549-1.61157226-1.82879638-2.38305664-2.78179931-2.56396484-3.16748047-5.09729004-6.29699707-9.81665039-6.1762085-1.40478515.04675293-2.8236084.1352539-4.2479248.22406006-3.3638916.20977783-6.75927735.42150879-10.0769043.090271-5.82446289-.47149659-11.64880371-1.96447754-17.63061523-2.82885743-5.8244629-.86431884-9.68115235 2.35736084-12.75073242 7.07214356-4.87988282 7.5435791-9.7598877 14.8513794-15.26940918 23.10217285-2.20385743 3.61468506-4.87988282 7.1506958-6.37536622 11.15826416-7.47729492 20.27337646-8.73657226 41.01818848-2.36120605 61.76306152 9.0513916 29.5456543 30.93225098 42.82556153 57.85046387 48.09033203 3.64257812.74487305 7.4810791.19482422 11.32421875-.35583496 3.04919433-.43695068 6.10144043-.87432861 9.06115722-.66571045 8.34301758.55004883 16.52868653 2.35736084 24.71435547 4.24328614 15.34802246 3.69317627 28.02001953-2.35736084 38.80310059-12.80841065zM105.75592802 81.96212422c-5.50964355-1.33587646-11.09790039-2.35736084-16.60742187-3.37890625-.57336426-.10412598-1.25024415.37768555-1.9169922.85229492-.3395996.24176026-.6763916.48150635-.99523925.64068604.944458.31433105 1.96765137.3928833 2.91223145.86437988 3.14831543 1.17871094 6.3753662 2.35736084 10.23205566 4.40045166 1.81030273 0 3.6204834 0 5.43078613-.15716553.70837403 0 1.3380127-.55004883 2.20385742-.86437988-.39355468-.86437988-.70837402-2.20019531-1.25927734-2.35736084zm12.35705566 173.34521484c.59533692-.26416015.69030762.0267334.7989502.3595581.02062988.0631714.04174805.12780763.06689453.19049073-.3149414-.31433105-.55102539-.3928833-.86584473-.55004883z"/>
      <path fill="rgb(92,92,95)" fill-rule="evenodd" d="M187.4548202 172.17075634c-1.10191325-11.62968764-1.96770223-22.63074352-3.22703165-33.39606249-.55095662-4.5575803-2.04641031-8.95800264-2.75478311-13.51558294-.31483236-1.3358425.7083728-3.06457985.94449707-4.55758029 1.25932942.86436868 3.06961546 1.49300044 3.4631559 2.671685 2.51865885 7.38642323 5.43085815 14.53710955 6.92631183 22.08069073 4.3289449 23.41653323 1.10191325 46.36159263-7.083728 68.28512542-1.25932942 3.37889573-6.92631183 8.09363397-7.63468463 7.62216014-4.32894489-3.22173779-.31483235-6.60063352.86578898-10.29384514 3.93540445-12.41547735 9.05143023-24.67379676 8.5004736-38.89659043"/>
    </g>
    <ellipse cx="64.5" cy="288.5" fill="rgb(22,22,26)" rx="12.5" ry="12.5"/>
    <ellipse cx="124" cy="325" fill="rgb(22,22,26)" rx="34" ry="34"/>
  </g>
</svg>
