<svg xmlns="http://www.w3.org/2000/svg" width="293.531" height="420.379" viewBox="0 0 293.531 420.379">
  <g>
    <path fill="rgb(22,22,26)" fill-rule="evenodd" d="M0 20.4309082c96.19610596-35.82592773 193.8347168-36.17828369 212.3725586 95.93005371 14.08270263 100.35888672-38.10577393 130.1994629-109.93041993 127.70349121V50.4309082c0-16.55743408-13.44250488-30-30-30H0z"/>
    <g transform="scale(-1 1) rotate(11.000004 0 -1441.75589775)">
      <path fill="rgb(92,92,95)" fill-rule="evenodd" d="M95.76342773 290.22766113c2.68920899-3.02697754 5.21038819-5.38134765 6.97521973-8.32434082 4.2859497-6.89501953 7.22735596-15.1352539 12.60583496-20.93713379 2.18499756-2.52246093 9.4963379-2.18615722 13.446167-.5045166 8.40393066 3.78381348 16.13549804 9.24938965 24.11920165 14.21032715 1.3446045.92492676 3.10943604 1.59765625 4.03381348 2.85888672 1.00848389 1.59765625 1.51275635 3.44750976 2.1850586 5.38146973-1.76483155-.33642579-3.5296631-.33642579-5.0423584-.75683594-9.66448975-3.4473877-19.41296387-5.9699707-27.22857666-14.04211426-4.70617676-4.87695312-8.15179444.1682129-10.6729126 4.28833008-5.29449463 8.4925537-8.40393067 18.7508545-17.48010254 24.55273437-1.00848389.58862305-2.10095215 3.27929688-1.59674072 4.37243653 2.35308838 6.89489746 3.86578369 14.79882812 8.15179443 19.84399414 10.50482178 12.6126709 21.76605225 24.38452148 35.9685669 32.7088623 11.5133667 6.89501953 21.76611328 16.22839356 33.02728271 23.62780762 8.74005127 5.633667 18.2364502 10.25830078 27.73284912 14.46264648 1.61047363.74804688 3.77209473.11755371 5.9467163-.51672363 1.00213624-.2923584 2.00683595-.58544922 2.96136476-.7446289.67303466-.15539551 1.37005615-.38256836 2.07617187-.61279297 1.58654785-.51708985 3.21911621-1.04931641 4.73101807-.8166504 18.23638916 2.52258301 24.62335205-10.67871093 28.74127197-23.12329101 5.21038818-16.06018066 3.44555664-32.62487793 1.17651367-48.93725586-1.3446045-10.25830078-1.51269531-20.7689209-4.2859497-30.35461426-5.0423584-17.32141113-7.22735596-36.07226562-21.34588624-48.93725586-2.35308838-2.0180664-4.62213134-4.87695312-7.22729492-5.80187988l-.0647583-.02197266c-4.68151855-1.58935546-9.0357666-3.06750488-14.3059082 1.61962891-6.55505371 5.633667-15.29510498 8.49255371-23.27874756 12.1081543-1.15533447.44958496-2.89910889-.42529297-4.44543457-1.20117188-.47772217-.2397461-.93658447-.4699707-1.35327149-.64868164-6.38696289-2.85888672-7.73156738-1.84985351-7.73156738 4.87695313-.16809082 9.58569336 0 19.33947754-.16809082 29.09326172 0 2.0180664-.75634765 4.28833007-1.3446045 6.4744873-.16809081.75683594-.58825683 1.59765625-1.00848388 2.35449219-.16809082-.75683594-.42016601-1.42944336-.42016601-2.1862793-1.00848389-13.36950684-1.93292237-26.9071045-3.10943604-40.27661133-.58831787-6.89489746 2.7732544-8.66064453 8.31982422-9.41748047 8.57196045-1.26123047 17.05987549-3.11108398 25.46374512-5.04504394 1.1765747-.33630371 2.1850586-2.0180664 3.44561767-3.02697754-1.34460449-.5045166-2.5211792-.92504883-3.86578369-1.26135254-5.79870605-1.59753418-11.42926025-3.78381348-17.31201172-4.54052734-5.21038818-.75683594-8.40386963-2.52258301-8.57196045-8.32434082 0-.92504883-.42016601-1.84997559-.75634765-2.85888672-.58825684.75671386-1.3446045 1.42944336-2.10095215 2.18615722-1.93292236 2.52258301-3.52966309 5.38146973-5.79870606 7.56762696-.92443847.92492676-2.68920898.75671386-4.0338745 1.26123047.33618163-1.26123047.16809081-2.85888672.92443847-3.78381348 2.35308838-3.02697754 4.45410156-6.89489746 7.56347656-8.49255371 1.57647705-.8449707 3.75634766-.2935791 5.95928955.26367187 1.08477784.27453614 2.17492676.55029297 3.20098877.66125489.38116455.04626464.77191162.11315918 1.1607666.1796875 2.4404297.41784668 4.80914307.82336425 4.30175782-3.96350098-.16809082-1.59753418.58825683-3.4473877 1.5126953-4.70874023 1.17651368-1.59753418 2.94134522-2.52246094 4.45404054-3.78381348 0 .40625.01086425.80151367.0215454 1.19018555.03131104 1.14025878.06103516 2.22192382-.18963622 3.35046386-.15515137.99804688-.05310059 2.13635254.04870605 3.27172852.28417969 3.16894531.56622315 6.31384277-4.75488281 6.31384277-.42016602 0-.75634766.58862305-1.00842285.75683594.75634765.33630371 1.34460449.5045166 1.93286132.75671387 7.14331055 3.61560058 13.95043946 6.6427002 22.5223999 3.61560058 4.03387452-1.42944336 10.50488282-.75671386 13.44622803 1.84997559 8.31988526 7.56750488 16.89178467 15.55566406 22.35430909 25.30944824 6.21887207 11.01513672 8.7401123 24.38452148 13.78240966 36.4086914 9.08734131 21.08129883 8.0935669 43.31762696 7.10742188 65.3828125-.04437256.993042-.08874512 1.98583985-.13220215 2.97802735-.58825683 14.21032715-4.11791992 28.00024414-12.77392578 40.024292-8.90808105 12.27636718-34.20379639 18.07824706-47.22979736 10.67871093-25.29571534-14.29431152-47.65002442-33.04528809-72.02130127-48.93725586-14.3706665-9.24926758-26.052063-20.34851074-31.26245117-37.92224121-1.51269532-5.21313477-1.17657471-12.6126709-9.07617188-12.9489746 0-.6303711-.01843262-1.27001954-.0369873-1.9124756-.06054688-2.09985351-.12194825-4.22839355.45715332-6.15966796 3.86578369-12.2763672 8.15179443-24.72094727 12.1856079-36.99731446.42022706-1.09301758.42022706-2.52246093.75634766-3.61560058-1.17651367.16821289-2.7732544 0-3.44555664.58862304-5.63061523 6.4744873-11.42932129 12.6126709-16.30352783 19.50756836-2.94134522 3.95202637-4.11791992 9.1652832-6.21887207 13.70581055-.42022705.92504883-1.34466553 1.59765625-2.10101318 2.1862793-.33612061-.58862305-.42016602-1.26123047-.92437745-1.76574707-1.59674072-3.02709961-2.68927002-6.6427002-5.0423584-8.8289795-5.4625244-5.21325683-4.87426757-10.51049804-1.34460449-16.22827148 5.04229737-8.3244629 9.49639893-17.15332031 15.88330078-24.38464355 9.49639893-10.84692383 21.34588624-17.91003418 36.13671875-14.6307373 4.23846436.84814452 3.81292725-.28344727 2.93554688-2.61669923-.07946777-.21118164-.16259766-.43225097-.24627686-.66259765-2.77331543-8.07214356-7.5635376-15.89196778-7.73156738-23.96411133-.25323486-9.37390137 1.21014404-18.84326172 2.66607666-28.26416016.47692871-3.08605957.95300293-6.16687012 1.36773682-9.23754883.16809082-.58862304 1.1765747-1.59765625 1.76483154-1.59765625 4.70617676.58862305 9.3283081 1.09313965 14.03448486 2.0180664.42022706.16809083 1.0084839 4.37231446.42022706 4.54052735-12.47424317 6.836792-9.9998169 17.8824463-7.63311768 28.4473877.13659668.60961914.27282715 1.21765137.40576172 1.82312012.42834472 1.88208007.98876953 3.73510742 1.54681396 5.58044433 1.96008301 6.48144531 3.89074707 12.86584473-.03411865 20.06542969-.3328247.73266601 1.54888916 3.04785156 3.22357178 5.10827637.43902588.54016113.86376953 1.06274414 1.23046875 1.53442382.16809082.33630372 2.35308838-.58862304 2.68927002-1.26135253 1.59674072-5.21325684 2.94134521-10.25830079 4.62213135-15.47155762 3.52960205-11.94006348 13.36218261-12.94909668 22.94262695-14.7989502 10.84100342-2.18615722 21.59796142-5.21325683 32.43896484-7.73571777 1.08325196-.22827148 2.2824707.00793457 3.44036865.23608398.54888916.10803223 1.08850098.21435547 1.60198975.26843262-.92443848 1.09301758-1.93292236 2.01794434-2.5211792 3.27929688-3.82525635 7.38134765-10.13787842 7.82971191-16.48864746 8.28076171-3.41589355.24255372-6.84277344.48596192-9.89953613 1.80932618-3.3847046 1.39770507-7.35333252 1.45507812-11.31292725 1.5123291-2.23413086.03234863-4.46539307.0645752-6.5873413.33752441-1.76483155.33642578-3.5296631 1.42944336-4.87426759 2.6907959-.75634765.5045166-.75634765 2.01794434-1.1765747 3.11108398.92443847-.16821289 1.76483154-.16821289 2.68927002-.16821289 1.93286133-.16809082 4.0338745-.16809082 5.88269043-.3363037-1.17651367 1.8498535-2.10095215 3.95202636-3.52960205 5.54956054-1.59674073 1.76586914-3.69769288 4.28833008-5.63061524 4.28833008-6.21887207.16821289-7.98370361 5.21325683-8.15179443 9.41748047-.16802979 4.12023926 1.34466553 10.09020996 4.11791992 11.94006347 9.3283081 6.1381836 8.90814209 16.56469727 11.68139648 25.64587403.26062012.99072265-.09295654 2.14331054-.45935058 3.33752441-.2243042.7310791-.45336914 1.47753906-.54907227 2.21203613-1.1765747-1.09313964-2.68927002-2.0180664-3.27752685-3.44750976-2.18499756-5.80175781-3.8657837-11.9399414-6.05084229-17.82592774-.92437744-2.18615722-2.52111816-4.12011718-4.03381347-5.9699707-2.5211792-2.85888672-5.29449463-5.38146973-7.73156739-8.15625-5.79870605-6.89489746-21.76611328-7.90393066-29.74975586-1.59765625-1.34466552 1.09313965-2.77331543 2.85888672-4.45410156 3.11120606-16.13543701 2.85888671-19.83312988 18.5826416-27.73278808 29.93408203-1.0084839 1.42944336-.42022706 4.37243652.16809082 6.6427002.3361206 1.42944335 1.7647705 2.3543701 2.77325439 3.61572265.92443848-1.09313965 2.10095215-2.0180664 2.5211792-3.27941895 4.87426758-11.9399414 11.68139648-21.69384765 23.36279297-27.0751953 5.04229736-2.35437013 9.49639892-5.96997071 14.20257568-8.99707032.75634766-.5045166 1.7647705-.33630371 2.68920899-.58862305 0 .31152344.0205078.65893555.04125976 1.01049805.06329346 1.07226562.12890625 2.18371582-.37738037 2.43701172-11.8494873 7.90393066-9.3283081 22.87097168-14.20257568 33.97021484-2.5211792 5.633667-2.35308838 12.6126709-3.44561768 18.91906738 0 .16809082.33618164.58862305.33618164.58862305.58825684 0 .92443848-.16821289 1.68078613-.75683594zm22.60644532-85.3458252c.75634765.5045166 1.5126953.92492677 2.18499756 1.59753419.10949707-.2409668.24176025-.4934082.37457275-.74682617.37695312-.71911622.75817871-1.44641114.63391113-1.94384766-1.59674072-3.78381348-3.44561767-7.56762695-5.0423584-11.35144043.42016602 3.95202637.67230225 7.73583984 1.84887696 12.44458008zm82.10595703 19.50756837c-.25213623.3363037-.42022705.58862304-.58825684.92492675-.33618164-.92492675.08398438-.92492675.58825684-.92492675z"/>
      <path fill="rgb(92,92,95)" fill-rule="evenodd" d="M243.08350452 225.6507013c-1.59673809-1.59760912-2.77328194-2.85887948-4.03386465-4.12014983 1.76481579-.75676222 3.69770926-2.6907101 5.46252504-2.35437134 8.74004006.9249316 19.0768182 22.53469706 14.79083702 30.69091203-.42019423 1.09310098-2.18501001 1.42943974-3.44559271 2.01803258-.75634962-1.7657785-2.10097117-3.6156417-2.10097117-5.3814202.42019423-8.99706188-2.3530877-16.14426057-10.67293353-20.85300324"/>
      <path fill="rgb(92,92,95)" fill-rule="evenodd" d="M250.47892303 210.6836264c2.94135963-.16816939 6.05079696-.58859284 8.31984582.58859283 7.14330197 4.12014983 13.02602124 19.08722474 11.26120546 27.74794786-.16807769 1.09310098-1.00846616 2.01803257-1.76481578 3.02704886-.1680777.16816938-1.76481578-.58859284-1.93289347-1.09310098-1.76481578-12.10819543-7.7315739-21.77793484-15.88334203-30.27048858"/>
      <path fill="rgb(92,92,95)" fill-rule="evenodd" d="M144.58997616 325.6273983c-2.77328194-6.64269055-5.29444734-12.78087296-7.7315739-19.08722474-.16807769-.58859284 1.00846617-2.35437134 1.5967381-2.35437134 4.45405887-.33633876 13.95044855 11.68777198 13.61429316 15.8920065-.33615539 5.12916613-2.6892431 6.81085994-7.47945736 5.54958958"/>
      <path fill="rgb(92,92,95)" fill-rule="evenodd" d="M202.4087027 279.96941136c-.9244273-3.44747231-1.51269924-6.64269055-1.76481578-9.7538241-.16807769-1.59760912 0-3.27930293 0-4.87691205 1.51269925.50450815 3.44559272.50450815 4.03386465 1.59760912 2.77328194 4.87691205 5.63060273 9.92199348 7.5634962 15.30341367.58827193 1.42943974-1.59673809 4.12014984-2.5211654 6.13818241-1.59673809-1.42943974-3.44559272-2.6907101-4.70617542-4.28831922-1.17654385-.9249316-1.59673808-2.35437133-2.60520424-4.12014983"/>
      <path fill="rgb(92,92,95)" fill-rule="evenodd" d="M174.42376675 314.86455792c4.11790349 2.01803257 8.31984582 4.12014983 11.513322 7.23128338 1.17654385 1.09310097 1.34462155 4.87691205.42019423 6.81085993-.92442731 2.01803257-3.27751502 3.61564169-5.0423308 5.38142019-1.17654385-1.8498632-2.77328194-3.44747231-3.52963156-5.54958957-1.4286604-4.3724039-2.5211654-8.99706189-3.36155387-13.87397393"/>
      <path fill="rgb(92,92,95)" fill-rule="evenodd" d="M129.96721683 329.83163282c3.44559272 5.21325081 6.38695235 9.7538241 9.1602343 14.46256677.92442731 1.42943974 1.00846616 3.11113355 1.59673808 4.70874267-1.93289347.33633876-4.62213657 1.59760912-5.46252503.75676221-2.5211654-2.85887948-5.2104085-6.1381824-6.21887466-9.7538241-.84038847-3.02704885.33615539-6.9790293.92442731-10.17424755"/>
      <path fill="rgb(92,92,95)" fill-rule="evenodd" d="M193.50058495 309.90356118c.92442732 1.59760912 1.93289348 2.6907101 1.76481578 3.61564169-.33615538 3.11113355-.33615538 8.15621498-1.93289347 8.99706188-3.44559272 1.8498632-6.55503004 0-6.38695235-5.21325081.1680777-.33633876-.75634962-.58859283-.92442731-1.09310098-.58827193-3.27930293-1.00846617-6.81085993-1.5967381-10.09016286 3.02539849 1.09310098 5.79868043 2.35437134 9.07619545 3.78381108"/>
    </g>
  </g>
</svg>
