<svg xmlns="http://www.w3.org/2000/svg" width="213.343" height="386.572" viewBox="0 0 213.343 386.572">
  <g transform="rotate(-12.000004 106.67154365 193.28618764)">
    <path fill="rgb(255,255,255)" fill-opacity=".3" fill-rule="evenodd" d="M74.0151253 138.5357646c-.15032958-.87176513-.30014037-1.74041748-.40922546-2.59802246-.13352966.12408448-.26538086.25030518-.39515686.37457276-1.28608703 1.23114013-2.36837768 2.26721191-2.87036133-.87609864-.25119018-2.05621338-.70335388-4.21276855-.85406494-6.26898193-.85404968-9.32818604-1.65788269-18.75671387-2.66265869-28.0848999-.15071106-2.35717774-.9545288-4.56384278-1.70811462-6.82067871-.25119019-.6519165-1.25596619-.90270996-1.95932007-1.35406494-.15071106.60180664-.50238037 1.30395507-.50238037 1.95593261.25119018 2.60784912.50238037 5.21575928.85406494 7.72332764 1.205719 7.82366943 2.56217956 15.59716797 3.76789856 23.4208374 1.10525513 6.61999512 2.11003113 13.29022217 2.96409607 19.91021729.15071106 1.05316162-1.004776 3.30999756-1.10525513 3.30999756-2.66334534-.79760743-4.29824829.7713623-5.92121887 2.32879638-1.13227844 1.08660889-2.25875855 2.16766358-3.72462463 2.43560791-1.10525513.15045166-1.85884095 1.85565186-2.81338501 2.75836182.3815155 0 .79042053.04919433 1.20318603.09887695.83740234.10076904 1.69075012.20343018 2.36376953-.09887695 7.4855957-2.75836182 14.82044983-3.1595459 21.55245972 1.70513916 1.70809936 1.15350342 3.41622925 3.51062012 3.66741943 5.46655273.75360108 6.01818848.6531067 12.08654785 1.00479126 18.10473633.05279541.77307129.14874268 1.5522461.24465943 2.33117676.17788696 1.444458.35565185 2.88781738.25772094 4.2888794-.25119018 3.41027831-1.25598144 6.82061767-1.25598144 10.23089599.03866577 3.93493652.18878174 7.86981201.3388977 11.80474853.24020386 6.29602051.48040772 12.59210206.26397705 18.88812256-.25119018 6.46954346-2.009552 12.83880616-3.215271 19.30834961-.75360107 3.66107178-2.31100463 7.27197266-2.46170043 11.03338623-.4019165 10.48168946-4.87316895 19.65948487-8.0884552 29.23840332-1.0550232 2.95898438-3.86839295 5.21575928-4.62197876 8.27502442-2.76313782 10.03033447-6.43055725 18.55615234-17.83477783 20.01055908-3.76791382.45135498-5.2750702-.35107422-5.37554932-4.21276855-.10047913-1.35412598-.35166931-2.75836182-.50239563-4.21276856-1.5573883-12.03637695-3.86837769-24.0727539-4.37077332-36.15930176-.26533508-6.026062.49848938-12.07391357 1.26507569-18.14367676.3945465-3.12408447.7898407-6.25396728 1.0459137-9.38964843.70333862-8.22485352 1.10525512-16.49987793 1.70811462-24.82507324.25120544-4.01208497.35166931-8.12451172.95454407-12.08654786 1.20573425-8.52575683 2.56217956-17.05151367 4.27029419-25.47705078 1.30621337-6.2689209 3.31576538-12.33728027 4.87316894-18.45581054.4019165-2.00604249.35166931-4.06225586.50238037-6.01818848-1.25596619 1.35412598-2.9640808 2.50756836-3.81814575 4.21276855-4.42100525 8.87683106-5.07411194 18.75671387-6.6315155 28.43597412-1.30621338 7.62304688-1.80860901 15.34643555-2.6626587 23.06976319-1.4066925 13.0895996-3.3659973 26.17919922-4.0693512 39.36907959-.0424652.76293945-.08555602 1.5258789-.12864684 2.28881836-.72180176 12.77801513-1.44360352 25.55603027.83200073 38.3340454.25119019 1.35406495.15071106 2.85864259.50238037 4.21270753.95454407 5.11547851 2.21051026 10.23095703 2.81336975 15.34643554.50239563 5.21575928 1.85884095 7.27197266 6.63153076 7.9741211 1.6076355.25073242 3.21528626.45135498 4.77268982.90270996.77619934.25830078 1.58641053.7133789 2.37808228 1.15808105 1.36039734.76416016 2.66607666 1.49761963 3.65057373 1.14886475 1.80859375-.6519165 2.91384888-3.51055908 4.019104-5.66711426 3.41624451-6.3692627 7.43534851-12.53790283 9.99751282-19.3585205 3.86839295-10.23095704 9.54537964-19.00750733 16.9807129-26.6305542 6.02868652-6.16864014 12.40899657-11.9862671 18.7390747-18.10473633.95455932-.902771 1.80859375-2.10638428 2.66265869-3.1595459-1.55737305.25073242-3.16503906.25073242-4.62194824.8024292-1.10525513.35107422-1.95932007 1.4543457-2.96411133 2.15649414-7.68652344 5.81762695-14.77020264 12.2871704-18.94000244 21.61535644-.35168457.70214844-1.55743408 1.05322266-2.4114685 1.50457764-.03509522-.35040283-.10699464-.70697021-.17929078-1.06536865-.13458252-.66741944-.2704773-1.34124756-.1723938-1.99389649 1.50717163-6.3692627 3.21530152-12.63818359 4.6722107-19.00744629 2.31097412-10.0303955 3.41622924-20.36157226 3.51672363-30.74304199 0-7.97406006.70333862-15.89807129.70333862-23.87219238.05957031-3.65795899-.16351318-7.33361816-.38638306-11.00598145-.15298461-2.5205078-.30584716-5.0394287-.3671875-7.55010986-.03707885-1.84967041.02154541-3.70617676.08004761-5.55944824.1001587-3.17163086.1999817-6.33374024-.18054199-9.43591309-.9545288-6.67016601-1.45690918-13.94213867-10.49990845-14.99530029-3.11480713-.40124512-5.52627563-2.90881348-4.92340088-7.37231445.36601258-2.22888184-.04130554-4.59088135-.44483947-6.93078614zM58.38354878 317.4868144c-.45214844 1.35406495-.80383301 2.75836182-1.20573425 4.11242677-1.0550232-1.00305176-1.6578827-2.25683594-1.2559662-2.95892334.2511902-.60180664 1.6076355-.8024292 2.46170045-1.15350342z"/>
    <path fill="rgb(255,255,255)" fill-opacity=".3" fill-rule="evenodd" d="M74.66092304 105.79662886c-.35166932 10.03027344-.6028595 20.11077881-.6028595 30.14111328.4642334-.0493164.94013977-.05206299 1.41163635-.05480957 1.92668152-.01123047 3.78015137-.02203369 4.4663086-3.20501709 2.009552-11.4847412 4.82290649-22.76885986 6.63150024-34.25360107 2.36123657-15.0956421 4.6722107-30.24145508 5.8779602-45.38726807.61914063-7.80310058.13546753-15.66567993-.34902954-23.54193115-.14453125-2.34939575-.28912353-4.69998169-.40454101-7.05059815-.20095825-3.20968627-1.35647583-6.51971435-2.31100464-9.67926025-.25119019-.90274048-1.205719-1.45440674-1.80859375-2.15652466-.07199097.23950196-.15542603.48187256-.23937988.72576905-.26760865.77737426-.54046631 1.5699768-.46395874 2.33349609.65310669 5.9178772 2.05978393 11.83578491 2.21051025 17.85397339.4019165 15.64733887-.10049438 31.3447876-2.4114685 46.8416748-1.70812989 11.03338623-2.86361695 22.06671143-4.42102051 33.10009766-.35165406 2.75836182-1.205719 5.46655273-1.95932007 8.07440185-.35165405 1.05322266-1.205719 1.85565186-1.80859375 2.85864258-.02166748-.49768066-.1181488-.98596191-.21279907-1.46496582-.12471009-.63122558-.24623108-1.24621582-.18910218-1.84503174.85404969-12.13671875 1.70811463-24.1229248 2.41145325-36.15936279-.9545288-.7020874-2.210495-1.25378418-2.31097412-2.05621338-.75358582-4.86468506-1.45692444-9.57897949-1.70812988-14.44366455-.75357056-12.38748169-5.6267395-23.67160034-8.18891907-35.50738525-.25119019-.90274048-.85406494-1.80548096-1.25596619-2.70819092-.60287475 1.2036438-1.30621338 2.3571167-1.70812988 3.51062012-.15071106.7522583-.15071106 1.5546875 0 2.25680542 2.21051025 7.82366943 5.17460632 15.54702758 6.63153076 23.52114868 1.80859375 9.72943115 2.81336975 19.55914306 3.41622925 29.43902588.27182007 4.27355957-.03082276 8.52423095-.33294678 12.76745605-.14459228 2.03100586-.28907776 4.06030274-.37039184 6.08959961zm1.90907287 25.47698975c-.10047912-1.00299073-.15071106-1.95587158-.25119018-2.95892334.25119018.25073242.6028595 1.50457763.85406494 2.70819092 0 .0501709-.45214844.15045166-.60287476.25073242z"/>
    <path fill="rgb(255,255,255)" fill-opacity=".3" fill-rule="evenodd" d="M126.45713476 255.24857438c1.3564479 2.60788682 1.95931364 5.91789702 3.91862727 7.72335712 4.0191049 3.76137522 3.1650451 7.72335712 1.8085972 12.03640071-4.521493 13.74155748-9.39465769 26.98159826-17.030957 39.26875731-4.92340349 7.87381213-9.79656818 15.89807927-15.32283741 23.22022303-6.22961259 8.17472215-13.21280735 15.6974726-20.69839022 22.618403-5.47603042 5.01516696-12.00707587 8.77654219-18.4376437 12.5379174-5.62674686 3.3100102-9.44489651-1.70515676-13.66495666-4.41334692-5.8779409-3.66107188-7.08367238-7.62305378-4.0693437-13.74155747.25119405-.55166837.70334335-1.0030334 1.00477622-1.5045501.25119406.70212338.75358217 1.35409509.8540598 2.05621846.35167167 2.75834183-.4019105 6.62002039 1.10525384 8.0744188 3.1650451 2.95894852 7.33486643 4.86471196 11.2534937 6.72032374.95453742.45136502 2.81337344-.55166837 4.0191049-1.45439842 3.41623917-2.50758348 6.7320007-5.21577364 10.04776225-7.87381213.60286573-.45136503 1.20573146-.90273005 1.70811958-1.45439842-.60286574-.45136503-1.20573147-.90273005-1.85883602-1.35409508-1.95931364-1.1534884-3.91862727-2.25682513-5.77746329-3.51061687-.60286573-.45136503-.85405979-1.45439842-1.25597028-2.1565218.95453742-.35106168 2.05979126-1.05318506 2.662657-.80242671 2.11003007 1.05318506 4.521493 2.05621845 6.02865734 3.86167856 2.46170175 2.9589485 4.27029895 2.3069768 6.33009021 0 5.72722448-6.62002039 11.35397134-13.34034412 17.13143462-19.8099095 7.18415-7.87381213 13.21280735-16.4998993 17.73430036-26.37977822 4.0191049-8.77654218 8.18892623-17.6533877 12.00707588-26.53023323 1.3564479-3.15955518 2.41146293-6.46956538 3.31576154-9.77957557 1.00477622-3.9619819-1.70811958-9.32821055-5.12435875-11.63518735-2.81337342-1.90576345-5.3755528-4.31304359-7.93773217-6.56986872-.70334335-.55166837-.95453741-1.60485343-1.3564479-2.40728014.8540598-.20060668 1.8085972-.55166837 2.46170175-.25075835 2.91385105 1.05318506 5.92817972 2.3069768 9.14346364 3.51061687"/>
    <path fill="rgb(255,255,255)" fill-opacity=".3" fill-rule="evenodd" d="M134.99773266 199.63037277c.75358217 2.1565218 1.25597028 4.3130436 1.85883602 6.46956539.15071643.70212337.40191049 1.45439841.70334335 2.25682513.95453742-.90273005 2.41146294-1.70515677 2.662657-2.75834183 1.25597028-7.07138542 3.41623916-14.24307417 3.1650451-21.36461126-.25119405-6.62002039 2.05979126-13.34034412-.35167167-20.16097118-.70334336-1.90576345 1.25597028-4.66410528 1.60764195-7.17168876.4019105-2.70819016.4019105-5.56683533.8540598-8.32517716.15071643-1.50455008.9545374-2.9589485 1.55740314-4.4634986.60286574 1.05318507 1.20573147 2.25682514 1.8085972 3.3100102.4019105.90273006.50238812 1.95591512 1.10525385 2.70819016 1.20573147 1.45439842 3.5669556 2.50758348 3.81814965 4.01213357.50238812 3.76137522.15071644 7.72335712.15071644 11.58503568 0 .25075835-.50238811.55166837-.75358217.80242672-.35167168-.55166837-.75358217-1.0030334-.95453741-1.5045501-.60286574-3.05925184-1.00477623-6.11850368-1.8085972-9.0774522-.15071644-.8024267-1.20573148-1.35409507-1.80859721-1.9559151-.25119406.70212337-.40191049 1.50455008-.70334336 2.25682513-1.70811958 5.81759367-.35167168 11.48473234.70334336 17.30232601.35167168 1.45439842-1.25597028 3.3100102-1.45692553 5.01516697-1.20573146 10.93306397-3.5669556 21.41476292-6.58128426 31.99676521-2.31098532 8.07441881-4.0191049 15.94823094-7.5860605 23.67158806-2.7128958 5.71729034-3.1650451 12.5379174-4.67220944 18.90717945-.25119405.80242671-.85405979 1.45439842-1.45692552 2.1565218-2.2105077-4.3130436-1.45692553-8.32517717.10047762-12.63822075 1.70811958-4.66410528 2.05979126-9.32821055.95453741-14.6944392-1.25597028-6.1185037-.40191049-12.63822074-.40191049-19.10778613 0-.35106168.70334336-1.05318506.8540598-1.00303339.5023881.10030334 1.00477622.45136503 1.3564479.90273006 1.55740314 2.40728014 3.06456748 4.86471195 4.62197063 7.27199209.25119405.45136503.40191049.90273005.70334335 1.35409508-.5023881 0-1.10525384.10030334-1.45692552-.10030334-2.662657-1.90576345-3.21528392.90273005-3.41623916 2.1565218-.35167168 3.15955518-.15071644 6.36926204 0 9.5789689 0 .70212337.75358217 1.35409507 1.20573147 2.05621845.40191049-.55166837 1.00477622-1.05318507 1.25597028-1.70515677 1.45692552-5.01516696 3.21528391-10.03033393 4.0693437-15.14580423.35167168-2.3069768-1.25597028-5.01516696-2.05979125-7.4224471-.70334336-2.1565218-1.60764196-4.21274025-1.95931364-6.2689587-.50238811-3.41031354 1.55740315 0 2.31098531-.90273006"/>
    <path fill="rgb(255,255,255)" fill-opacity=".3" fill-rule="evenodd" d="M155.64588407 172.69892619c.95453741-2.85864517 1.55740315-5.56683533 2.81337343-7.72335712 1.25597028-2.3069768 2.96408986-4.66410528 5.02388112-6.16865536 3.06456748-2.40728015 6.58128426-4.21274025 9.99752343-6.1185037.9545374-.45136502 2.21050769-.20060668 3.41623916-.25075835-.50238811.90273006-.8540598 2.25682514-1.60764196 2.70819016-7.93773217 4.86471196-7.5860605 15.3464109-13.4640014 21.51506627-.15071644.20060668 0 1.1534884.35167168 1.45439842.35167167.30091002 1.00477622.25075835 1.45692552.10030334 1.45692552-.55166837 2.91385105-1.45439842 4.37077657-1.8054601.95453742-.25075836 2.05979126.35106168 3.06456749.55166836-.75358217.70212337-1.3564479 1.50455009-2.2105077 2.05621845-1.858836 1.25379174-3.91862727 2.3069768-5.77746328 3.51061688-7.73677693 5.01516696-10.14823987 13.89201248-14.06686714 21.6153696-1.45692553 2.70819016-2.2105077 5.56683533-3.41623916 8.32517716-.35167168.90273005-.95453742 1.50455009-1.45692553 2.3069768-.15071643-1.0030334-.60286573-2.1565218-.25119405-2.9589485 1.95931363-5.56683534 3.81814965-11.233974 6.3300902-16.49989931 2.31098532-4.91486362 5.52626924-9.22790721 8.0382098-14.09261916 3.1650451-6.2689587 6.02865735-12.83882743 9.04298602-19.3083928.15071643-.55166837-.10047762-1.1534884-.10047762-1.80546011-.75358217.25075834-1.85883602.20060667-2.2105077.70212337-2.05979126 3.15955519-3.91862727 6.36926204-5.77746329 9.5789689-.70334335 1.1534884-1.00477622 2.60788682-1.85883601 3.66107188-.50238811.70212337-1.55740315 1.1534884-2.31098532 1.8054601.05023882-.90273005.35167168-1.8054601.60286574-3.15955518"/>
    <path fill="rgb(255,255,255)" fill-opacity=".3" fill-rule="evenodd" d="M101.89035608 108.1537274c-1.85883601 3.66107187-4.0191049 6.72032372-5.72722448 10.03033392-4.67220944 9.42851388-9.19370245 19.00748278-13.96638951 28.43599667-.50238811 1.1534884-1.85883602 1.90576344-2.81337343 2.75834183-.15071643-1.25379174-.40191049-2.50758348-.50238811-3.76137522-.15071644-2.50758348.85405979-4.01213357 2.46170175-6.1185037 2.46170175-3.15955518 3.06456748-7.82366046 4.37077657-11.93609737 1.3564479-4.56380193 2.56217937-9.32821055 3.76791084-13.99231582.50238811-2.05621845 1.55740315-4.1124369 1.45692553-6.1185037-.35167168-6.01820035 5.97841853-6.9209304 7.58606049-11.28412566.10047762-.25075835 1.25597028 0 1.95931364.10030334-.15071644.6519717-.25119406 1.35409508-.60286574 1.90576345-1.25597028 1.95591511-2.96408986 3.76137522-3.81814965 5.81759367-2.96408986 7.4224471-5.72722448 14.89504588-8.44012028 22.31749298-.15071644.6519717 0 1.45439842 0 2.1565218.50238811-.55166837 1.20573147-.90273006 1.55740315-1.45439842 3.91862727-7.2719921 7.73677692-14.5439842 11.6554042-21.81597629.70334335-1.1534884 1.8085972-2.05621845 2.7128958-3.05925184-.25119406 1.50455009-.50238811 2.9589485-.75358217 4.4634986-.10047762.45136502-.60286573.70212337-.9042986 1.55470175"/>
    <path fill="rgb(255,255,255)" fill-opacity=".3" fill-rule="evenodd" d="M116.40937252 56.09629433c3.91862727-1.95591512 5.27507517-.35106169 5.02388112 3.20970685-.15071644 2.85864517-.25119406 5.81759368-1.25597028 8.32517716-2.7128958 6.62002039-5.62674686 13.18988911-9.04298602 19.35854447-1.45692552 2.50758348-4.27029895 4.11243691-6.48080664 6.01820036-.10047763.10030334-1.00477623-.70212338-.95453742-.90273006 1.00477623-2.60788682 2.2105077-5.31607698 3.41623917-7.87381213.85405979-1.90576344 1.60764195-3.76137522 2.46170174-5.66713866.50238812-1.05318506 1.00477623-2.25682514 1.8085972-3.20970686 2.11003008-2.70819016 4.37077658-5.21577364 6.58128428-7.87381213.40191048-.6519717.60286573-1.45439842.85405979-2.1565218-.8540598-.10030333-1.60764196-.35106168-2.46170175-.20060667-.75358217.10030334-1.3564479.6519717-2.11003007.90273005-1.10525385.35106169-2.2105077.55166837-3.21528392.90273006.70334336-1.05318507 1.20573147-2.25682514 2.05979126-3.15955519.75358217-.80242671 1.8085972-1.25379174 2.662657-1.95591512.70334335-.6519717 1.3564479-1.45439841 1.95931363-2.25682513-1.10525385-.20060668-2.31098532-.55166836-3.41623916-.6519717-.4019105-.10030334-.95453742.55166836-1.45692553.70212337-.95453741.25075835-1.95931363.45136503-2.91385105.70212338.50238811-.80242672 1.00477623-1.5045501 1.60764196-2.25682514.70334336-.80242671 1.55740315-1.45439842 2.05979126-2.25682513.70334336-1.0030334 1.10525385-2.25682513 1.55740315-3.3100102.25119405 1.30394342.50238811 2.45743182 1.25597028 3.61092022"/>
    <path fill="rgb(255,255,255)" fill-opacity=".3" fill-rule="evenodd" d="M80.84029419 83.02774091c0-6.01820035.40191048-12.0364007.60286573-17.95429772.10047762-5.91789702 0-11.7354907-.15071643-17.60323604 0-.45136502-.95453742-.80242671-1.10525385-1.25379174-1.70811958-5.1154703-3.51671678-10.13063726-5.02388112-15.24610756-.25119406-.70212337.35167168-1.60485343.60286573-2.50758348.4019105.45136503 1.10525385.70212337 1.45692553 1.1534884.95453741 1.50455009 2.11003007 3.05925185 2.46170175 4.76440861.85405979 3.9619819 1.70811958 7.72335712 5.02388112 10.33124394 1.45692552 1.25379175 1.85883601 2.3069768-.75358217 2.50758349-.60286573.10030334-1.70811958 1.8054601-1.55740315 2.40728014 2.96408986 10.13063726 1.45692553 20.26127452-.10047762 30.29160845-.15071643 1.10333673-.85405979 2.10637012-1.45692552 3.10940351"/>
    <path fill="rgb(255,255,255)" fill-opacity=".3" fill-rule="evenodd" d="M138.81588232 251.88841252c1.20573146-2.1565218 4.67220944-2.85864517 2.56217937-6.2689587-.15071644-.3510617 2.31098531-2.70819016 3.81814965-3.86167857 1.8085972-1.35409508 4.0191049-2.25682513 5.72722448-3.66107188 1.00477622-.90273005 4.27029895-2.25682513.40191048-4.01213357-.25119405-.10030334-.35167167-1.25379174-.10047762-1.50455009.95453742-.80242671 2.11003007-1.50455008 3.1650451-2.3069768-.10047761.6519717-.40191048 1.35409508-.25119405 1.90576345 2.11003007 5.71729033-1.25597028 8.62608717-5.02388112 11.83579403-3.51671678 2.85864516-6.02865734 6.82062706-9.19370245 10.2309406-1.45692552 1.60485343-3.21528392 3.15955518-5.02388112 4.41334693-.70334336.45136502-1.95931364.10030333-2.91385105.10030333.35167168-1.1534884.35167168-2.70819016 1.10525385-3.31001019 1.65788077-1.50455009 3.6171944-2.3069768 5.72722448-3.56076854"/>
    <path fill="rgb(255,255,255)" fill-opacity=".3" fill-rule="evenodd" d="M135.39964315 199.63037277c-1.45692552-1.05318506-2.81337342-2.05621845-3.81814965-3.41031353-1.8085972-2.25682513-3.31576154-4.76440861-4.9234035-7.17168875.8540598-.20060668 2.05979126-1.0030334 2.41146294-.65197171 1.60764196 1.50455009 2.96408986 3.41031353 4.42101539 5.21577364.60286573.6519717 1.10525384 1.35409508 1.70811958 1.95591512.35167168-1.05318507 1.10525384-2.3069768.95453741-3.41031354-.70334336-6.56986872-1.60764196-13.08958577-2.41146294-19.65945449-.10047762-.70212337.50238812-1.45439842.70334336-2.1565218.50238811.25075836 1.10525385.55166837 1.55740315.90273006 1.00477622 1.0030334 2.11003007 2.05621846 2.96408986 3.20970686.25119405.35106168.15071643 1.70515676.10047762 1.70515676-4.67220944.70212338-1.70811958 3.51061688-1.25597028 5.36622865 1.45692553 6.31911037 1.45692553 12.43761407-2.41146294 18.10475273"/>
    <path fill="rgb(255,255,255)" fill-opacity=".3" fill-rule="evenodd" d="M169.10988547 199.4297661c-1.00477622 1.00303339-1.70811958 2.15652179-2.7128958 2.70819016-3.31576154 1.50455008-5.87794091 4.1124369-6.33009022 7.82366046-.5023881 3.9619819-6.48080664 5.71729033-3.5669556 10.78260896-2.11003006.70212338-4.27029894 1.5045501-6.3300902 2.25682514.10047762-.45136503 0-.90273006.25119405-1.25379174.8540598-1.25379174 1.95931364-2.40728015 2.662657-3.76137523 1.8085972-3.86167856 5.27507517-6.97108207 4.37077657-12.0364007-.15071643-1.05318507.75358217-3.3100102 1.10525385-3.3100102 4.77268706.10030334 6.48080664-4.4634986 9.79656818-6.56986872.15071644-.10030334.50238812-.20060668.75358217-.25075835.8540598-.10030334 1.70811958-.20060667 2.56217937-.35106168-.35167168.80242671-.75358217 1.70515676-1.20573147 2.50758348-.35167167.40121335-.75358216.75227504-1.3564479 1.45439842"/>
    <path fill="rgb(255,255,255)" fill-opacity=".3" fill-rule="evenodd" d="M57.83091865 67.58102667c0-1.0030334.15071644-1.8054601.4019105-2.50758348.60286573.35106169 1.45692552.45136503 1.858836 1.0030334 1.85883602 2.25682513 2.46170176 6.01820035 6.48080665 5.46653198.35167168 0 1.00477623.70212338 1.10525385 1.25379174.35167168 3.76137522.70334336 7.62305378.95453741 11.384429.10047763.90273006.15071644 1.90576345-.10047762 2.70819016-.15071643.6519717-.85405979 1.0030334-1.3564479 1.5045501-.4019105-.55166837-1.20573147-1.0030334-1.3564479-1.60485344-.35167168-1.45439841-.15071644-2.9589485-.70334336-4.21274024-1.3564479-3.15955519-2.96408986-6.16865537-4.42101539-9.22790721-.9042986-1.90576345-1.75835839-3.71122355-2.86361224-5.767442"/>
    <path fill="rgb(255,255,255)" fill-opacity=".3" fill-rule="evenodd" d="M64.66339698 59.95797289c-.75358217.55166836-1.25597028.90273005-1.8085972 1.25379174-1.95931364-3.20970686-4.0191049-6.46956538-5.87794092-9.87987892-.40191049-.8024267.10047763-2.15652179.10047763-3.20970685.85405979.45136503 1.70811958.80242671 2.41146293 1.45439842 2.81337343 2.85864517 5.62674686 5.71729033 8.18892623 8.77654218.85405979 1.0030334 1.10525385 2.60788682 1.60764196 3.86167856-1.25597028-.6519717-2.56217937-1.25379174-3.81814965-1.90576344-.30143287-.15045501-.4521493-.45136503-.80382098-.3510617"/>
    <path fill="rgb(255,255,255)" fill-opacity=".3" fill-rule="evenodd" d="M56.97685886 332.6326006c-1.70811958 4.4634986-2.91385105 8.87684552-4.62197063 12.98928243-.70334335 1.5045501-2.41146294 2.50758348-3.66743322 3.76137522.15071644-1.70515676 0-3.6109202.60286574-5.1154703 1.85883601-4.91486362 4.0191049-9.87987891 6.22961259-14.64428753.50238811-1.05318506 1.8085972-1.70515676 2.662657-2.50758348-.15071644 1.35409508-.35167169 2.70819016-.60286574 4.01213357-.10047762.5015167-.25119406.85257839-.60286574 1.5045501"/>
    <path fill="rgb(255,255,255)" fill-opacity=".3" fill-rule="evenodd" d="M95.10811657 84.83320102c.60286573-6.01820035 1.10525384-11.48473234 1.70811958-17.05156767.10047762-.6519717.40191049-1.1534884.70334336-1.8054601.35167167.6519717 1.00477622 1.25379173.9545374 1.90576344-.35167167 9.67927223-.85405978 19.35854447-4.521493 28.43599667-.35167168.80242672-1.10525385 1.35409508-1.70811958 1.95591512-.15071643-1.0030334-.70334336-1.95591512-.4019105-2.75834183.8540598-3.51061688 2.1602689-6.82062707 3.26552274-10.68230563"/>
    <path fill="rgb(255,255,255)" fill-opacity=".3" fill-rule="evenodd" d="M67.82844208 265.98103168c2.41146294-.25075835 4.42101539-.70212338 6.38032903-.80242671.70334335-.10030334 1.45692552.35106168 2.11003007.6519717-.4019105.90273005-.70334336 2.50758348-1.3564479 2.75834183-2.96408987 1.1534884-5.97841854 2.05621845-9.04298602 2.70819016-.95453742.20060668-2.11003007-.80242672-3.21528392-1.25379174.75358217-.80242672 1.55740315-1.70515677 2.41146294-2.40728014.65310454-.6519717 1.50716433-1.10333673 2.7128958-1.6550051"/>
    <path fill="rgb(255,255,255)" fill-opacity=".3" fill-rule="evenodd" d="M78.02692076 220.24270899c2.31098531.55166836 4.0693437 1.05318506 5.97841853 1.60485343-1.85883601 1.00303339-3.76791084 2.25682513-5.77746329 2.75834182-2.11003007.65197171-4.521493.80242672-6.83247832.90273006-.60286574.10030334-1.25597028-.55166837-1.85883602-.80242672.50238812-.70212337.8540598-1.60485342 1.45692553-1.95591511 2.2105077-.90273005 4.42101539-1.70515677 7.03343357-2.50758348"/>
    <path fill="rgb(255,255,255)" fill-opacity=".3" fill-rule="evenodd" d="M88.5268323 300.7862904c2.05979126 2.15652179 4.0191049 4.01213356 5.72722448 6.11850369.60286573.6519717.70334335 1.60485343.95453741 2.50758348-1.20573147-.10030334-2.81337343.45136503-3.66743322-.25075835-1.95931364-1.50455009-3.66743322-3.61092021-5.3755528-5.56683533-.5023881-.6519717-.5023881-1.8054601-.75358217-2.70819016.9042986-.10030334 1.90907483-.30091001 3.1148063-.10030334"/>
    <path fill="rgb(255,255,255)" fill-opacity=".3" fill-rule="evenodd" d="M113.24432741 280.17395418c-.50238811-.6519717-1.00477622-.90273005-1.10525384-1.25379174-.15071644-1.60485343-.35167168-3.20970685-.50238812-4.76440861 1.25597028.6519717 2.7128958 1.1534884 3.76791084 2.05621845 1.8085972 1.50455009 3.51671679 3.15955519 4.77268707 5.1154703.70334336 1.0030334.25119405 2.70819016.35167168 4.11243691-.95453742-.55166836-2.05979126-1.0030334-2.91385105-1.70515677-1.45692553-1.05318506-2.81337343-2.20667346-4.37077658-3.56076854"/>
    <path fill="rgb(255,255,255)" fill-opacity=".3" fill-rule="evenodd" d="M46.77838019 284.18608775c3.41623916-.90273005 6.63152308-1.60485343 9.99752343-1.95591511.75358217-.10030334 1.70811958 1.35409508 2.46170175 2.05621845-.75358217.55166837-1.45692553 1.25379174-2.2105077 1.35409508-2.81337342.45136503-5.72722447.80242671-8.5405979.90273005-.60286573 0-1.3062091-1.45439842-1.70811958-2.35712847"/>
    <path fill="rgb(255,255,255)" fill-opacity=".3" fill-rule="evenodd" d="M55.01754523 241.75777525c1.45692552.90273006 2.41146293 1.70515677 3.41623916 2.60788682-1.20573147.6519717-2.41146294 1.60485343-3.66743322 1.80546011-2.2105077.25075835-4.521493.20060668-6.7320007.10030334-.50238811-.10030334-1.00477623-.6519717-1.55740315-.90273005.35167168-.6519717.70334336-1.5045501 1.20573147-1.70515677 2.2105077-.80242671 4.62197063-1.25379174 7.33486644-1.90576345"/>
    <path fill="rgb(255,255,255)" fill-opacity=".3" fill-rule="evenodd" d="M50.74724627 203.19114132c3.21528392-.6519717 6.48080665-.90273006 9.69609057-.80242672.70334335 0 1.3564479 1.5045501 2.05979126 2.3069768-.8540598.3510617-1.70811959 1.25379175-2.46170175 1.05318507-3.1650451-.5015167-6.2296126-1.35409508-9.29418008-2.55773515"/>
    <path fill="rgb(255,255,255)" fill-opacity=".3" fill-rule="evenodd" d="M96.81623615 329.6736521c-2.46170175-1.1534884-4.52149301-2.3069768-6.48080665-3.61092022-1.10525384-.70212337-1.95931363-1.8054601-2.91385105-2.60788682 1.00477623-.35106169 2.2105077-1.1534884 3.1650451-.90273005 2.31098532.70212337 4.67220945 1.60485343 6.73200071 2.9589485.60286573.40121336 0 2.70819017-.50238811 4.16258858"/>
    <path fill="rgb(255,255,255)" fill-opacity=".3" fill-rule="evenodd" d="M59.13712774 304.3972106c-3.21528391.80242672-6.22961258 1.45439843-9.19370245 1.90576345-.5023881.10030334-1.10525384-1.00303339-1.70811958-1.60485343.50238812-.45136502 1.10525385-1.35409508 1.60764196-1.35409508 3.1148063.05015167 6.7320007-4.51365026 9.29418007 1.05318507"/>
    <path fill="rgb(255,255,255)" fill-opacity=".3" fill-rule="evenodd" d="M77.87620432 185.98911864c-2.96408986-.10030334-5.62674685-.35106169-8.33964266-.70212338-.25119405-.10030334-.75358216-.70212337-.75358216-1.05318506-.10047763-.55166836 0-1.25379174.35167167-1.60485343 2.11003008-1.90576344 8.18892623-.90273005 9.99752343 1.60485343 0 .15045501-.75358216.95288172-1.25597028 1.75530844"/>
    <path fill="rgb(255,255,255)" fill-opacity=".3" fill-rule="evenodd" d="M67.22557635 326.3636419c1.70811958.70212337 3.5669556 1.50455009 4.67220944 2.9589485.50238811.65197171-.50238811 2.60788683-.75358217 3.9619819-1.70811958-1.1534884-3.51671678-2.25682513-4.9234035-3.66107188-.35167167-.40121335.50238812-2.00606678 1.00477623-3.25985852"/>
    <path fill="rgb(255,255,255)" fill-opacity=".3" fill-rule="evenodd" d="M61.85002355 48.02187552v-6.72032373c.10047762-.45136503.40191049-.90273005.70334336-1.35409508.40191049.25075835 1.00477622.45136503 1.3564479.80242672 1.70811958 1.95591511 1.45692552 7.37229543-.40191049 9.32821054-.05023881.05015167-1.05501504-1.05318506-1.65788077-2.05621845"/>
    <path fill="rgb(255,255,255)" fill-opacity=".3" fill-rule="evenodd" d="M153.93776449 225.60893764c1.10525384.25075834 1.85883601.45136502 2.56217937.70212337-.15071643.35106169-.25119406.90273005-.50238811 1.05318506-3.1650451 1.35409508-6.33009021 2.60788682-9.54537413 3.86167856-.50238811.20060668-1.20573147.20060668-1.8085972.25075835.25119405-.55166836.35167167-1.50455009.70334335-1.8054601 2.7128958-1.35409508 5.42579161-2.70819016 8.59083672-4.06228524"/>
    <path fill="rgb(255,255,255)" fill-opacity=".3" fill-rule="evenodd" d="M97.4693407 285.0888178c0 1.25379174-.25119406 2.25682514-.4019105 3.3100102-.75358216-.55166837-1.55740314-1.05318506-2.31098531-1.70515677-.50238811-.45136503-1.20573147-1.0030334-1.45692553-1.60485343-.5023881-1.25379174-.75358216-2.60788682-1.10525384-3.9619819.95453741.55166837 2.05979126.90273006 2.91385105 1.5045501.85405979.60182003 1.45692552 1.45439841 2.36122412 2.4574318"/>
    <path fill="rgb(255,255,255)" fill-opacity=".3" fill-rule="evenodd" d="M112.39026762 299.88356034c-2.11003007-1.35409508-4.0191049-2.25682513-5.72722448-3.41031353-.5023881-.35106169-.60286573-1.25379174-.85405979-1.90576345.70334336-.25075835 1.70811958-1.0030334 2.11003007-.70212337 2.51194056 1.25379174 5.17459756 2.4574318 4.4712542 6.01820035"/>
    <path fill="rgb(255,255,255)" fill-opacity=".3" fill-rule="evenodd" d="M105.30659524 65.97617324c-.70334336 1.8054601-1.3564479 3.15955519-2.11003007 4.4634986-.10047762-1.70515677-.40191049-3.51061687-.35167168-5.1154703.10047763-2.50758348.4019105-4.86471195.75358217-7.2719921.10047762-.35106168.35167168-.70212337.50238811-1.00303339.10047763.35106169.25119406.80242671.35167168 1.1534884.25119406 2.50758348.60286574 4.91486362.8540598 7.7735088"/>
    <path fill="rgb(255,255,255)" fill-opacity=".3" fill-rule="evenodd" d="M146.25122637 236.3915466c-1.85883601.25075835-3.21528391.65197171-4.67220944.80242672-.10047762 0-.50238811-.90273005-.40191049-1.05318506 1.20573147-1.1534884 2.31098532-2.60788682 3.66743322-3.15955519 1.00477622-.45136503 2.46170175.55166837 3.76791084.90273005-.65310455.80242672-1.3564479 1.70515677-2.36122413 2.50758348"/>
    <path fill="rgb(255,255,255)" fill-opacity=".3" fill-rule="evenodd" d="M54.16348544 360.16586722c-.95453742-.55166836-1.8085972-1.0030334-1.8085972-1.50455009-.15071644-1.70515676 0-3.41031353.10047761-5.1154703.60286574.25075835 1.45692553.45136503 1.70811959.90273006.75358216 1.75530843 3.66743321 3.56076854 0 5.71729033"/>
    <path fill="rgb(255,255,255)" fill-opacity=".3" fill-rule="evenodd" d="M55.26873928 179.26879491c-.25119405-2.50758348-.25119405-5.21577364-.15071643-7.87381213 0-.10030334 1.25597028-.35106169 1.25597028-.25075835.50238811 1.1534884 1.25597028 2.40728014 1.10525385 3.51061688-.30143287 1.45439841-1.3564479 2.90879683-2.2105077 4.6139536"/>
    <path fill="rgb(255,255,255)" fill-opacity=".3" fill-rule="evenodd" d="M96.81623615 60.6099446c0-.70212338-.10047762-1.05318507 0-1.35409509.85405979-1.60485342 1.70811958-3.3100102 2.46170175-4.91486362.10047762 1.60485343.10047762 3.15955519.10047762 4.76440862 0 .70212337 0 1.45439841-.15071643 2.15652179-.25119406.70212337-.75358217 1.35409508-1.20573147 1.95591511-.4521493-.75227504-.80382098-1.45439841-1.20573147-2.60788682"/>
    <path fill="rgb(255,255,255)" fill-opacity=".3" fill-rule="evenodd" d="M157.90663057 195.76869421c-.65310454 1.30394341-1.25597028 2.60788682-1.8085972 3.9619819-.10047762.10030334 1.25597028.80242672 1.95931364 1.1534884.25119405 0 .75358216-.45136502.9545374-.8024267.20095525-.60182004.35167169-1.25379175.45214931-1.95591512-.70334336-.60182004-1.25597028-1.45439842-1.55740315-2.35712848z"/>
    <path fill="rgb(255,255,255)" fill-opacity=".3" fill-rule="evenodd" d="M150.92343582 209.56040336c-.60286574 1.20364007-.80382098 2.60788682-.95453742 3.91183023.10047762.05015167.20095525.150455.30143287.20060668.85405979-.70212338 1.8085972-1.35409508 2.11003007-2.3069768.75358217-1.90576345 1.00477622-3.9619819 1.45692553-6.01820036-.95453742 1.45439842-2.11003008 2.70819016-2.91385105 4.21274025z"/>
    <path fill="rgb(255,255,255)" fill-opacity=".3" fill-rule="evenodd" d="M136.85656868 248.929464c-.35167168-.70212337-.4019105-1.8054601-.10047762-2.05621845.70334335-.35106168 1.60764195-.25075834 2.46170174-.35106168-.35167167.55166836-.70334335 1.05318506-1.10525384 1.50455009-.20095525.40121335-.55262693.6519717-1.25597028.90273005"/>
    <path fill="rgb(255,255,255)" fill-opacity=".3" fill-rule="evenodd" d="M91.94307146 99.8787019c0-.25075834.25119406-.35106168.50238811-.35106168-.10047762.150455-.25119405.35106168-.5023881.35106168"/>
  </g>
</svg>
