<svg xmlns="http://www.w3.org/2000/svg" width="389.09" height="337.319" viewBox="0 0 389.09 337.319">
  <g>
    <g>
      <g opacity=".3" transform="scale(-1 1) rotate(36.000013 0 -106.70441065)">
        <path fill="rgb(255,255,255)" fill-rule="evenodd" d="M168.59842783 285.71676926c.5880127.19537354 1.27404785.24420166 1.81304932.53729248 6.32128906 3.7609253 10.4375 6.69146729 9.16339111 13.28527833-.440979 2.39331054-1.91107178 4.68896484-3.38110351 6.69152832-3.87115479 5.3727417-11.66247559 6.8380127-17.00372315 3.46783447-2.94012451-1.75830078-5.73321533-3.76086426-8.82037353-5.12854004-.85131836-.36364746-2.20574952.1418457-3.36962891.5762329-.24291992.09069825-.47753906.17822267-.69750977.2541504-6.32128906 2.39331055-15.19061279-2.2956543-15.72967529-10.69665527-.2425537-4.3517456-1.78167724-3.72528077-4.14221191-2.76452637l-.07196045.02929687-.29400635-.1465454c-2.49908447-1.02563477-5.19421387-1.61181641-7.7913208-2.44213868-1.1760254-.68377685-2.20507813-1.41644287-2.84210205-2.0513916-1.51904297-1.465271-2.64611816-3.12597656-3.82214356-4.73779297 0-.34191894-.09802246-.73266601-.29406738-1.12341308-.25158691-.54107666-.35284424-1.18920899-.45568847-1.84692383-.27770997-1.77648926-.56640625-3.62347412-3.85644532-3.62347412-8.86938476-.04882813-15.19061279-9.4755249-12.15252685-18.36499024.20074463-.5001831.05883789-1.09155273-.0826416-1.68096924-.06567383-.2736206-.13128663-.54675293-.16235352-.81005859-.44104004.73266602-1.02905273 1.36761475-1.22503662 2.19799805-1.61706543 6.69146728-6.12524414 9.52435302-12.59350586 7.8637085-7.39935303-2.00256348-11.22149658-7.47296143-13.37756348-14.89715577-.49005127-1.56298828-1.71508789-2.930542-2.74414062-4.29815674-2.1560669-3.12597656-5.2432251-5.76348877-6.46826172-9.23138427-1.81304932-5.128479 1.61706543-9.81744385 7.84033203-11.82000733 2.94012451-.92800903 4.75317383-2.00256347 5.97827148-5.76348877 2.45007325-7.47296142 12.1034546-12.3572998 19.35577393-10.69662475 3.96917725.78149414 3.96917725 4.83547973 5.43920898 7.5706787.93103028 1.80718995 1.1270752 4.10281373 1.81311036 6.1053772.24499511.63497925 1.27404785 1.56298829 1.47003173 1.46530152 1.27404786-.97686768 2.49908448-2.10025025 3.62615967-3.27249146.09802246-.14651489-.49005127-1.36761474-1.02905273-1.80718994-.41204834-.3217163-.83563233-.63290405-1.25878906-.94372558-2.59613038-1.9071045-5.17510987-3.80163575-4.96447754-8.043396.09802246-.92803955-1.47003174-2.83288574-2.05804444-2.83288574-3.10943603.46957397-3.682312-1.3633728-4.41864013-3.7192688-.02954102-.09451294-.05932618-.18981934-.08953858-.28588867-1.66607666-5.03082276-5.6352539-6.49612427-10.2904663-6.6914978-.04901124 0-.14697266.2930603-.24499512.2930603-1.61706543-.78149414-3.2831421-1.70950318-4.90020752-2.53982544 1.5680542-.68380738 3.1361084-1.31878662 4.75317383-1.75836182 1.02905273-.1465454 2.25408935 0 3.62615966.19537354.49005127.24420166.78405762.24420166 1.02905274.34188842-.24499512-.19537353-.53900147-.34188842-.78399658-.53726196-2.05810547-3.56555176-4.06719971-7.13110351-6.12530518-10.59893799-.39196777-.53729248-1.07800293-1.02572632-1.61706543-1.46530151l-3.08709717-2.49099732c-.0402832.32125855-.09161377.6461792-.1428833.97076416-.13586426.85974122-.27130127 1.71704102-.20013428 2.49710083.24499512 3.71206666-2.1560669 5.03082276-4.75317382 5.47042847-4.11621094.7326355-7.15429688-1.36761474-8.5263672-5.3727417-1.32305907-3.46786499-.9800415-6.69152832 2.84210206-8.79177856 2.35211182-1.26989746 2.79309082-2.93057251.78405762-5.76345825-4.8511963-6.83804322-10.19244385-12.50384522-18.32678223-14.799469-1.47003174-.39074707-2.94012451-1.46530151-4.16516113-2.49099731-1.22503662-.97686768-2.1560669-2.29562378-3.2831421-3.467865.57989503-.03302001 1.17102051-.13864135 1.75634766-.2432251 1.14562989-.2047119 2.26885987-.40542602 3.24188233-.0498352 7.7913208 2.7352295 14.50457763 7.13110352 20.04180908 13.82260132 5.0961914 6.00769043 8.52636719 13.62722779 15.63165283 17.7300415.88201904.53726197 1.91107178.83032227 2.94012451 1.26992799-.19604492-1.1234131-.19604492-2.19793702-.5390625-3.12597657-2.49908447-6.6914978-2.84210205-13.28530884 1.1270752-19.4883728 1.32305908-2.10025024 2.89111328-2.97943115 4.5081787-.34191895 1.27404786 2.10025025 2.6951294 4.00515748 3.96917726 6.10540772 1.22503662 1.85601807 1.81304931.83032227 2.15606689-.63497925.49005127-2.39331055.68603516-4.83544922 1.27404785-7.131073.44104004-1.66067505 1.1270752-3.41903686 2.05810547-4.59124756 4.45916748-5.42160034 6.90930176-5.2262268 9.7514038 1.26989747 1.51184083 3.29901123 2.47851563 2.250885 3.66729737.96188354.23675537-.2567749.48236084-.5231018.74285889-.76651 2.94012451-2.93057252 5.97827148-5.86117555 9.06536865-8.69406129 2.40112305-2.19793701 4.21417236-.63494873 4.6552124 1.90487671.68603516 4.20050049.93103028 8.49868774.93103028 12.79690552 0 .83032226-2.00909424 1.66064453-3.03814698 2.49099731-.440979-.92803955-1.0289917-1.80722046-1.12701416-2.73522949-.3920288-2.9305725-.49005127-5.86117554-.93103027-8.79174805-.34301758-2.197937-.9800415-2.83291626-2.59710693-.53726196-2.25408936 3.02825928-4.8511963 5.76345825-7.44830323 8.49868774-2.79315185 3.02825928-4.41021728 2.73519898-6.32128906-.63497924-1.07806396-1.85601807-2.05804443-3.85858155-3.08709717-5.86114502-1.17608642 2.197937-2.9401245 4.29818725-3.5281372 6.6914978-1.02905274 3.80975342-1.37207032 7.96142578-2.05810547 11.96655273-.19598389 1.0256958-.68603516 2.10025025-1.1270752 3.12594605-.68597412-.63494873-1.47003174-1.17224121-2.05804443-1.90487671-2.05810547-2.73519897-4.0671997-5.56811523-6.2232666-8.3033142-.34301758-.48843385-1.1270752-.68380738-1.7150879-1.02569581-.10479736.19396973-.2369995.38790894-.36730956.57907105-.29632569.43466186-.58276367.85494995-.51470948 1.2281189.78399659 9.0359497 1.27404786 18.31613158 6.56628418 25.8868103 1.42102051 2.00259399 4.60614014 3.3213501 7.10528565 3.66323852 3.96917724.63494873 8.28131103.92800903 12.15246582 0 4.75323486-1.17224121 9.16339111-3.66323853 13.72058105-5.665802 0-.09768677-.09802246-1.26992798-.44104004-1.56295777-1.0289917-.8791809-2.401062-1.56298828-3.18511962-2.63754272-1.1760254-1.6118164-2.1560669-3.56555176-3.08709717-5.3727417 1.61706543-.92800903 3.18511963-2.29562378 4.99816894-2.73519897 3.13616944-.92803955 6.51727295-1.17224121 9.60443116-2.00256348 1.02905273-.2930603 1.71502685-1.46530151 2.59710693-2.19793701-.93103027-.43960572-1.81311035-1.02572632-2.84210205-1.36761475-2.64611817-1.0256958-5.34124756-1.80718994-7.9383545-2.83291626-.53900146-.1465149-.88201904-.7326355-1.22503662-1.1722107.44104004-.19537353.93103028-.53729247 1.37207032-.53729247 3.23413086.2930603 6.41925049.83035278 9.60437011.83035278 1.2197876 0 2.42840577-.1902771 3.62036133-.3779602 1.29797364-.20437622 2.57629395-.40563965 3.8279419-.35470581 1.27404785.09768676 2.59710693 1.36761474 3.87115478 2.00256347-.93103027.5861206-2.1560669.92803955-2.9401245 1.75836182-2.00909425 1.70950317-3.82214356 3.66323852-5.53723145 5.56811523-.25500489.27301026-.50726319.55056763-.75915528.82766724-2.3618164 2.59832764-4.6876831 5.15707397-8.89422607 3.56820679-.97302246-.35559082-2.09625244-.15487671-3.24188233.0498352-.58532715.10458374-1.17645263.21020508-1.75634765.2432251 1.17608642 1.0256958 2.25408935 2.10025024 3.5281372 2.9305725 2.59716797 1.61184693 5.29223633 3.37017823 8.03637696 4.73779298 1.02905273.4395752 2.69506836.34188843 3.7241211-.19537354 4.69720458-2.6140747 8.83154296-.80255127 12.95257567 1.00314331 1.03796387.45480347 2.07507325.90924073 3.1201172 1.29248047 2.30310058.83032227 3.77313232 6.74035645 1.27404784 10.69662476-2.40112304 3.85861206-1.81304931 7.13110351-.5880127 10.98971557 1.37200929 4.34701538 1.81304932 9.03594971-2.00909423 12.60150147-.68603516.63494873-1.7150879.83032226-2.49908447 1.26992798-.58807373.2930603-1.07806397.53726196-1.61712647.83032226.49005127.43960572 1.02905274 1.07455445 1.61712647 1.36761475 7.44830322 3.76089477 10.04541015 7.96139526 8.47735595 16.11819458-.35888671 1.98730469.0933838 1.93701172.88165284 1.8493042.18041992-.02008057.37841797-.04211426.5883789-.04211426 1.1906128 0 2.394104-.04718018 3.60162354-.09448242 2.86767578-.11242676 5.7578125-.22564697 8.55090332.28985596 4.31213379.8303833 6.12524414 7.86376953 3.9691162 12.99224853-3.18511962 7.32647705-7.93829345 9.7197876-15.72961425 6.49615479-1.02905273-.4395752-2.15612793-.73266602-3.18518066-1.07452393-.02349854.50372314-.0610962 1.00738525-.09857178 1.50976563-.11883545 1.59228515-.2366333 3.1710205.09857178 4.69329833.09802246.53729249 2.35211181.73260499 3.62615967.73260499 1.3764038.0361328 2.76617431-.0678711 4.15075683-.1715088 2.35931397-.17663574 4.69989014-.35186767 6.92370606.1715088 7.59533691 1.80725097 9.31036377 7.47302246 4.90020752 14.26220703-.68603516 1.12341308-1.7150879 2.00256347-2.74414063 2.93060302-.34295654.29302979-.93103027.34185791-1.47003174.63494873zM65.5471583 181.8763762c.88208008.09768677 2.59710693-1.07455445 2.6951294-1.80718994.53900146-3.56555176-1.5680542-4.73779297-5.43920899-4.49359131-1.07806396 3.07711792-.68603516 5.665802 2.7440796 6.30078125zm49.68811035 9.28018188c2.94012451-1.26992798 5.880188-2.53985595 8.91833496-3.66323852 1.22503662-.4395752 2.49908448-.34188843 3.82214356-.53726197-.68603516 1.07455445-1.37200928 2.19793702-2.05804444 3.22363282-.44104003.7326355-1.02905273 1.36761474-1.27404785 2.197937-.34301758 1.0256958-.44104004 2.10025025-.68603515 3.12597657.78399658-.63497925 1.81304931-1.17224121 2.35205078-2.10028076 4.21417236-6.1053772 15.28863525-7.52182007 19.50280762-2.00256348 1.27404785 1.75836182 1.47009277 4.4935608 2.15612792 6.7892151-.78405761.09765624-1.47009277.29302978-2.15612792.34188842-1.47003174-1.17224121-2.40106202-2.00256348-3.43011475-2.73519898-4.99822998-3.66323852-9.60437012-2.2956543-12.69152832 2.39331055-.19598389.29302979-.44104004.34188843-.5880127.63494873-1.27404785 2.29562378-2.59710693 4.68893433-3.96917724 6.93572998-.68603516-2.19796753-1.02905274-4.73779297-2.35211182-6.59384155-1.81304932-2.83288574-3.5281372-6.20306397-7.69329834-6.20306397-.53900146 0-1.1270752-.83032226-1.61706543-1.26992797.44104004-.2930603 1.1270752-.34188843 1.76409912-.53726197zm-20.6651001 8.35592652c1.49847413.72525024 3.47406006 1.68139648 4.6904297 1.16848755 1.8130493-.83035279 2.9890747-3.0282898 4.5081787-4.59124756-1.76409912-.43960572-3.479187-.97686768-5.19421386-1.26992798-.76916504-.12265015-1.5576172-.0913086-2.57159424-.05096436-.60101319.02389527-1.28125.05096436-2.08361817.05096436q-1.5435791.1465454-2.9401245.2930603c.53900146.63494873 1.02905273 1.26992798 1.5680542 2.00256348.58801269.7326355 1.02905273 1.95373535 1.81311034 2.29562378l.20977783.10144043zm6.65045166 9.91137695c-.16851806-.63821411.14971924-1.39196777.47650147-2.16589356.14837646-.3514099.29846191-.7069397.40557861-1.05773925 2.0090332-3.56555176 3.87115479-6.20309449 6.02722168-8.6940918.5880127-.63494873 1.81304932-.92800903 2.74414063-.92800903 5.43920898.09768676 11.41741943 7.96142578 10.09436035 13.28530883-.78399658 3.12597657-6.37023926 7.03341675-10.09436035 6.83804322-4.8022461-.19537354-8.52636719-3.41900635-9.65344239-7.27761841zm35.82049561-10.94085693c-.3920288.19537353-.83300781.4395752-1.27404785.7326355 2.1071167 1.26992797 4.16516113 2.53985595 6.17425537 3.71209716.21899414.12472534.57781982-.0093689.9489746-.14807129.21014405-.07852173.42419435-.15853882.6190796-.19384765-1.37207031-1.17224121-2.7440796-2.39331055-4.21417236-3.467865-.34301758-.34188842-.9800415-.43957519-2.25408936-.63494872zm6.27227783 22.2236023c-.88201904 2.39331054-4.06713867 2.53982543-7.10528564 1.66067504-8.13433838-2.29562378-11.0744629-7.32647705-7.7913208-14.70178223 4.06713867-4.20050049 13.81854248-3.27249145 16.5626831 1.17224121 2.11523438 3.29211426.74560547 6.30404663-.55456543 9.1631775-.41662597.91619872-.82611084 1.8166809-1.11151123 2.70568847zm-53.46118164 10.79434203c-5.88024902 1.66064453-10.78045654 1.26989746-14.50457763-4.200531-.09802247-5.665802 1.91107177-8.88943482 6.12524414-10.598938 1.47003173-.53729247 2.59710693-2.29562377 4.06713867-2.53985595 4.0671997-.83032226 7.7913208 3.66323853 8.82037353 9.62210083.83306885 4.29818726-.3920288 6.49612427-4.5081787 7.71722412zm39.29962158-2.00256347v-.14654541c1.02905274-.83032227 1.5680542-2.14907837 1.61706543-3.56552125h1.22503662l-1.32305908-1.31878662c-.34301758-1.66064453-1.51904297-3.12594604-3.43011474-3.3701477-1.7150879-1.66067505-3.38116455-3.37017822-4.75317383-5.32391358-.11334229-.14382934-.21643067-.27844238-.3114624-.40255737-.80834961-1.0559082-1.03216553-1.34823608-2.04064942-.03701782-.34301758.63494873-.9800415 1.12338257-1.5680542 1.465271-.88208008.39074707-1.81311035.68380737-2.6951294 1.02572631.68603516.87918091 1.32305909 2.24676514 2.25408936 2.53982544 2.20507813.63497925 3.57714844 1.90487671 4.60620118 3.41900635-.88201905 2.34448242 0 5.47042847 2.5480957 6.2519226.04901123.14654542.09802246.24423219.14703369.39074708.34301758 1.1722107.93103027 2.39334106 1.47003174 3.56552124.78405762-1.465271 2.00909424-2.83288574 2.25408935-4.49353027zm-10.19244384-2.68640137c-7.35028077-6.20306397-13.13250733-3.80975342-19.35577393 3.95629883-3.28314209 4.00512695-2.49908447 8.30334472 1.12701416 10.59893798 1.81311035 1.17224122 3.82220459 2.00256348 5.88024902 2.7352295 5.09625245 1.95373535 9.26141358.5861206 12.69152832-4.00512696 2.59710694-3.41900634 2.59710694-8.35217285-.34301757-13.28533935zm-49.68804932 14.89715576c-.5390625.24420166-1.17608643.4395752-1.86212158.4395752-1.22503662 0-2.1560669-.4395752-2.84210205-1.12335206-2.79309082-.87921142-3.52813721-4.59124755-2.20507813-6.93572998v-.39074707c2.7440796-5.9588623 8.03631592-6.78918457 10.43743897-2.4909668.88201904 1.56292725 1.81304931 4.2005005 1.12701416 5.3727417-1.02905274 1.9048462-2.94012451 4.39587403-4.65515137 5.12847901zm79.48132324 0c2.05804444-6.3984375 1.47003174-9.57324219-3.03814697-11.13623047-3.03814697-1.0256958-6.37023926-.7326355-10.3394165-1.0256958-3.2831421 2.58868408-4.94921875 6.15423584-3.82214356 10.1593628 1.12701416 4.20050048 4.50817871 6.20306396 8.47729492 7.22875976 3.43017578.87921142 7.44830323-1.36761475 8.72241211-5.22619629zm-25.9220581-.73260498c-.09802246-.53729248-.24505616-1.36761475 0-1.75836182.88201904-1.465271 2.0090332-2.83288574 2.9401245-4.20050049.34295655 1.17224122.5880127 2.4909668.93103028 3.66320801 1.12701416 3.27252198 1.47003174 6.3984375 2.59710694 9.03601074 1.07202148 2.503479-.13433838 3.84289551-1.34521485 5.1873169-.72625732.80627441-1.45410156 1.61431885-1.69293213 2.6763916-1.37207031-.53729248-2.9401245-.83032226-4.16516113-1.75836182-2.00909424-1.465271-3.82214355-3.37017822-5.68426514-5.03082275-.68603515-.53729248-1.47003174-1.07452393-2.1560669-1.66064453.30480958-.03198242.61480714-.07965088.92669679-.12762451.64074707-.09857178 1.28918457-.19830323 1.91540527-.16546631 5.97814941.53765869 5.93670654-.52746582 5.77545166-4.66558838-.01452637-.37316895-.0300293-.7713623-.0421753-1.19555664zm-34.15447998 16.02044678c1.32305908-1.9048462 2.9401245-3.56555176 3.82214355-5.66577149 1.81311035-4.73779297-1.17602539-11.08740234-5.53723144-12.65039062-3.08709717-1.07452393-14.99462891 4.24938965-15.09259034 7.52185058-.09802246.4395752 0 .92803955-.09802246 1.36761475-.63702392 5.12854004 1.7150879 8.98712158 5.34124756 11.72235107 3.87115479 2.83288575 7.69329834.63494873 11.56445313-2.2956543zm8.67340087-3.66314698c-.58801269.29302979-.78399658.53729248-.93103027.83032227 0-.29302979 0-.53729248.09802246-.83032227.440979-2.6375122.34301758-5.32391357.440979-7.86376953 0-.4395752.44104005-.92797851.68603516-1.26989746 1.61706543 1.17224121 3.38116455 2.4909668 4.90020752 3.85858154.09802246.09771729-.88201904 1.80718995-1.61706543 2.49102784-1.07806396 1.07452392-2.35211181 1.90484619-3.57714844 2.78405761zm65.36865235-7.2288208c.47576904.16168213 1.04943848.2567749 1.64874267.3560791 2.11657715.35083008 4.55358887.75482178 4.1334839 4.33288575-.5880127 5.47039795-3.62615968 7.66833496-8.5263672 7.13104248-3.72412109-.34185791-7.00726318-1.07452393-8.62432861-5.03082276.83300781-5.86114502 5.58624268-8.5963745 11.36846924-6.78918457zm-59.73345947 23.24932862c2.05810546.73266601 4.11621093 1.85601806 6.37030029 2.197937 5.19421387.97686768 7.93829346-.732666 9.70239258-5.47039794 2.25408935-6.39849854-2.59710694-14.45758057-8.3793335-13.52954102-1.71508789.29302979-3.38116455 1.465271-5.09625244 2.10021973-7.44830322 2.83288574-8.62432861 8.40100098-2.59710693 14.70178223zm23.27593994-7.32647705c-3.08709717 4.29815673-1.96002198 8.74285888.78405761 12.69915771 3.57714844 4.88433838 9.16339112 7.13110352 13.57354737 4.7866211 2.84216308-1.56298829 6.12524414-4.29815674 7.15429687-7.32641602 2.79315186-7.71722412-1.17602539-14.75061035-8.96734619-18.8534546-5.6352539.63494874-9.45739746 4.2005005-12.54455566 8.6940918zm29.25427246 11.13623046l-1.17608643.29302979c0 .65753174-.08166504 1.43481445-.16375732 2.2163086-.18011475 1.71746826-.36187744 3.45025634.31079101 3.98675536 2.84210205 2.34448243 6.32128907 4.2005005 9.84942627 5.56811524 1.61706543.5861206 2.79309082-.14654541 3.43011475-1.22106934 1.17602539-.4395752 2.20507812-1.31878662 2.89111328-2.6375122.34301758-.63494873.5880127-1.31878663.73504639-2.0513916.19598388-.39074708.34301758-.78149415.44104004-1.17224122.53900146-1.8560791.09796142-3.85864257-1.17608643-5.27508545-.48999023-.5861206-1.07806396-.92797851-1.66607666-1.1722412-1.4210205-1.12335206-3.23413086-1.66064454-5.0961914-1.75836182-2.1560669-.09765625-5.04718018.04888916-6.86029053 1.46533203-.63702393.48840332-1.12701416 1.07452392-1.51904297 1.75836181zm-29.64624024 13.92028809c-7.44830322.29302979-10.43743896-2.2956543-10.78045654-8.59637451 1.37207031-3.02825928 2.84210205-5.12854004 4.31219483-7.13110352.19598388-.19537353 1.27404785.29302979 1.61706542.63494873 2.40106202 2.83288575 4.90020752 5.56811524 7.15429688 8.59637452 1.02905273 1.36761474 1.5680542 3.2236328 2.40106201 4.83551025-1.61706543.5861206-3.18511963 1.56292725-4.7041626 1.66064453zm30.82226563 3.41900635c-1.1270752-.63494873-1.91113281-1.9048462-2.74414063-2.83288574-3.03814697-2.63751221-5.6352539-4.73779297-8.28131103-6.8380127-.24505615-.29309082-.78405762-.29309082-1.1270752-.34191894.44104004-.19537354.78405762-.53729249 1.22503662-.63494874.35284424-.05407714.73571778-.14941406 1.12164307-.2454834 1.00769043-.25085449 2.03564453-.50671386 2.60253906-.04760742 3.43011475 2.53985596 6.56628418 5.3727417 9.75140381 8.30334473.53900147.4395752.53900147 1.66064453.78399658 2.53985596-.43463134 0-.88928222.0600586-1.33190918.11846924-.75537109.09973144-1.47515869.19470214-2.0001831-.020813zm-8.91833496 7.8637085c-1.37207031 1.36761474-4.6552124 1.90484619-6.56628418 1.1722412-3.7241211-1.1722412-7.44830322-7.86376953-6.12524414-10.8920288.78405761-1.9048462 3.5281372-2.83288575 5.43920898-4.2005005 1.81311035.2930298 3.03814697.34191895 3.87115479.92803956 2.35211181 1.465271 5.43920898 2.53979492 6.66430664 4.73773193 1.71624756 3.19024658-.95831299 5.89904785-2.95300293 7.9192505-.1124878.11395263-.22283936.225708-.33013916.3352661zm20.48278808 7.71722412c2.98913575-.73266602 5.8312378-2.83288575 6.37023926-6.93572999.5390625-3.80975341-1.61706543-5.81231689-4.5081787-6.93572998-1.96008302-.83032226-4.21417237-1.0256958-6.71325685-.92803955-1.3720703.78149414-3.96917724 1.7095337-3.96917724 2.53985596 0 3.66326904.09802246 7.76605225 1.5680542 10.8920288.68603515 1.465271 4.90020752 2.00256349 7.25231933 1.36761476zm-15.87664795-3.9074707c.14697266 1.0256958 1.96008301 1.66064452 3.18511963 2.29559325.09802246.09771729.93103028-.83032226.88201905-.97680664-.9800415-2.39331054-2.0090332-4.78662109-3.38110352-6.69152832-.08502197.44781494-.19104004.90161133-.29730225 1.35620117-.32250976 1.38000489-.64672851 2.76739502-.3887329 4.01654053z"/>
        <path fill="rgb(255,255,255)" fill-rule="evenodd" d="M96.07546246 174.69642693c.19600808 1.46529245.44101818 2.53984024.58802424 3.66323112.93103837-.63496006 2.05808482-1.17223396 2.7441131-2.00256634 2.40109897-2.83289873 4.65519188-5.86116979 7.00728882-8.79175468.44101818-.5372739 1.12704646-.73264622 1.7150707-1.0745478.2450101.73264623.93103837 1.56297862.7840323 2.10025251-.68602827 2.00256635-1.56806462 3.9562896-2.69511108 5.66579746-1.91107877 3.02827106-4.06716763 5.86116978-6.32126054 8.49869619-1.27405252 1.5629786-2.84211715 2.83289873-4.50818582 3.85860344-.93103837.63496006-2.35209694.5372739-3.43014138.73264622.44101818-.92801855 1.12704646-1.90488018 1.2250505-2.83289873.19600807-3.22364338.09800403-6.49612984.2450101-9.67093014 0-.92801855.34301413-1.90488018.53902221-2.83289873.68602828.68380314 1.37205655 1.41644936 2.10708685 2.68636948"/>
      </g>
      <g opacity=".3" transform="rotate(-22.000008 246.51868927 167.04957542)">
        <path fill="rgb(255,255,255)" fill-rule="evenodd" d="M251.76258575 286.363937c8.97851563-8.0288086 20.35577393-14.82244874 26.79833985-24.42956544 11.37731933-16.88110351 19.94451904-35.54638672 29.53985595-53.52545166 4.72906494-9.19537353 9.04699707-18.59664917 13.43341065-27.86065674 1.37072754-3.01940917 2.74151611-5.9701538 4.04370117-8.98953247-.27410889-.5489807-.47973633-1.09796142-.5482788-1.64694213-.06854249-1.57830811 0-3.01937867.27416991-4.46044922l-.20562744.20587158c-.06433105-.57937622-.1889038-1.18560791-.31518555-1.79980469-.27752685-1.35055542-.56280517-2.73852539-.2331543-3.96447754 1.3022461-4.59768677 3.152771-8.98953247 4.93475343-13.31274414 2.5359497-6.10736084 3.76959228-12.90100098 10.82897949-16.40072632 1.57635498-.7548523 3.22131347-3.70559692 2.94714355-5.21530151-1.37078857-10.15609741-2.67297363-20.4494629-5.48303222-30.19381714-2.26177979-7.61709595-7.4706421-14.34207153-9.80090332-21.89053345-4.18084717-13.10687256-7.74481202-26.55685424-7.33355713-40.62442016.13708496-2.19592285-2.60443116-5.90151978-4.52349854-6.24465943-2.93804932-.2614746-6.43591308 1.15841675-9.54547119 2.42068482l-.46105957.1869812c-.3427124.20587158.27416992 3.3624878.68536377 5.14666748.95953369 3.15664673 2.8100586 6.38189697 3.08422851 9.74438477.07141114.84579467.16546631 1.71640014.26080323 2.59817504.45373535 4.1977234.93481445 8.64868164-.87768555 11.88113404-2.12463379 3.84283447-7.81329346 7.06811523-12.40533447 8.3033142-9.8694458 2.53900147-16.99737549 7.68569947-21.86358643 16.40072632-1.71343994 3.22525025-3.63250732 6.79360962-6.57965088 8.71502686-5.644104 3.76742554-4.51715088 7.64971924-3.23468017 12.06744385.11907959.41036987.23956299.8253479.3560791 1.2453003.89099121 3.36248778 1.43933105 7.5484619.06854248 10.49920653-7.19647217 15.71453858-14.80413818 31.0859375-27.07244873 44.33004761-13.5704956 14.7538147-29.12860108 26.6940918-46.46868897 36.50708008-9.73236084 5.55841064-20.081604 9.3326416-28.58032226 17.70455933-9.8694458 9.60714721-16.10638428 18.9397583-12.88513184 31.97802734 3.4954834 14.75378418 3.35839844 30.94866943 15.8322754 42.2713623 4.38641357 3.911438 7.0593872 10.1560669 11.99414062 12.96966553 15.7637329 8.92089844 32.62402344 9.67565918 50.10119629 1.1665039 8.63580322-4.32318114 16.24346924-9.40124511 23.23431396-15.78308105zm63.53466797-254.38302613l-.54833984-.13726807c-.68536377-.8234558-.54827881-1.44107055-.34265137-1.92141723.47973633.61761474.89099121 1.23519897 1.37072754 1.85281372-.09802246.04907226-.1697998.09814453-.2277832.13781738-.10418702.07125855-.16394043.11212158-.25195313.0680542zm4.59033203 35.17562866c.20819092-.17608642.37695313-.31887817.34436035-.38412475-.5482788-1.09796143-1.16516113-2.05865479-2.67297363-3.3624878.5482788 1.44107056 1.16516113 2.95077515 1.71343994 4.39181519.10784912-.21600342.38549805-.4508667.61517334-.64520264zm-27.34490967 35.16226196c-4.24938964 1.37246705-8.63580322 2.67626954-12.47393798 4.80355835-3.60534668 2.10025025-4.95361329.0574646-6.14361573-1.74551391-.05426025-.08215332-.10809326-.16378784-.16186523-.24450684-.89099121-.68624878-1.57635498-1.57833862-1.98760986-2.60766601-1.37072754-2.19592285-1.5078125-4.9407959 1.09661865-7.34259034.27416992-.34310913.75390625-.5489807 1.16516113-.68621826.9595337-1.99005127 1.78198242-4.11734008 3.15270996-5.9701538 1.71350098-2.40176392 3.7010498-4.6663208 5.5515747-6.93084717 4.38647462-5.21530152 9.73242188-9.81298828 16.3805542-12.00891114 5.0032959-1.64694213 10.96606446-1.78417968 15.90081788-.2744751 5.27740478 1.57830811 8.15600586 5.90151978 10.96606445 10.15609742 3.97521973 5.9701538 6.57965088 12.48925781 7.81329346 19.55737305.61688232 3.36248779.68536377 6.86221313 1.3022461 10.22473144.11053466.64562988.2557373 1.27642822.3996582 1.90164185.39154052 1.70056152.77355957 3.36013794.42279052 5.16644287-.8909912 4.46044922-5.34594726 7.68569946-10.00653076 6.2446289-2.53588867-.8234558-4.59204101-2.88214111-6.168396-5.21530151-.41125488-.2744751-.75390624-.61758423-1.02807617-1.0293274-.95953369-1.23519897-1.78198242-2.4017639-2.46734619-3.84283447-.54833984-.96072387-.75396728-1.92144775-.6854248-2.8135376-.13708496-.34310912-.27410889-.75485229-.47973633-1.0979309-1.50787354-3.36251831-2.94714356-2.74490357-4.72912598.06860351-.8909912 1.57830811-1.57635498 3.43112183-2.87860107 4.73495484-1.5078125 1.44107055-3.7010498 2.47039795-5.62011719 3.70559692-.34265137-1.37243652-.68536377-2.88214111-1.02807617-4.25457763-.82244873-2.53903199-1.57635498-5.00942994-2.19317627-7.4798584-.68536377-3.29385376-3.22131348-3.9114685-6.09985352-3.01937867zm-85.39819336 199.96554566h1.91906739c10.96600342-.54901123 20.49279785-4.59771729 28.85443115-10.70507813.20562744-.13726806.34265137-.20593261.5482788-.34313964l.20562745-.20587159c0-.06860351.06854248-.06860351.13708496-.13726806 5.68865967-2.95074463 11.30871582-6.2446289 16.3805542-10.1560669 6.30548096-4.87219238 11.7199707-10.97961426 16.58618164-17.22424316 6.78521729-4.9407959 10.00653076-11.94024658 13.77612305-18.9397583.13702392-.34313965 0-.82348633-.13708496-1.30383301 1.1651001-2.1272583 2.19317627-4.3918457 3.01568603-6.65637207.54827881-1.37243652.95947266-2.67626953 1.30218506-4.04870605.89099121-2.6076355 1.78198242-5.215271 3.01568604-7.68569947.82244873-1.64694214 1.57635498-3.29385376 2.19317626-5.00942993 10.00653077-13.10687256 13.22784424-28.82138061 18.9850464-43.43792725 4.8661499-12.00891113 8.43011474-24.42956543 11.85705566-36.91882324.8223877-2.95077514-.3427124-6.9994812-2.05615235-9.67575073-1.78198242-2.74490356-5.0032959-4.87219238-8.22454834-6.51913452-1.8505249-1.0293274-5.0032959-1.44107056-7.0593872-.7548523-11.5144043 4.04873658-18.2310791-.61758423-16.51763917-12.00891113.07647706-.3956604.16955567-.75335693.25054932-1.06466675.35455322-1.36242676.47796631-1.83666992-2.03259277-.71951294-3.49536133 1.71557618-7.47058106 2.40179444-10.76043701 4.1173401-2.4673462 1.37246703-4.79760743 3.6369934-6.168396 5.9701538-2.12463379 3.84286499-3.28979492 8.16604614-5.34594727 12.14614868-6.44256591 12.28341675-15.28393554 23.05709839-25.35900878 32.87011719-4.38641358 4.1859436-8.77282715 8.44052124-13.29638672 12.48925781-8.6357422 3.842865-19.3961792 8.44055176-24.12530518 16.19485474-7.12792969 2.88214111-13.84466553 7.54846191-20.01306152 11.45996094-.54827881-.27450562-1.3022461-.54898072-2.53588867-.54898072-2.1932373 2.19589234-4.31793213 4.32321167-6.44256592 6.65634155h.06854248c-2.5359497 1.99005127-4.86621094 4.18597413-6.8538208 6.79364014-7.05938721 4.25457764-13.50195313 14.20483399-13.09069824 22.027771.41119384 7.47979736 1.71343994 15.09692383 3.56396484 22.50811767 1.64489746 6.24462891 4.3178711 12.21478272 7.19647217 17.84179688 1.71343994 3.22528076 4.45495605 6.10742187 7.19647216 8.71508789 4.3178711 3.91143799 9.04699708 7.54840088 14.39294434 11.52850342 5.07177734 1.0293579 10.2121582 2.05865478 15.35247803 2.88214111 1.02807617.13726807 2.12469482.06860352 3.22131347-.13720703z"/>
        <path fill="rgb(255,255,255)" fill-rule="evenodd" d="M236.06740753 272.22771951c1.5078336-1.37244685 2.67297773-3.29387245 3.97519765-5.07805337-9.32115312 4.87218635-19.25914727 12.76375577-30.15667188 12.42064406-4.79765235-.13724469-11.24021407-.89209046-15.28394962-3.29387246-1.30221992-.75484577-2.33028828-1.71555857-3.35835664-2.81351605-.13707578.13724468-.27415156.27448937-.34268945.41173405 3.22128086 6.31325554 8.77285 8.50917052 14.80418438 9.67575034 12.06266875 1.9214256 21.58943555-3.8428512 30.36228556-11.32268657z"/>
      </g>
    </g>
    <g opacity=".32">
      <path fill="rgb(255,255,255)" fill-rule="evenodd" d="M121.25684391 83.0264757c-1.76739502-8.38809204-2.53167724-16.33724975-.76428222-24.38397216 3.72589111-16.72735596 14.99908447-25.55435181 28.70837402-30.87005616 14.37805176-5.5595398 33.00744629 2.29208374 40.31591797 16.87368775 4.20361328 8.29052734 7.73840332 17.36135864 8.31152344 27.2124939.66882324 12.67962646-4.7767334 21.89675903-14.33026123 28.38290405-8.59814454 5.94967651-18.1994629 6.04721069-28.18292237 4.9255371-7.92944336-.9265747-14.99902343-3.46249389-21.11328125-8.58312988-4.58569336-3.85266113-8.6459961-8.68069458-12.94506836-13.5574646zm8.02496338.92657471c4.44238281 6.92501831 9.8400879 13.41116333 17.57849121 15.26434326 7.06958008 1.65811157 14.71240235 1.75564575 22.06866455 1.02410889 13.23162842-1.26794434 23.31054688-8.87573242 24.3137207-25.45681763 0-.43893432-.52539062-1.0729065-.76428222-1.56057739-.19104004.34136963-.33435059.82904053-.57324219 1.17041016-3.00927734 5.21817016-5.73205566 10.68017578-9.41021728 15.36190796-1.57629395 1.9994812-5.15887451 2.4871521-7.8338623 3.26742553-.59948731.13601685-1.31506348-.32061767-2.0010376-.75839233-.2979126-.19012451-.590271-.37664795-.86505127-.509552.76428222-.82907105 1.33752441-2.09701538 2.29284668-2.38964844 5.63659668-1.80438233 8.93255615-6.58364868 11.8463745-11.41168213 1.24194337-2.09701538 2.10180665-6.58364868 1.19421387-7.41271973-2.09777832-1.91860962-1.99633789-3.91882324-1.89074707-6.00100708.0098877-.19351196.01965332-.38772583.02783204-.5826416.22497558-4.22854614-2.0107422-6.89767456-4.30822754-9.64035034-.14019776-.16738892-.28063965-.33505249-.42077637-.50335693-1.09869385-1.26797486-2.00622559-2.63348389-3.00939941-3.95022583 1.76745605.29263305 3.7258911.34140014 5.3977661 1.07290649.90759278.34136963 1.95843507 1.46304321 2.29290772 2.53591919 1.52856446 4.48666382 2.77050782 9.0220642 4.29907227 13.50872803.42993164 1.17041015 1.33740234 2.09701538 2.00622558 3.21865844.1361084-.37060546.32019043-.74612426.50354004-1.1203308.39575196-.80758668.78857422-1.60906983.69067383-2.34219361-.2388916-2.82852173-.66882324-5.65707397-1.57641601-8.29052734-1.4329834-3.65759278-3.43920899-6.92504883-4.96777344-10.5826416-2.86608887-7.41271973-7.49957275-12.0456543-15.23791504-12.33825684-.90759277-.09753418-1.9584961-.29260254-2.6749878-.73153687-6.16204833-3.9501953-13.04058837-4.4866333-19.20257568-2.09701538-12.46740722 4.82803345-22.06866455 12.77719117-24.74365234 28.7730713-.80773926 4.80065917.24865723 8.8720703 1.28582764 12.86959838.68023681 2.62164307 1.35223388 5.2114563 1.48468017 7.95428467-.09552002.58520508.85980225 1.12164307 2.19732666 1.65811157zm63.24432373-11.99691772c-.19104004-.14630127-.33435058-.24383545-.52539062-.34136963.3614502-.16397095.41906738.01663208.48486328.22323608.01257324.03915405.02526855.07925415.04052734.11813355z"/>
      <path fill="rgb(255,255,255)" fill-rule="evenodd" d="M145.71388691 41.037309c-4.5379296 5.46200391-9.02809153 10.58263258-12.56289985 16.43477963-3.3437376 5.65707548-3.77364672 12.04566934-.19107072 18.19042374.66874752 1.02412573 1.24195968 2.09701936 1.6718688 3.26744877.19107072.6339826-.19107072 1.46303676-.2388384 2.09701936-.57321216-.19507157-1.33749504-.29260736-1.6718688-.73151839-3.86918208-4.38911028-5.20667712-9.65604262-4.96783872-15.80079703.2388384-6.82750489 2.8660608-12.2407409 6.97408128-16.87369065 3.00936384-3.26744877 6.63970753-6.04721862 10.17451585-8.87575636.66874752-.53644681 2.10177792.09753579 3.29596992.09753579-.7165152.73151838-1.4330304 1.46303676-2.48391936 2.19455514"/>
      <path fill="rgb(255,255,255)" fill-rule="evenodd" d="M145.85718995 94.63322238c-1.00312128-1.02412573-2.19731328-1.65810833-2.67499008-2.63346617-.52544448-1.1704294-.52544448-2.73100195-.76428288-4.09650293 1.00312128.53644681 2.10177792.92658995 2.96159616 1.65810833 4.5379296 4.19403872 9.84014209 3.95019926 15.3334253 3.26744877 1.194192-.19507157 2.53168703-.92658995 3.43927295-.53644682 1.86293952.73151838 3.3437376 1.99948358 5.06337409 3.1211451-1.57633344.43891102-3.29596993 1.36550097-4.87230337 1.26796519-6.11426304-.48767892-12.4195968 1.70687622-18.48609217-2.04825147"/>
      <path fill="rgb(255,255,255)" fill-rule="evenodd" d="M163.38792852 44.6949009c-2.77052544-1.02412573-5.06337408-1.804412-7.26068736-2.92607352-.42990912-.19507157-.85981824-1.02412573-.85981824-1.56057255.09553536-.34137524.90758592-1.07289362 1.194192-1.02412573 5.82765696 2.09701936 12.8972736-.43891103 17.53073857 5.65707548.52544448.53644681.76428288 1.36550098 1.09865664 2.09701936-.76428288.19507157-1.57633344.43891103-2.34061632.34137524-.76428288 0-1.4330304-.5364468-2.19731328-.73151838-2.29284864-.68275049-4.58569729-1.2191973-7.165152-1.8531799"/>
      <path fill="rgb(255,255,255)" fill-rule="evenodd" d="M139.79071843 58.10609607c-.14331055.9265747.28662109 1.9994812.85980224 3.02359008 2.3406372 2.82855225 4.77679443 4.584198 8.1204834 3.5112915.6687622-.29260253 1.48083496-2.38961791 1.2420044-2.82852172-1.62414551-2.19458008-3.53485108-4.19406128-5.39776612-6.19354248-.95532226-.87780762-1.9584961-1.70687866-2.96160889-2.5359192-.62097168 1.75564576-1.4329834 3.26745606-1.86291503 5.02310182zm3.96466064-.43893433c.04779053 1.0241394.14331055 1.9994812.2388916 3.0236206-.76428223-.48770141-1.09869385-1.31674194-1.33752441-2.19458007 0-.19506836.76428222-.536438 1.09863281-.82904053z"/>
      <path fill="rgb(255,255,255)" fill-rule="evenodd" d="M164.19997908 59.27650063c1.76740416-2.19455514 3.43927297-4.09650293 5.54105089-5.36446812 1.194192-.6339826 3.1048992-.53644682 1.24195968 2.19455514-1.86293952 2.63346617-3.20043456 5.75461126-4.776768 8.68068479-.42990913.73151838-1.09865665 1.1704294-1.6718688 1.75564411-.42990913-.92658995-1.194192-1.75564411-1.194192-2.63346617.04776767-1.41426887.52544447-2.77976985.85981823-4.63294975"/>
      <path fill="rgb(255,255,255)" fill-rule="evenodd" d="M170.93522197 66.59168444c3.3437376-1.26796519 6.40086912-2.4871625 9.50576833-3.56005612.19107072-.09753578.66874752 1.02412574 1.09865664 1.65810833-3.3437376 1.804412-6.54417217 4.2915745-10.0789805 5.31570024-2.19731327.73151838-3.05713151-1.41426887-.52544447-3.41375245"/>
      <path fill="rgb(255,255,255)" fill-rule="evenodd" d="M147.38575571 73.90686825c-2.77052544.92658995-5.06337408 1.99948358-7.4039904 2.63346618-.76428288.19507156-1.86293953-.92658995-2.67499009-1.36550098.57321216-.6339826 1.09865665-1.56057255 1.76740417-1.804412 2.53168704-1.17042942 5.06337408-2.63346618 7.6428288-2.92607353 2.43615168-.29260736 3.1048992 1.36550097.66874752 3.46252033"/>
      <path fill="rgb(255,255,255)" fill-rule="evenodd" d="M154.26430164 60.83707318c-.52544448-2.82853774-.90758592-5.36446813-.90758592-7.9491664 0-.92658996 1.194192-1.80441201 1.86293952-2.73100196.42990912.73151838 1.194192 1.56057254 1.33749504 2.3896267.42990912 2.73100196.76428288 5.46200392.85981824 8.24177377 0 .73151838-1.00312128 1.46303676-1.57633344 2.19455514-.4776768-.68275049-.90758592-1.31673309-1.57633344-2.14578725"/>
      <path fill="rgb(255,255,255)" fill-rule="evenodd" d="M177.86153557 79.56394373c-2.77052544-.34137524-5.39774784-1.02412573-7.92943488-1.75564411-.57321216-.19507157-1.00312128-1.02412573-1.52856576-1.46303676.57321216-.53644682 1.24195968-1.56057255 1.76740416-1.46303676 2.8660608.34137524 5.7321216.92658994 8.5981824 1.65810833.76428288.19507156 1.4330304 1.02412573 2.19731329 1.56057254-1.00312129.39014314-1.95847489.82905417-3.1048992 1.46303676"/>
      <path fill="rgb(255,255,255)" fill-rule="evenodd" d="M167.7347874 82.78262461c.52544449.92658995.66874753 1.56057255 1.09865665 2.09701936.57321216.82905416 1.33749504 1.46303676 2.10177792 2.19455514-.90758592.43891103-1.86293952 1.36550098-2.77052544 1.36550098-1.09865664-.09753578-2.19731329-.82905417-3.1048992-1.46303676-.42990913-.19507157-.66874753-.92658995-.66874753-1.46303676-.09553536-2.29209093 0-4.58418186 0-6.778737 1.00312128 1.31673308 2.10177793 2.58469828 3.3437376 4.04773504"/>
      <path fill="rgb(255,255,255)" fill-rule="evenodd" d="M153.02234196 79.1250327c.76428288-.19507156 1.86293952-.19507156 1.86293952-.09753578 0 2.4871625.42990912 5.02309288-.2388384 7.31518381-.33437376 1.07289363-2.67499009 1.46303676-4.0602528 2.19455514 0-1.07289362-.09553537-2.29209092.19107071-3.26744876.57321216-2.04825147 1.33749504-3.95019926 2.24508097-6.1447544"/>
      <path fill="rgb(255,255,255)" fill-rule="evenodd" d="M156.65268564 71.1758663c1.57633344-.53644681 3.20043456-.6339826 4.776768-.73151838l-1.00312128 4.38911028c-1.24195968-1.12166151-2.53168704-2.19455514-3.77364672-3.6575919"/>
      <path fill="rgb(255,255,255)" fill-rule="evenodd" d="M162.52811028 37.3797171c1.33749504-.82905417 2.77052544-1.07289363 4.20355585-1.36550098.09553536 0 .33437376.82905416.52544448 1.1704294-1.62410113.29260736-3.20043457.48767893-4.72900033.19507157"/>
    </g>
  </g>
</svg>
