<svg xmlns="http://www.w3.org/2000/svg" width="808.001" height="623" viewBox="0 0 808.001 623">
  <g>
    <path fill="rgb(18,18,21)" fill-rule="evenodd" d="M448.61397799 123.1841798c-52.66876814 103.74240878 55.1472984 132.852219 28.50309805 256.10439422C450.47287569 502.54074923 0 607.58017194 0 607.58017194s759.04791473 17.65901357 757.8086496 15.18158291c-1.23926513-2.47743065 50.19221683-582.51320349 50.19221683-612.86172905 0-30.34852555-306.7181203 9.5417452-359.38688844 113.284154z"/>
    <g transform="rotate(-12.000004 620.67159198 281.28618765)">
      <path fill="rgb(255,255,255)" fill-opacity=".3" fill-rule="evenodd" d="M588.01519775 226.5357666c-.15032959-.87176514-.3001709-1.74041748-.40924072-2.59802246-.13354492.12408447-.26538086.25030518-.3951416.37451172-1.28607178 1.23120117-2.3684082 2.26727295-2.87036133-.8760376-.2512207-2.05621338-.70336914-4.21276855-.85406494-6.26898193-.85406494-9.32818604-1.65789795-18.75671387-2.6626587-28.0848999-.1506958-2.35717774-.9545288-4.56384278-1.70812987-6.82067872-.25115967-.6519165-1.25598145-.90270996-1.95928955-1.35406494-.1506958.60180664-.50238038 1.30395508-.50238038 1.95593262.25115967 2.60784912.50238038 5.21575928.85406495 7.72332764 1.20568847 7.82366943 2.56213378 15.59716797 3.7678833 23.4208374 1.10528564 6.61999512 2.11004638 13.29022217 2.96411132 19.91021728.1506958 1.05316163-1.00476074 3.30999756-1.10528564 3.30999756-2.66333008-.79760742-4.29821777.7713623-5.92120361 2.32879639-1.13226319 1.08660889-2.25872803 2.16766357-3.72460938 2.43560791-1.10528564.15045166-1.85888672 1.85565186-2.81341553 2.75836182.38153077 0 .79040528.04919433 1.20318604.09887695.83740234.10076904 1.69073486.20343018 2.36376953-.09887695 7.4855957-2.75836182 14.8204956-3.1595459 21.55249024 1.70513916 1.70812988 1.15350341 3.41619873 3.51062011 3.66741943 5.46655273.75360107 6.01818848.65307617 12.08654785 1.00476074 18.10473633.05279541.77307129.14874268 1.5522461.24468994 2.33117676.17785645 1.444458.35565186 2.88781738.25769043 4.2888794-.25115967 3.41027831-1.25598144 6.82061767-1.25598144 10.23089599.03863525 3.93481445.18878173 7.8696289.33892822 11.80444336.24017334 6.29614258.48040771 12.59228515.26397705 18.88842773-.2512207 6.46954346-2.00958252 12.83880615-3.215271 19.30834961-.75360107 3.66107178-2.31103515 7.27197266-2.46173095 11.03338623-.4019165 10.48168945-4.87316895 19.65948486-8.08843994 29.23840332-1.05499268 2.95898438-3.8684082 5.21575928-4.62194825 8.27502442-2.76318359 10.03033447-6.43060302 18.55615234-17.83477783 20.01055908-3.76794433.45135498-5.27508545-.35107422-5.37554932-4.21276856-.1005249-1.35412597-.35168457-2.75836181-.5024414-4.21276855-1.55737305-12.03637695-3.86834717-24.0727539-4.37072754-36.15930176-.26531982-6.02606201.49847412-12.07403564 1.26507568-18.14385986.39453125-3.12402344.78985596-6.25384522 1.04589844-9.38946533.7033081-8.22485352 1.10522461-16.49987793 1.70812988-24.82507325.25115967-4.01208496.35162354-8.12451172.95452881-12.08654785 1.20568848-8.52575683 2.5621338-17.05151367 4.27026367-25.47705078 1.30621338-6.2689209 3.3157959-12.33728027 4.87316895-18.45581055.4019165-2.00604248.35168457-4.06225586.50238037-6.01818847-1.25592041 1.35412597-2.9640503 2.50756836-3.81811523 4.21276855-4.42102051 8.87683106-5.07415772 18.75671387-6.63153077 28.43597412-1.30621337 7.62304688-1.80859375 15.34643555-2.66265869 23.06976319-1.40667724 13.0895996-3.36602783 26.17919921-4.06933593 39.36907959-.04248047.76275634-.08551026 1.52557373-.12860108 2.28833007-.7218628 12.77819825-1.44366455 25.55633545.83190918 38.3345337.2512207 1.35406494.15075684 2.85864257.5024414 4.21270752.95452882 5.11547851 2.21044923 10.23095703 2.8133545 15.34643554.50238037 5.21575928 1.85882568 7.27197266 6.63153076 7.9741211 1.60760498.25073242 3.215271.45135498 4.77264404.90270996.77618409.25830078 1.58642579.7133789 2.3781128 1.15808105 1.36035156.76416016 2.66607666 1.49761963 3.65057373 1.14886475 1.80859375-.6519165 2.91381836-3.51055908 4.019104-5.66711426 3.41625977-6.3692627 7.43536377-12.53790283 9.99749756-19.3585205 3.8684082-10.23095704 9.54541016-19.00750733 16.98077393-26.6305542 6.02862548-6.16864014 12.40893554-11.9862671 18.73901367-18.10473634.95458984-.902771 1.80859375-2.10638427 2.66271972-3.1595459-1.55749511.25073243-3.16503906.25073243-4.62194824.8024292-1.10534668.35107422-1.95935058 1.4543457-2.96411133 2.15649415-7.68658447 5.81762695-14.77026367 12.2871704-18.94006347 21.61535644-.35168457.70214844-1.55737305 1.05322266-2.411438 1.50457764-.0350952-.35040283-.10699462-.70690918-.17926024-1.06524658-.13464356-.66748047-.27050782-1.34136963-.17242432-1.99401856 1.50714111-6.3692627 3.215271-12.6381836 4.67218017-19.00744629 2.31097413-10.0303955 3.41625977-20.36157226 3.51672364-30.74304199 0-7.97406006.70336914-15.89807129.70336914-23.87219238.05957031-3.65795899-.16351319-7.33355713-.38641358-11.00592041-.1529541-2.52050782-.30584716-5.03948975-.3671875-7.5501709-.03704834-1.84960938.02154541-3.70611572.08007813-5.55932617.10015869-3.1716919.19995117-6.3338623-.180542-9.43603516-.9545288-6.67016602-1.45690917-13.94213867-10.49993896-14.9953003-3.11480713-.40124511-5.52624512-2.90881347-4.92340088-7.37231445.36602783-2.22888183-.0413208-4.59088134-.44482422-6.93078613zm-15.63165283 178.9510498c-.45214844 1.35406495-.80377197 2.75836182-1.20568847 4.11242676-1.05505372-1.00305175-1.65789795-2.25683593-1.25598145-2.95892334.25115967-.60180664 1.60766602-.8024292 2.46166992-1.15350341z"/>
      <path fill="rgb(255,255,255)" fill-opacity=".3" fill-rule="evenodd" d="M588.6609497 193.79663086c-.35162353 10.03027344-.60284423 20.1107788-.60284423 30.14111328.4642334-.0493164.94012451-.05206299 1.4116211-.05480957 1.92669677-.01123047 3.78015136-.0220337 4.46630859-3.20501709 2.00958252-11.48474121 4.822937-22.76885986 6.63153076-34.25360107 2.36120605-15.0956421 4.67218017-30.24145508 5.87792969-45.38726807.61914062-7.8033142.13549804-15.6661377-.34906006-23.54263306-.14453125-2.3491516-.28912354-4.69952392-.40454102-7.04989624-.20092773-3.20968628-1.35644531-6.51971435-2.31097412-9.67926025-.25115967-.90274048-1.20568848-1.45440674-1.80859375-2.15652466-.07196045.23956299-.15545654.48196411-.23937988.72589111-.26763916.77734375-.54046631 1.56988526-.46392823 2.33337403.65307618 5.9178772 2.05975342 11.83578491 2.21051026 17.85397339.4019165 15.64733886-.1005249 31.3447876-2.41149902 46.8416748-1.70812989 11.03338623-2.86358643 22.06671143-4.42102051 33.10009766-.35162354 2.75836181-1.20568848 5.46655273-1.95928955 8.07440185-.35168457 1.05322266-1.20574952 1.85565186-1.80859375 2.85864258-.02166748-.49768066-.11816407-.98602295-.2128296-1.46496582-.12469482-.63122559-.24621581-1.24621582-.1890869-1.84503174.85406493-12.13671875 1.70812988-24.1229248 2.41143798-36.1593628-.9545288-.7020874-2.21051025-1.25378417-2.31097412-2.05621337-.75360107-4.86468506-1.45690918-9.5789795-1.70812988-14.44366455-.75354004-12.38748169-5.62670899-23.67160034-8.18890381-35.50738525-.2512207-.90274048-.85406494-1.80548096-1.25598145-2.70819092-.60284424 1.2036438-1.30621338 2.3571167-1.70812988 3.51062011-.1506958.7522583-.1506958 1.5546875 0 2.25680542 2.21051025 7.82366944 5.17462158 15.5470276 6.63153076 23.52114869 1.80859375 9.72943115 2.81341553 19.55914306 3.41625977 29.43902588.27178955 4.2736206-.03082276 8.52435302-.33294678 12.7677002-.14459228 2.03088378-.28912353 4.06011962-.37042236 6.08935546zm1.90911866 25.47698975c-.1005249-1.00299073-.15075684-1.95587159-.2512207-2.95892334.2512207.25073242.60284423 1.50457763.85406494 2.70819091 0 .0501709-.45214844.15045166-.60284424.25073243z"/>
      <path fill="rgb(255,255,255)" fill-opacity=".3" fill-rule="evenodd" d="M640.45718948 343.2485724c1.3564479 2.60788682 1.95931363 5.91789702 3.91862727 7.72335712 4.0191049 3.76137523 3.1650451 7.72335712 1.8085972 12.03640071-4.521493 13.74155748-9.39465769 26.98159826-17.030957 39.26875731-4.9234035 7.87381213-9.79656818 15.89807927-15.32283741 23.22022304-6.22961259 8.17472214-13.21280735 15.69747259-20.69839022 22.618403-5.47603042 5.01516696-12.00707587 8.77654218-18.4376437 12.5379174-5.62674686 3.3100102-9.44489652-1.70515677-13.66495666-4.41334693-5.8779409-3.66107188-7.08367238-7.62305378-4.0693437-13.74155747.25119405-.55166837.70334335-1.0030334 1.00477622-1.5045501.25119406.70212338.75358217 1.35409509.8540598 2.05621846.35167167 2.75834183-.4019105 6.6200204 1.10525384 8.07441881 3.1650451 2.9589485 7.33486643 4.86471195 11.2534937 6.72032373.95453742.45136503 2.81337343-.55166837 4.0191049-1.45439842 3.41623917-2.50758348 6.7320007-5.21577364 10.04776224-7.87381213.60286574-.45136503 1.20573147-.90273005 1.70811959-1.45439842-.60286574-.45136502-1.20573147-.90273005-1.85883602-1.35409508-1.95931364-1.1534884-3.91862727-2.25682513-5.77746329-3.51061687-.60286573-.45136503-.85405979-1.45439842-1.25597028-2.1565218.95453741-.35106168 2.05979126-1.05318506 2.662657-.8024267 2.11003007 1.05318505 4.521493 2.05621845 6.02865734 3.86167855 2.46170175 2.9589485 4.27029895 2.3069768 6.33009021 0 5.72722448-6.62002039 11.35397133-13.34034412 17.13143462-19.8099095 7.18415-7.87381213 13.21280735-16.4998993 17.73430036-26.37977822 4.0191049-8.77654218 8.18892622-17.6533877 12.00707588-26.53023322 1.3564479-3.15955519 2.41146293-6.46956538 3.31576154-9.77957558 1.00477622-3.9619819-1.70811959-9.32821055-5.12435875-11.63518735-2.81337342-1.90576345-5.3755528-4.31304359-7.93773217-6.56986872-.70334335-.55166837-.95453741-1.60485343-1.3564479-2.40728014.85405979-.20060668 1.8085972-.55166837 2.46170175-.25075835 2.91385105 1.05318506 5.92817972 2.3069768 9.14346364 3.51061687"/>
      <path fill="rgb(255,255,255)" fill-opacity=".3" fill-rule="evenodd" d="M648.99778738 287.6303708c.75358217 2.15652179 1.25597028 4.31304358 1.85883602 6.46956538.15071643.70212337.40191049 1.45439842.70334335 2.25682513.95453742-.90273005 2.41146294-1.70515677 2.662657-2.75834183 1.25597028-7.07138542 3.41623916-14.24307417 3.1650451-21.36461126-.25119405-6.62002039 2.05979126-13.34034411-.35167167-20.16097118-.70334336-1.90576345 1.25597028-4.66410528 1.60764195-7.17168876.4019105-2.70819016.4019105-5.56683533.8540598-8.32517715.15071643-1.5045501.9545374-2.95894851 1.55740314-4.4634986.60286574 1.05318506 1.20573147 2.25682513 1.8085972 3.3100102.4019105.90273005.50238812 1.9559151 1.10525385 2.70819015 1.20573147 1.45439842 3.5669556 2.50758348 3.81814965 4.01213357.50238812 3.76137522.15071644 7.72335712.15071644 11.58503568 0 .25075835-.50238812.55166837-.75358217.80242672-.35167168-.55166837-.75358217-1.0030334-.95453741-1.50455009-.60286574-3.05925185-1.00477623-6.1185037-1.8085972-9.0774522-.15071644-.80242671-1.20573148-1.35409508-1.80859721-1.95591512-.25119406.70212338-.4019105 1.5045501-.70334336 2.25682514-1.70811958 5.81759367-.35167168 11.48473234.70334336 17.30232602.35167168 1.45439841-1.25597028 3.31001019-1.45692553 5.01516696-1.20573146 10.93306397-3.5669556 21.41476292-6.58128426 31.99676521-2.31098532 8.07441881-4.0191049 15.94823094-7.5860605 23.67158806-2.7128958 5.71729034-3.1650451 12.5379174-4.67220944 18.90717945-.25119405.80242671-.85405979 1.45439842-1.45692552 2.1565218-2.2105077-4.3130436-1.45692553-8.32517716.10047762-12.63822075 1.70811958-4.66410528 2.05979126-9.32821055.95453741-14.6944392-1.25597028-6.1185037-.40191049-12.63822074-.40191049-19.10778612 0-.3510617.70334336-1.05318507.8540598-1.0030334.5023881.10030334 1.00477622.45136503 1.3564479.90273006 1.55740314 2.40728014 3.06456748 4.86471195 4.62197063 7.2719921.25119405.45136502.40191049.90273004.70334335 1.35409507-.5023881 0-1.10525384.10030334-1.45692552-.10030334-2.662657-1.90576344-3.21528392.90273005-3.41623916 2.1565218-.35167168 3.15955518-.15071644 6.36926204 0 9.5789689 0 .70212337.75358217 1.35409507 1.20573147 2.05621845.40191049-.55166837 1.00477622-1.05318507 1.25597028-1.70515677 1.45692552-5.01516696 3.21528391-10.03033392 4.0693437-15.14580422.35167168-2.3069768-1.25597028-5.01516697-2.05979126-7.4224471-.70334335-2.1565218-1.60764195-4.21274026-1.95931363-6.26895871-.50238811-3.41031353 1.55740314 0 2.31098531-.90273005"/>
      <path fill="rgb(255,255,255)" fill-opacity=".3" fill-rule="evenodd" d="M669.64593879 260.69892421c.95453741-2.85864517 1.55740314-5.56683533 2.81337343-7.72335712 1.25597028-2.3069768 2.96408986-4.66410527 5.02388112-6.16865536 3.06456748-2.40728014 6.58128426-4.21274025 9.99752343-6.1185037.9545374-.45136502 2.21050769-.20060667 3.41623916-.25075834-.50238812.90273005-.8540598 2.25682513-1.60764196 2.70819016-7.93773217 4.86471195-7.5860605 15.3464109-13.4640014 21.51506626-.15071644.20060668 0 1.1534884.35167167 1.45439842.35167168.30091002 1.00477623.25075835 1.45692553.10030334 1.45692552-.55166837 2.91385105-1.45439842 4.37077657-1.8054601.95453742-.25075835 2.05979126.35106168 3.06456749.55166836-.75358217.70212337-1.3564479 1.50455009-2.2105077 2.05621845-1.85883601 1.25379174-3.91862727 2.3069768-5.77746328 3.51061688-7.73677693 5.01516696-10.14823987 13.89201248-14.06686714 21.6153696-1.45692553 2.70819016-2.2105077 5.56683533-3.41623916 8.32517716-.35167168.90273005-.95453742 1.50455009-1.45692553 2.3069768-.15071643-1.0030334-.60286573-2.1565218-.25119405-2.9589485 1.95931363-5.56683533 3.81814965-11.233974 6.3300902-16.49989931 2.31098532-4.91486362 5.52626924-9.22790721 8.0382098-14.09261916 3.1650451-6.2689587 6.02865734-12.83882743 9.04298602-19.3083928.15071643-.55166837-.10047763-1.1534884-.10047763-1.80546011-.75358216.25075835-1.85883601.20060668-2.21050769.70212337-2.05979126 3.15955519-3.91862727 6.36926204-5.77746329 9.5789689-.70334335 1.1534884-1.00477622 2.60788682-1.85883601 3.66107188-.50238811.70212338-1.55740315 1.1534884-2.31098532 1.8054601.05023881-.90273005.35167168-1.8054601.60286574-3.15955518"/>
      <path fill="rgb(255,255,255)" fill-opacity=".3" fill-rule="evenodd" d="M615.8904108 196.15372541c-1.85883602 3.66107189-4.0191049 6.72032373-5.72722448 10.03033393-4.67220944 9.42851388-9.19370245 19.00748278-13.96638951 28.43599667-.50238812 1.1534884-1.85883602 1.90576345-2.81337343 2.75834183-.15071643-1.25379174-.40191049-2.50758348-.50238811-3.76137522-.15071644-2.50758348.85405979-4.01213357 2.46170175-6.1185037 2.46170175-3.15955518 3.06456748-7.82366046 4.37077657-11.93609736 1.3564479-4.56380194 2.56217937-9.32821055 3.76791084-13.99231583.50238811-2.05621845 1.55740315-4.1124369 1.45692553-6.1185037-.35167168-6.01820035 5.97841853-6.9209304 7.58606049-11.28412566.10047762-.25075834 1.25597028 0 1.95931364.10030334-.15071644.6519717-.25119406 1.35409508-.60286574 1.90576345-1.25597028 1.95591511-2.96408986 3.76137522-3.81814965 5.81759367-2.96408986 7.4224471-5.72722448 14.89504588-8.44012028 22.31749298-.15071644.65197171 0 1.45439842 0 2.1565218.5023881-.55166837 1.20573147-.90273005 1.55740314-1.45439842 3.91862728-7.2719921 7.73677693-14.54398419 11.6554042-21.81597628.70334336-1.1534884 1.8085972-2.05621846 2.7128958-3.05925185-.25119405 1.50455009-.5023881 2.9589485-.75358216 4.4634986-.10047762.45136502-.60286573.70212337-.9042986 1.55470175"/>
      <path fill="rgb(255,255,255)" fill-opacity=".3" fill-rule="evenodd" d="M630.40942724 144.09629235c3.91862727-1.95591512 5.27507517-.35106169 5.02388112 3.20970686-.15071644 2.85864516-.25119406 5.81759367-1.25597028 8.32517715-2.7128958 6.6200204-5.62674686 13.18988911-9.04298602 19.35854447-1.45692552 2.50758349-4.27029895 4.11243691-6.48080664 6.01820036-.10047763.10030334-1.00477623-.70212338-.95453742-.90273005 1.00477623-2.60788682 2.2105077-5.31607698 3.41623916-7.87381213.8540598-1.90576345 1.60764196-3.76137523 2.46170175-5.66713867.50238812-1.05318506 1.00477623-2.25682513 1.8085972-3.20970686 2.11003008-2.70819016 4.37077658-5.21577364 6.58128427-7.87381213.4019105-.6519717.60286574-1.45439842.8540598-2.15652179-.8540598-.10030334-1.60764196-.35106169-2.46170175-.20060668-.75358217.10030334-1.3564479.6519717-2.11003007.90273005-1.10525385.3510617-2.2105077.55166837-3.21528392.90273006.70334336-1.05318506 1.20573147-2.25682514 2.05979126-3.15955519.75358217-.80242671 1.8085972-1.25379174 2.662657-1.95591511.70334335-.6519717 1.3564479-1.45439842 1.95931363-2.25682514-1.10525385-.20060668-2.31098532-.55166836-3.41623916-.6519717-.4019105-.10030334-.95453742.55166836-1.45692553.70212337-.95453741.25075835-1.95931364.45136503-2.91385105.70212338.50238811-.80242672 1.00477623-1.5045501 1.60764196-2.25682514.70334336-.8024267 1.55740315-1.45439841 2.05979126-2.25682513.70334336-1.00303339 1.10525385-2.25682513 1.55740315-3.3100102.25119405 1.30394342.5023881 2.45743182 1.25597028 3.61092022"/>
      <path fill="rgb(255,255,255)" fill-opacity=".3" fill-rule="evenodd" d="M594.8403489 171.02773893c0-6.01820035.4019105-12.0364007.60286574-17.95429772.10047762-5.91789701 0-11.73549069-.15071643-17.60323603 0-.45136503-.95453742-.80242672-1.10525385-1.25379174-1.70811958-5.1154703-3.51671679-10.13063727-5.02388112-15.24610757-.25119406-.70212337.35167168-1.60485343.60286573-2.50758348.4019105.45136503 1.10525385.70212337 1.45692553 1.1534884.95453741 1.50455009 2.11003007 3.05925185 2.46170175 4.76440862.85405979 3.9619819 1.70811958 7.72335712 5.02388112 10.33124394 1.45692552 1.25379174 1.85883601 2.3069768-.75358217 2.50758348-.60286574.10030334-1.70811958 1.8054601-1.55740315 2.40728014 2.96408986 10.13063726 1.45692553 20.26127452-.10047762 30.29160845-.15071643 1.10333673-.8540598 2.10637012-1.45692553 3.10940351"/>
      <path fill="rgb(255,255,255)" fill-opacity=".3" fill-rule="evenodd" d="M652.81593703 339.88841054c1.20573147-2.1565218 4.67220945-2.85864517 2.56217938-6.2689587-.15071644-.3510617 2.31098531-2.70819016 3.81814965-3.86167856 1.8085972-1.35409508 4.0191049-2.25682514 5.72722447-3.66107189 1.00477623-.90273005 4.27029896-2.25682513.4019105-4.01213357-.25119406-.10030334-.35167168-1.25379174-.10047763-1.50455008.95453741-.80242672 2.11003007-1.5045501 3.1650451-2.3069768-.10047761.6519717-.40191048 1.35409507-.25119405 1.90576344 2.11003007 5.71729033-1.25597028 8.62608717-5.02388112 11.83579403-3.51671678 2.85864517-6.02865734 6.82062707-9.19370245 10.2309406-1.45692552 1.60485343-3.21528392 3.15955519-5.02388112 4.41334693-.70334336.45136502-1.95931364.10030334-2.91385105.10030334.35167168-1.1534884.35167168-2.70819016 1.10525385-3.3100102 1.65788077-1.50455009 3.6171944-2.3069768 5.72722447-3.56076854"/>
      <path fill="rgb(255,255,255)" fill-opacity=".3" fill-rule="evenodd" d="M649.39969787 287.6303708c-1.45692552-1.05318507-2.81337343-2.05621846-3.81814965-3.41031354-1.8085972-2.25682513-3.31576154-4.76440861-4.9234035-7.17168875.8540598-.20060668 2.05979126-1.0030334 2.41146294-.6519717 1.60764196 1.50455008 2.96408986 3.41031353 4.42101539 5.21577363.60286573.6519717 1.10525384 1.35409508 1.70811958 1.95591512.35167168-1.05318506 1.10525384-2.3069768.95453741-3.41031354-.70334336-6.56986872-1.60764196-13.08958577-2.41146294-19.65945449-.10047762-.70212337.50238811-1.45439842.70334336-2.1565218.50238811.25075836 1.10525385.55166838 1.55740315.90273006 1.00477622 1.0030334 2.11003007 2.05621846 2.96408986 3.20970686.25119405.35106169.15071643 1.70515677.10047762 1.70515677-4.67220944.70212337-1.70811958 3.51061687-1.25597028 5.36622864 1.45692552 6.31911038 1.45692552 12.43761407-2.41146294 18.10475274"/>
      <path fill="rgb(255,255,255)" fill-opacity=".3" fill-rule="evenodd" d="M683.10994019 287.42976412c-1.00477622 1.00303339-1.70811958 2.1565218-2.7128958 2.70819016-3.31576154 1.50455009-5.87794092 4.1124369-6.33009022 7.82366046-.5023881 3.9619819-6.48080664 5.71729033-3.5669556 10.78260897-2.11003006.70212337-4.27029894 1.50455008-6.3300902 2.25682513.10047762-.45136503 0-.90273005.25119405-1.25379174.8540598-1.25379174 1.95931364-2.40728014 2.662657-3.76137522 1.8085972-3.86167856 5.27507517-6.97108208 4.37077657-12.03640071-.15071643-1.05318506.75358217-3.3100102 1.10525385-3.3100102 4.77268706.10030334 6.48080664-4.4634986 9.79656818-6.56986872.15071644-.10030334.50238811-.20060667.75358217-.25075834.8540598-.10030334 1.70811958-.20060668 2.56217937-.3510617-.35167168.80242672-.75358217 1.70515678-1.20573147 2.50758349-.35167168.40121336-.75358217.75227504-1.3564479 1.45439842"/>
      <path fill="rgb(255,255,255)" fill-opacity=".3" fill-rule="evenodd" d="M571.83097337 155.5810247c0-1.0030334.15071644-1.80546011.4019105-2.50758349.60286573.35106169 1.45692552.45136503 1.858836 1.0030334 1.85883602 2.25682513 2.46170176 6.01820035 6.48080665 5.46653198.35167168 0 1.00477623.70212338 1.10525385 1.25379174.35167168 3.76137522.70334336 7.62305378.95453741 11.384429.10047762.90273006.15071644 1.90576345-.10047762 2.70819017-.15071643.6519717-.8540598 1.00303339-1.3564479 1.50455008-.4019105-.55166836-1.20573147-1.00303339-1.3564479-1.60485342-.35167168-1.45439842-.15071644-2.95894851-.70334336-4.21274025-1.3564479-3.15955519-2.96408986-6.16865536-4.42101539-9.22790721-.9042986-1.90576345-1.7583584-3.71122355-2.86361224-5.767442"/>
      <path fill="rgb(255,255,255)" fill-opacity=".3" fill-rule="evenodd" d="M578.6634517 147.95797091c-.75358217.55166837-1.25597028.90273005-1.8085972 1.25379174-1.95931364-3.20970685-4.0191049-6.46956538-5.87794092-9.87987891-.40191049-.80242672.10047762-2.1565218.10047762-3.20970686.8540598.45136503 1.70811959.80242671 2.41146294 1.45439842 2.81337343 2.85864517 5.62674686 5.71729034 8.18892623 8.77654218.85405979 1.0030334 1.10525385 2.60788682 1.60764196 3.86167856-1.25597028-.6519717-2.56217937-1.25379174-3.81814965-1.90576344-.30143287-.15045501-.4521493-.45136503-.80382098-.35106169"/>
      <path fill="rgb(255,255,255)" fill-opacity=".3" fill-rule="evenodd" d="M570.97691358 420.63259862c-1.70811958 4.4634986-2.91385105 8.87684553-4.62197063 12.98928243-.70334336 1.5045501-2.41146294 2.50758349-3.66743322 3.76137523.15071644-1.70515677 0-3.61092022.60286574-5.1154703 1.85883601-4.91486363 4.0191049-9.87987892 6.22961259-14.64428753.5023881-1.05318507 1.8085972-1.70515677 2.662657-2.50758348-.15071644 1.35409507-.35167169 2.70819015-.60286574 4.01213356-.10047763.5015167-.25119406.85257839-.60286574 1.5045501"/>
      <path fill="rgb(255,255,255)" fill-opacity=".3" fill-rule="evenodd" d="M609.10817129 172.83319904c.60286573-6.01820035 1.10525384-11.48473234 1.70811958-17.05156767.10047762-.6519717.40191049-1.1534884.70334335-1.8054601.35167168.6519717 1.00477623 1.25379173.95453742 1.90576344-.35167168 9.67927224-.8540598 19.35854447-4.52149301 28.43599667-.35167168.80242672-1.10525385 1.35409508-1.70811958 1.95591512-.15071644-1.0030334-.70334336-1.95591512-.4019105-2.75834183.8540598-3.51061687 2.16026889-6.82062707 3.26552274-10.68230563"/>
      <path fill="rgb(255,255,255)" fill-opacity=".3" fill-rule="evenodd" d="M581.8284968 353.9810297c2.41146294-.25075835 4.42101539-.70212337 6.38032903-.80242671.70334335-.10030334 1.45692552.35106168 2.11003007.6519717-.4019105.90273006-.70334336 2.50758348-1.3564479 2.75834183-2.96408987 1.1534884-5.97841854 2.05621846-9.04298602 2.70819016-.95453742.20060668-2.11003007-.80242671-3.21528392-1.25379174.75358217-.80242671 1.55740315-1.70515677 2.41146294-2.40728014.65310454-.6519717 1.50716433-1.10333673 2.7128958-1.6550051"/>
      <path fill="rgb(255,255,255)" fill-opacity=".3" fill-rule="evenodd" d="M592.02697548 308.242707c2.31098531.55166838 4.0693437 1.05318507 5.97841853 1.60485344-1.85883601 1.00303339-3.76791084 2.25682513-5.77746329 2.75834183-2.11003007.6519717-4.521493.80242671-6.83247832.90273005-.60286574.10030334-1.25597028-.55166837-1.85883602-.80242671.50238812-.70212338.8540598-1.60485343 1.45692553-1.95591512 2.2105077-.90273005 4.42101538-1.70515677 7.03343357-2.50758348"/>
      <path fill="rgb(255,255,255)" fill-opacity=".3" fill-rule="evenodd" d="M602.52688702 388.78628842c2.05979126 2.15652179 4.0191049 4.01213357 5.72722448 6.11850369.60286573.6519717.70334335 1.60485343.9545374 2.50758348-1.20573146-.10030334-2.81337342.45136503-3.6674332-.25075835-1.95931365-1.50455009-3.66743323-3.61092021-5.3755528-5.56683533-.50238812-.6519717-.50238812-1.8054601-.75358218-2.70819016.9042986-.10030333 1.90907483-.30091001 3.1148063-.10030333"/>
      <path fill="rgb(255,255,255)" fill-opacity=".3" fill-rule="evenodd" d="M627.24438213 368.1739522c-.50238811-.6519717-1.00477622-.90273005-1.10525385-1.25379174-.15071643-1.60485343-.35167167-3.20970685-.5023881-4.76440861 1.25597027.6519717 2.7128958 1.1534884 3.76791083 2.05621845 1.8085972 1.5045501 3.51671679 3.15955519 4.77268707 5.1154703.70334335 1.0030334.25119405 2.70819016.35167168 4.11243691-.95453742-.55166836-2.05979126-1.00303339-2.91385105-1.70515676-1.45692553-1.05318507-2.81337343-2.20667347-4.37077658-3.56076855"/>
      <path fill="rgb(255,255,255)" fill-opacity=".3" fill-rule="evenodd" d="M560.7784349 372.18608577c3.41623917-.90273005 6.63152309-1.60485343 9.99752344-1.95591511.75358217-.10030334 1.70811958 1.35409508 2.46170175 2.05621845-.75358217.55166837-1.45692553 1.25379174-2.2105077 1.35409508-2.81337342.45136503-5.72722447.80242672-8.5405979.90273005-.60286574 0-1.3062091-1.45439841-1.70811958-2.35712847"/>
      <path fill="rgb(255,255,255)" fill-opacity=".3" fill-rule="evenodd" d="M569.01759995 329.75777328c1.45692552.90273005 2.41146293 1.70515676 3.41623916 2.60788682-1.20573147.6519717-2.41146294 1.60485342-3.66743322 1.8054601-2.2105077.25075835-4.521493.20060668-6.7320007.10030334-.50238811-.10030334-1.00477623-.6519717-1.55740315-.90273005.35167168-.6519717.70334336-1.5045501 1.20573147-1.70515677 2.2105077-.80242671 4.62197063-1.25379174 7.33486644-1.90576344"/>
      <path fill="rgb(255,255,255)" fill-opacity=".3" fill-rule="evenodd" d="M564.747301 291.19113934c3.21528391-.6519717 6.48080664-.90273005 9.69609056-.80242671.70334335 0 1.3564479 1.50455008 2.05979125 2.3069768-.85405979.35106169-1.70811958 1.25379174-2.46170174 1.05318506-3.16504511-.5015167-6.2296126-1.35409508-9.29418008-2.55773515"/>
      <path fill="rgb(255,255,255)" fill-opacity=".3" fill-rule="evenodd" d="M610.81629087 417.67365012c-2.46170175-1.1534884-4.52149301-2.3069768-6.48080665-3.61092022-1.10525384-.70212337-1.95931363-1.8054601-2.91385105-2.60788682 1.00477623-.35106168 2.2105077-1.1534884 3.1650451-.90273005 2.31098532.70212337 4.67220945 1.60485343 6.7320007 2.9589485.60286574.40121336 0 2.70819017-.5023881 4.16258859"/>
      <path fill="rgb(255,255,255)" fill-opacity=".3" fill-rule="evenodd" d="M573.13718246 392.39720863c-3.21528391.80242671-6.22961259 1.45439842-9.19370245 1.90576344-.5023881.10030334-1.10525384-1.00303339-1.70811958-1.60485342.50238811-.45136503 1.10525385-1.35409508 1.60764196-1.35409508 3.1148063.05015167 6.7320007-4.51365027 9.29418007 1.05318506"/>
      <path fill="rgb(255,255,255)" fill-opacity=".3" fill-rule="evenodd" d="M591.87625904 273.98911666c-2.96408986-.10030334-5.62674685-.35106169-8.33964266-.70212337-.25119405-.10030334-.75358216-.70212338-.75358216-1.05318507-.10047763-.55166836 0-1.25379174.35167167-1.60485342 2.11003007-1.90576345 8.18892623-.90273006 9.99752343 1.60485342 0 .15045501-.75358216.95288173-1.25597028 1.75530844"/>
      <path fill="rgb(255,255,255)" fill-opacity=".3" fill-rule="evenodd" d="M581.22563107 414.36363992c1.70811958.70212338 3.5669556 1.50455009 4.67220944 2.9589485.50238811.65197171-.50238811 2.60788683-.75358217 3.9619819-1.70811958-1.1534884-3.51671678-2.25682512-4.9234035-3.66107187-.35167167-.40121336.50238812-2.00606679 1.00477623-3.25985853"/>
      <path fill="rgb(255,255,255)" fill-opacity=".3" fill-rule="evenodd" d="M575.85007827 136.02187354v-6.72032373c.10047762-.45136502.40191049-.90273005.70334336-1.35409508.40191049.25075835 1.00477622.45136503 1.3564479.80242672 1.70811958 1.95591511 1.45692552 7.37229543-.4019105 9.32821055-.0502388.05015167-1.05501503-1.05318507-1.65788076-2.05621846"/>
      <path fill="rgb(255,255,255)" fill-opacity=".3" fill-rule="evenodd" d="M667.9378192 313.60893566c1.10525385.25075835 1.85883602.45136503 2.56217938.70212337-.15071644.35106169-.25119406.90273006-.50238811 1.05318507-3.16504511 1.35409507-6.33009022 2.60788682-9.54537413 3.86167856-.50238811.20060667-1.20573147.20060667-1.8085972.25075834.25119405-.55166836.35167167-1.50455008.70334335-1.8054601 2.7128958-1.35409508 5.42579161-2.70819016 8.59083672-4.06228524"/>
      <path fill="rgb(255,255,255)" fill-opacity=".3" fill-rule="evenodd" d="M611.46939541 373.08881583c0 1.25379174-.25119405 2.25682513-.40191049 3.31001019-.75358216-.55166837-1.55740314-1.05318506-2.31098531-1.70515677-.50238811-.45136502-1.20573147-1.00303339-1.45692553-1.60485342-.5023881-1.25379175-.75358217-2.60788682-1.10525384-3.9619819.9545374.55166836 2.05979126.90273005 2.91385105 1.50455008.85405979.60182004 1.45692552 1.45439842 2.36122412 2.45743182"/>
      <path fill="rgb(255,255,255)" fill-opacity=".3" fill-rule="evenodd" d="M626.39032234 387.88355836c-2.11003007-1.35409508-4.0191049-2.25682513-5.72722448-3.41031353-.5023881-.35106169-.60286573-1.25379174-.85405979-1.90576345.70334336-.25075834 1.70811958-1.00303339 2.11003007-.70212337 2.51194056 1.25379174 5.17459756 2.45743181 4.4712542 6.01820035"/>
      <path fill="rgb(255,255,255)" fill-opacity=".3" fill-rule="evenodd" d="M619.30664996 153.97617126c-.70334336 1.80546011-1.3564479 3.15955519-2.11003007 4.4634986-.10047762-1.70515677-.40191049-3.51061687-.35167168-5.1154703.10047762-2.50758348.4019105-4.86471195.75358217-7.2719921.10047762-.35106168.35167168-.70212337.50238811-1.00303339.10047762.35106169.25119406.80242672.35167168 1.1534884.25119406 2.50758348.60286573 4.91486363.8540598 7.7735088"/>
      <path fill="rgb(255,255,255)" fill-opacity=".3" fill-rule="evenodd" d="M660.2512811 324.39154463c-1.85883602.25075834-3.21528392.6519717-4.67220945.80242671-.10047762 0-.50238811-.90273005-.40191049-1.05318506 1.20573147-1.1534884 2.31098532-2.60788682 3.66743322-3.15955519 1.00477622-.45136502 2.46170175.55166837 3.76791084.90273006-.65310455.8024267-1.3564479 1.70515676-2.36122413 2.50758348"/>
      <path fill="rgb(255,255,255)" fill-opacity=".3" fill-rule="evenodd" d="M568.16354015 448.16586524c-.9545374-.55166836-1.8085972-1.00303339-1.8085972-1.50455009-.15071643-1.70515676 0-3.41031353.10047762-5.1154703.60286574.25075835 1.45692553.45136503 1.70811958.90273006.75358217 1.75530843 3.66743322 3.56076854 0 5.71729033"/>
      <path fill="rgb(255,255,255)" fill-opacity=".3" fill-rule="evenodd" d="M569.268794 267.26879293c-.25119405-2.50758348-.25119405-5.21577364-.15071643-7.87381213 0-.10030334 1.25597028-.35106169 1.25597028-.25075835.50238811 1.1534884 1.25597028 2.40728015 1.10525384 3.51061688-.30143286 1.45439842-1.3564479 2.90879683-2.21050769 4.6139536"/>
      <path fill="rgb(255,255,255)" fill-opacity=".3" fill-rule="evenodd" d="M610.81629087 148.60994262c0-.70212338-.10047763-1.05318507 0-1.35409508.85405979-1.60485343 1.70811958-3.3100102 2.46170175-4.91486363.10047762 1.60485343.10047762 3.15955519.10047762 4.76440862 0 .70212337 0 1.45439842-.15071643 2.15652179-.25119406.70212338-.75358217 1.35409508-1.20573147 1.95591512-.4521493-.75227505-.80382098-1.45439842-1.20573147-2.60788682"/>
      <path fill="rgb(255,255,255)" fill-opacity=".3" fill-rule="evenodd" d="M671.9066853 283.76869224c-.65310455 1.3039434-1.25597029 2.60788682-1.80859721 3.9619819-.10047762.10030333 1.25597028.8024267 1.95931364 1.1534884.25119405 0 .75358216-.45136503.9545374-.80242672.20095525-.60182003.35167169-1.25379174.4521493-1.95591511-.70334335-.60182004-1.25597027-1.45439842-1.55740314-2.35712847z"/>
      <path fill="rgb(255,255,255)" fill-opacity=".3" fill-rule="evenodd" d="M664.92349053 297.56040138c-.60286573 1.20364007-.80382097 2.60788682-.9545374 3.91183023.10047761.05015167.20095524.15045501.30143286.20060668.85405979-.70212338 1.8085972-1.35409508 2.11003007-2.3069768.75358217-1.90576345 1.00477622-3.9619819 1.45692552-6.01820036-.9545374 1.45439842-2.11003007 2.70819016-2.91385105 4.21274025z"/>
      <path fill="rgb(255,255,255)" fill-opacity=".3" fill-rule="evenodd" d="M650.8566234 336.92946203c-.35167168-.70212337-.4019105-1.8054601-.10047763-2.05621845.70334336-.3510617 1.60764196-.25075835 2.46170175-.3510617-.35167167.55166837-.70334335 1.05318507-1.10525384 1.5045501-.20095525.40121335-.55262693.6519717-1.25597028.90273005"/>
      <path fill="rgb(255,255,255)" fill-opacity=".3" fill-rule="evenodd" d="M605.94312618 187.87869993c0-.25075835.25119406-.3510617.50238811-.3510617-.10047762.15045502-.25119405.3510617-.5023881.3510617"/>
    </g>
  </g>
</svg>
