<svg class="food-left" xmlns="http://www.w3.org/2000/svg" width="376.004" height="517.682" viewBox="0 0 376.004 517.682">
  <g>
    <g class="wheat" opacity=".3" transform="scale(-1 1) rotate(2 0 -14330.96789807)">
      <path fill="rgb(255,255,255)" fill-rule="evenodd" d="M280.62804176 471.37102803c8.80429077 3.37860108 13.17767334 9.73498536 13.0050354 19.58447266 1.37957764-.15441895 2.7953186-.0671997 4.20700073.01983643 3.29891968.2033081 6.575531.40527343 9.31591797-2.48217774 4.25830078-4.92480469 9.09204102-9.39141846 12.77487183-14.83154297 1.55371094-2.29058838 1.2659607-6.35638427.46035766-9.33410644-.23016357-.91625977-4.60354614-.62994385-7.13549804-.91625977-3.92095948-.63623047-6.4215088 1.61749268-8.92767334 3.87628174-.87765503.79101562-1.75601197 1.5826416-2.69631958 2.2510376-1.2659607 1.03076172-2.1291504 2.4623413-3.22247315 3.66491699.76513672 0 1.52096558.03717041 2.2711792.07409668 1.11172486.0546875 2.21118164.10882568 3.31063843.04040527.57543945-.05725097.97824097-1.31707763 1.6687622-1.7178955 3.22250367-1.77520752 6.44497681-3.60766602 9.78256226-5.03930665 1.381073-.51538086 2.87722779-1.03076171 1.78387451 2.46240235-2.81967163 9.1050415-10.07028198 12.71270752-16.97561645 16.8930664-2.34875488 1.47161866-2.75778198-.03393554-3.11572266-1.35137939-.11560058-.42553711-.22589111-.8314209-.39447021-1.11102295-1.32351685-2.06152344-2.35931397-4.52392578-2.762146-6.87176514-.28771972-2.2333374-.28771972-5.55462646.97827149-6.75720214 3.45266723-3.14953614 7.42321777-5.72644043 11.45132446-8.07434082 4.20074463-2.46234131 5.63937378-6.18457032 5.63937378-10.76568604 0-5.61193848-.92071533-6.6427002-5.98461914-4.18035889-5.06393433 2.34783936-9.9552002 5.49743653-14.44366455 8.99053955-2.1899414 1.80725098-2.5454712.11151123-2.72329712-.7366333-.01376343-.06561279-.02645874-.12609863-.03884888-.17956543-3.164917-9.33416748-5.86950684-18.66827392-9.20709228-27.77337646-1.15087891-3.09228516-.86315918-3.664917 1.95651245-4.81018067 5.1789856-2.1187744 11.33624267-3.95129394 14.67382812-8.07434082 6.0421753-7.272583 8.51657105-17.00756836 8.68920899-26.7425537 0-2.74865723-2.35931397-6.2418213-6.27233887-4.81018067-6.6751709 2.34783935-12.54470825 6.24182129-17.20578003 11.85375976-.80563355.91619874-1.49615479 2.11877442-1.66879272 3.2640381-.08303833.57843017.25326538 1.21643065.59829711 1.8710327.13320923.25274659.26773072.50793458.37994385.7631836.57543946-.51538086 1.381073-.80169678 1.84143067-1.43164063 2.07159423-2.34783935 4.02810669-4.8102417 6.15725708-7.04351806.30255127-.34411621.96218872-.30053711 1.61322021-.25750733.21572876.01428223.43048096.02844239.63101196.02844239-.28771972.51538086-.57543945 1.20257568-.86315918 1.71795654-1.55371093 2.4623413-3.22250366 4.81018066-4.48846435 7.272583-.2871399.53063966-.13571167 1.29400636.01663208 2.06201173.06140137.30944824.1229248.61968994.15597534.91571045.69055176-.57263184 1.61126709-.97344971 2.07162476-1.71789551 2.5319519-3.66497803 4.77618408-7.55895996 7.53829956-10.93756104 1.09335327-1.31707763 3.22250366-1.66064453 4.89129638-2.46240234.05679322.54638672.1758728 1.11138916.2937317 1.67047119.24032592 1.14025879.4755249 2.25604248.16662597 3.1397705-1.43862915 4.29486085-3.28005981 8.53240968-5.06393433 12.71276856-.5178833 1.14526367-.57543945 2.74865723-1.38104248 3.37860108-4.60357666 3.3213501-9.2071228 6.58544922-13.8682251 9.44866943-1.84143066 1.0880127-3.6828308.91619873-4.77618408-2.06152344-1.8989563-5.1538086-4.48846435-9.96405029-6.27233886-15.17510986-.51791382-1.60345459.17263794-4.8102417 1.43859863-5.72650147 3.3951416-2.92047119 7.71096802-4.63842773 11.1060791-7.50164794 8.28640747-6.6427002 12.88995361-15.34692383 11.22116089-26.74255372-.05752564-1.03076171-.97824097-1.94702148-1.43859863-2.86322021-.80563355.85894775-1.78387452 1.54614258-2.24423218 2.5769043-.28289795.4423828-.22518921 1.0824585-.16577149 1.74169922.025177.27947998.0506897.56243896.0506897.83520507-.05755615 11.6819458-4.83374023 20.09985352-15.30682373 24.79553223-2.12915039.91625977-4.37338257 1.94702148-6.61761475 2.86328125.17263794-2.11883545.28771973-4.35211182.46035767-6.52819824v-1.03076172c.17263794-10.36486816 6.4449768-19.4699707 15.82470703-23.24938965 1.09335327-.4008789 1.89898682-2.00427246 2.762146-3.14959717-.22338867-.1710205-.47756958-.41351318-.73956299-.66345215-.61532593-.58703613-1.27371216-1.21508789-1.67730713-1.05444336-3.45266724 1.25982667-7.99868774 1.8324585-9.78256225 4.4093628-4.94882203 7.272583-9.95516968 14.83154297-9.26464844 24.56646728 0 .91625977-.5178833 1.71795655-.69052124 2.63421631-.7480774-.7444458-1.84143067-1.37438965-2.1291504-2.17608642-1.7838745-4.0084839-3.45266723-8.07427979-5.00637817-12.19732666-.21566772-.59613038-.45129394-1.19012452-.68640136-1.78277588-1.45864869-3.67700196-2.89764405-7.30444336.57131958-11.1017456.46035766-.51538087.40283203-2.17608643 0-2.97778321-.40280152-1.03076172-1.43859864-1.77520752-2.24423218-2.5769043-.28771973.97351074-.86315918 2.00427246-.97824097 3.14953613-.03619385.64819336.08691406 1.36425782.21188355 2.09136963.07376098.42913819.14819336.86212159.19091797 1.28723145 0 .51538086-.40280152 1.54614258-.69052125 1.54614258-.69055175.11456298-1.55371093 0-2.12915039-.40081787-1.09335327-.62994385-1.8989563-1.54614258-2.762146-2.34783936 0 .4868164-.03460693.98840332-.06906127 1.48742676-.08303833 1.2033081-.16503906 2.39178467.24169922 3.3227539 5.69689941 13.91534424 11.45135498 27.77337647 17.20578003 41.68865967 2.58950805 6.5281372 5.35165405 12.99902344 7.59588623 19.64172363 2.5319519 7.27264405 4.48846435 14.83154297 6.90533447 22.10412598 2.4168396 6.92901611 5.29406738 13.68621826 7.7109375 20.67254639.35366821.86035156.14376831 1.9343872-.06155396 2.98492431-.0953369.48779297-.18966674.97052002-.22616577 1.42443848-.97827148-.62994385-2.07159423-1.31707764-3.04986572-1.94702148-1.03579712-.7444458-1.95651245-1.77520752-3.10739136-2.1760254-.81890869-.25933837-1.73416137-.25506591-2.66784668-.25067138-.50970459.00238037-1.02490234.00476074-1.53289795-.03564453.97824097.80169678 1.78387452 1.94696045 2.93478394 2.34783935zm27.33355713-17.69476318c-.34527588.91625977-.97824097 1.66070557-1.43859863 2.46240234-4.48846436 4.4093628-8.5741272 8.07427979-12.54467774 12.14007569-1.43341064 1.46966552-1.4897461 1.01428222-1.60446167.0869751-.03726196-.3012085-.08068847-.65222168-.17944336-1.00317383-1.72631836-6.07006836-1.1508789-7.67346192 4.0281372-10.65124512 3.164917-1.88970947 6.27233888-3.83673096 9.49481202-5.5546875.86315918-.51538086 2.1291504-.40081787 3.22250366-.62988281-.28771972 1.0880127-.57543945 2.11877441-.97827148 3.14953613z"/>
      <path fill="rgb(255,255,255)" fill-rule="evenodd" d="M246.67679607 450.8130283c-3.51021078-4.12305048-3.22248859-7.55892587-.2877222-10.42215537.40281108-.40085213.69053328-.80170426 1.09334435-1.1452918-.97825546-.5153813-1.84142205-1.03076261-2.81967752-1.54614392-1.38106654-.74443967-2.6470442-1.54614393-4.02811073-2.34784819 1.43861097-.5153813 3.04985527-1.6606731 4.48846625-1.6606731 5.98462166-.22905837 11.79661002-.22905837 17.78123168 0 1.38106654.11452917 2.76213308 1.31708556 4.08565518 2.17605441-1.26597766.62991049-2.6470442 1.20255639-4.02811074 1.83246688-.11508888.11452918-.2877222-.11452918-.40281107 0-4.77618845 2.06152523-9.49483246 4.12305047-14.15593202 6.2418403-.2877222.11452918-.17263332 2.17605441.40281107 2.74870031 4.48846625 5.44013604 10.07027685 7.9025134 17.09069842 6.47089866.86316658-.22905836 2.76213307.40085213 2.76213307.51538131-.11508887 2.17605442-.40281107 4.18031506-.97825546 6.12731112-.17263332.5153813-2.0715998.40085213-3.10739971.28632295-3.04985528-.22905836-5.98462167-.74443967-8.86184363-.80170426-1.09334434 0-2.24423312.91623344-3.33757746 1.43161475.80562214.80170426 1.43861097 2.17605441 2.41686644 2.46237736 2.76213308.91623344 5.63935503 1.31708557 8.4014881 2.17605442 4.37337738 1.31708557 8.68921032 2.63417114 13.06258769 4.18031506.11508888 0 .17263332 1.83246688-.11508888 1.94699606-1.26597766.5153813-2.76213308 1.20255639-3.91302186.91623344-6.15725499-1.83246688-12.1994211-3.66493376-18.06895388-6.12731112-4.89127733-2.06152524-5.17899952-6.98627997-.80562215-10.13583241.5754444-.51538131 1.15088878-1.03076262 1.84142205-1.54614393-.80562215-.40085213-1.55369985-1.03076262-2.359322-1.43161475-1.84142205-.68717508-3.91302186-1.43161475-6.15725499-2.34784819"/>
      <path fill="rgb(255,255,255)" fill-rule="evenodd" d="M218.36493203 361.7093264c.57544439-3.14955244.80562215-7.959778 2.359322-8.58968848 2.6470442-.91623344 6.27234387.74443967 9.37974358 1.43161475.69053327.11452918 1.15088878 1.1452918 1.78387761 1.7179377-.80562215.22905835-1.43861098.40085212-2.24423313.5153813-.57544439.11452918-1.26597766 0-1.95651093 0-1.84142205.22905836-3.6828441.40085213-5.58181059.51538131 1.15088878 1.94699606 2.24423313 3.89399212 3.51021079 5.61192981 1.66878873 2.23331901 3.22248859 4.69569638 5.35163283 6.35636948 1.78387762 1.2025564 4.31583294 1.1452918 6.44497719 1.83246688 1.43861097.5153813 2.81967751 1.43161475 4.20074405 2.06152524-1.26597766.80170425-2.53195532 1.54614392-3.6828441 2.34784818-3.33757747 2.34784819-7.30814377 4.12305048-9.78255465 7.15807374-3.91302186 4.69569637-2.81967752 7.78798423 2.6470442 9.84950946 4.37337737 1.7179377 8.9769325 2.74870032 13.46539875 4.18031507 1.43861098.5153813 2.76213308 1.31708556 4.08565518 2.06152523.40281107.28632295.69053327.80170426 1.09334434 1.2025564-.46035551.22905835-.97825546.80170425-1.43861098.80170425-8.4014881-.11452918-16.28507627-2.34784819-23.42058672-7.27260292-2.6470442-1.83246688-2.0715998-11.56744716.46035552-14.7742642 4.48846625-5.55466521 4.48846625-5.55466521-.11508888-10.36489077-2.18668869-2.11878982-4.20074406-4.29484424-6.56006606-6.64269242"/>
      <path fill="rgb(255,255,255)" fill-rule="evenodd" d="M260.8327281 401.68001016c-5.2940884 4.58116719-11.10607675 6.98627997-17.4935095 8.41789471-1.55369985.40085213-3.1073997 1.1452918-4.48846625 2.17605442-.97825546.74443967-1.66878873 2.06152524-2.0715998 3.26408162 0 .28632295 1.55369985 1.2025564 2.41686644 1.7179377 6.0421661 3.60766917 12.19942109 6.87175079 19.50756486 6.12731112.97825546-.11452918 1.95651093 0 2.9347664-.11452918 1.66878873-.22905836 3.33757746-.40085213 5.0063662-.74443967-1.55369986 1.66067311-2.9347664 4.0085213-4.77618845 4.81022555-6.0421661 2.3478482-11.73906558-.74443966-17.2057873-2.46237736-3.3951219-1.1452918-6.56006606-3.49313999-9.37974357-5.726459-1.38106654-1.20255638-2.81967752-4.18031505-2.359322-5.44013603 1.38106653-2.8632295 4.02811073-7.50166128 5.86953278-7.3871321 7.88358816.40085213 14.04084315-4.5811672 21.1763536-5.95551735.40281107.05726459.80562215.68717508.86316659 1.31708557"/>
      <path fill="rgb(255,255,255)" fill-rule="evenodd" d="M269.92474948 348.59573532c-.2877222-4.18031507-.5754444-7.9025134-1.09334435-11.45291798 0-.11452918-1.66878873-.40085213-2.0715998 0-2.6470442 2.63417113-5.0063662 5.6119298-7.59586597 8.30336553-1.26597766 1.2025564-2.81967752 2.17605442-4.31583293 3.14955245.40281107-1.83246688.46035551-4.0085213 1.38106654-5.44013604 1.84142205-3.14955245 4.02811073-6.35636948 6.56006606-8.93327603 3.6828441-3.77946293 7.82604371-2.34784818 10.07027684 2.46237737 2.81967752 6.07004653 2.24423313 11.68197634-.97825546 17.29390615-2.6470442 4.81022555-5.06391065 9.73498028-7.88358816 14.43067665-.5754444 1.2025564-2.07159981 1.83246688-3.2224886 2.63417114.17263332-1.6606731 0-3.3786108.5754444-4.69569637 2.70458864-5.78372358 5.7544439-11.51018257 8.57412143-17.75202287"/>
      <path fill="rgb(255,255,255)" fill-rule="evenodd" d="M222.7383094 333.53514817c-3.3951219-6.07004653-6.56006606-11.8537701-9.84009909-17.63749369-6.0421661-10.42215536-12.08433221-20.90157531-18.18404276-31.43825985-.46035551-.74443967-1.15088878-1.54614393-1.38106654-2.46237737-.23017775-.91623344-.11508888-2.06152524-.11508888-3.09228785.80562215.5153813 1.84142206.80170425 2.359322 1.54614392 4.60355514 6.47089866 9.78255466 12.59820978 13.69557652 19.58448975 5.06391064 9.21959897 9.37974357 19.06910844 13.75312095 28.80408872.80562214 1.43161475.4603555 3.49313999.69053327 5.21107768 0 0-.2877222.11452918-.2877222 0-.17263332 0-.2877222-.17179377-.69053327-.5153813"/>
      <path fill="rgb(255,255,255)" fill-rule="evenodd" d="M252.37369555 289.21235559c3.91302186 9.73498028 7.88358815 18.84005008 11.6239767 28.17417823.69053327 1.7179377.17263331 4.0085213 0 6.07004653 0 .91623344-.69053327 1.7179377-1.09334435 2.63417114-.57544439-.91623344-1.43861097-1.66067311-1.7838776-2.63417114-4.02811075-13.91529535-9.20711027-27.31520938-16.40016516-39.85615457-.86316658-1.43161475-.57544439-3.60766917-.86316658-5.44013604 1.38106653.91623344 3.04985527 1.54614392 3.91302186 2.8632295 1.72633317 2.34784818 3.1073997 5.0965485 4.60355513 8.18883635"/>
      <path fill="rgb(255,255,255)" fill-rule="evenodd" d="M299.21486899 421.3217645c-.5754444-.11452919-1.15088879-.22905836-1.84142206-.40085213.86316659-.51538131 1.66878874-1.54614393 2.53195532-1.54614393 8.40148812 0 11.6239767 5.72645899 8.57412143 14.31614747-2.81967751 7.90251341-9.55237689 10.88027209-15.42190968 14.83152879-.69053327.5153813-2.359322-.74443967-3.62529966-1.1452918.57544439-.91623344.97825546-2.06152524 1.66878873-2.74870031 4.37337737-4.5811672 11.3362545-6.64269243 13.00504324-14.02982453.40281107-2.06152524.40281107-4.12305047.5754444-6.12731112-1.55369986.91623344-3.10739972 1.7179377-4.66109958 2.63417113-.46035551.28632295-.86316658.80170426-1.38106654 1.2025564.11508888-.74443968.17263332-1.43161475.17263332-2.17605442.17263332-1.43161475.2877222-2.97775868.69053327-4.5811672.17263332-.62991048.17263332-.91623343.2877222-1.20255638-.17263332.34358754-.34526664.68717508-.5754444.97349802"/>
      <path fill="rgb(255,255,255)" fill-rule="evenodd" d="M293.17270288 490.95550582c.80562215.80170426 1.15088878 1.94699605 1.95651093 2.233319 8.6892103 4.12305048 7.99867704 12.19735765 7.99867704 20.09987106 0 .74443967-.40281108 1.54614393-.5754444 2.233319-.80562214-.5153813-2.0715998-.80170425-2.24423312-1.54614392-.80562215-3.14955245-2.24423313-6.64269243-1.84142205-9.73498029.80562214-6.64269242-3.6828441-7.9025134-7.71095484-9.10506979-7.30814377-2.17605442-14.8464653-3.49313998-22.26969794-5.32560686-1.26597766-.28632295-2.24423313-1.54614393-3.39512191-2.46237737 1.09334434-.11452918 2.12914425-.62991049 3.10739971-.5153813 6.44497718 1.1452918 12.77486549 2.233319 19.16229823 3.3786108 1.78387761.34358754 3.6828441.5726459 5.81198835.74443967"/>
      <path fill="rgb(255,255,255)" fill-rule="evenodd" d="M230.85207532 329.12577475c.57544439-2.17605442.80562214-4.18031506 1.84142205-5.21107768 1.09334434-1.1452918 3.10739971-1.31708557 4.66109957-1.94699606-.2877222 1.2025564-.2877222 2.57690655-.8631666 3.66493376-4.08565517 8.18883635-1.26597765 15.69049763 1.95651094 23.2494235.17263332.5153813.69053327.91623344.97825546 1.43161475-.2877222.11452917-.57544439.28632294-.86316658.28632294-5.2940884-.74443966-10.76081012 3.49313999-15.93980964-.91623343-.46035551-.40085213-1.09334434-.80170426-1.55369985-1.2025564.57544439-.28632294 1.15088878-.62991048 1.84142205-.91623343.2877222-.11452918.57544439 0 .97825546 0 3.2224886-.22905836 6.44497718-.40085213 9.78255465-.62991049-1.15088878-2.8632295-2.76213307-5.72645899-3.22248859-8.70421766-.46035551-2.74870032.23017776-5.726459.40281108-9.1050698"/>
      <path fill="rgb(255,255,255)" fill-rule="evenodd" d="M208.40974406 355.75380906c-.40281107 5.95551735 0 11.2811242 2.24423313 16.26314353.40281107.91623344.17263331 2.06152523.2877222 3.09228785-.97825547-.28632295-2.41686645-.28632295-2.9347664-1.03076262-1.38106654-2.17605441-3.10739972-4.58116719-3.33757747-7.04354455-.5754444-4.81022556-.46035551-9.73498029-.11508888-14.54520584.17263332-1.7179377 1.95651093-3.26408162 2.9347664-4.92475473.57544439 1.6606731 1.38106653 3.3786108 1.7838776 5.0965485.23017776.74443967-.57544438 1.6606731-.86316658 3.09228786"/>
      <path fill="rgb(255,255,255)" fill-rule="evenodd" d="M217.21404325 294.30890409c4.02811073 7.78798423 8.11376591 15.06058714 12.02678777 22.44771924.2877222.6299105-.2877222 1.83246688-.40281107 2.74870032-.46035552-.51538131-.97825547-1.03076262-1.38106654-1.66067311-5.8695328-9.90677405-11.73906558-19.75628352-17.4935095-29.72032216-.57544438-.91623344-.69053326-2.06152524-.97825546-3.09228785.86316659.62991048 1.95651093 1.1452918 2.6470442 1.94699605 1.95651093 2.233319 3.6828441 4.5811672 5.5818106 7.32986751"/>
      <path fill="rgb(255,255,255)" fill-rule="evenodd" d="M257.8979617 328.95398098c-.97825546-.22905836-2.24423313-.40085213-2.53195532-1.1452918-4.60355513-8.81874684-8.9769325-17.63749369-13.35030988-26.39897594-.57544439-1.20255639-.69053327-2.57690655-.97825546-3.89399212 1.15088878.80170426 2.76213308 1.2025564 3.33757747 2.34784819 4.66109957 9.50592192 9.2646547 19.12637303 13.52294319 29.09041167"/>
      <path fill="rgb(255,255,255)" fill-rule="evenodd" d="M247.07960715 384.67242696c-.2877222-.17179377-.69053327-.28632295-1.15088879-.40085213-.51789995.22905836-1.15088878.34358754-1.84142205.34358754-.80562215 0-1.49615541-.17179377-2.0715998-.45811672-3.45266635.28632295-7.36568821 1.25982098-8.2288548 2.34784818-.11508888.11452918 0 .28632295.17263332.80170426 1.26597766.51538131 2.24423312 1.1452918 3.33757747 1.20255639 5.06391064.40085213 10.35799904.5153813 13.46539875 6.07004653.2877222.40085213.86316659.5153813 1.38106654.80170426.11508888-.51538131.17263332-.91623344.17263332-1.43161475.23017775-4.29484424-2.01405537-7.15807374-5.23654396-9.27686356z"/>
      <path fill="rgb(255,255,255)" fill-rule="evenodd" d="M241.78551875 325.34631182c2.53195532.28632295 5.86953279.22905836 6.84778825 1.7179377 2.12914425 3.49313998 3.2224886 7.78798422 4.60355513 11.79650551.17263332.6299105-.80562215 1.66067311-1.26597766 2.46237737-.57544439-.5153813-1.26597766-.91623344-1.66878873-1.6606731-2.9347664-4.69569638-5.8695328-9.39139275-8.516577-14.31614748"/>
      <path fill="rgb(255,255,255)" fill-rule="evenodd" d="M233.67175283 310.91563516c-1.84142205-9.0478052-6.15725498-16.4349373-11.56643226-23.13489432-.46035551-.74443967-1.43861098-1.1452918-2.359322-1.43161475-.69053327-.22905836-1.43861098 0-2.24423313 0 .40281107.6299105.80562215 1.2025564 1.09334434 1.7179377 3.79793299 6.07004653 7.53832153 12.08282847 11.33625451 18.03834582 1.15088878 1.77520229 2.359322 3.3786108 3.51021079 4.92475473.05754444-.05726459.11508887-.05726459.23017775-.11452918z"/>
      <path fill="rgb(255,255,255)" fill-rule="evenodd" d="M281.66381506 369.0964585c.97825546.40085213 1.95651092 1.1452918 1.84142205 1.2025564-2.81967752 5.32560685-5.75444391 10.42215535-8.80429919 15.69049762-.11508888.11452918-1.78387761-.5153813-1.78387761-.62991048.40281107-2.63417114.17263332-5.726459 1.43861098-7.959778 1.84142205-3.09228786 4.54601069-5.55466522 7.30814377-8.30336554"/>
      <path fill="rgb(255,255,255)" fill-rule="evenodd" d="M265.03347215 417.02692025c-2.24423312.74443967-4.48846625 1.20255639-6.73269938 1.6606731-.97825546.11452919-2.12914424.51538132-2.9347664.11452919-2.0715998-1.03076262-4.02811073-2.46237737-5.98462166-3.66493375 1.95651093 0 3.91302186.11452918 5.8695328.11452918h1.95651092c.86316659-.11452918 1.84142205-.22905836 2.76213308-.28632295-.69053327-.80170426-1.26597766-1.7179377-2.07159981-2.57690655-.80562215-.80170426-1.78387761-1.54614393-2.6470442-2.34784819.40281107-.28632295.97825547-.91623343 1.26597766-.80170425 1.43861098.22905835 3.33757747.28632294 4.31583294 1.31708556 1.66878873 1.66067311 2.81967751 4.0085213 4.20074405 6.47089866"/>
      <path fill="rgb(255,255,255)" fill-rule="evenodd" d="M237.69986357 300.4934798c1.55369986 3.89399211 3.2224886 7.27260292 4.66109957 10.65121372.2877222.62991049 0 1.6606731 0 2.34784819-.5754444-.40085213-1.43861098-.74443967-1.78387761-1.2025564-3.79793299-7.38713209-7.53832153-14.659735-11.22116563-22.1041317-.40281107-.74443966-.17263332-1.71793769-.2877222-2.63417113.69053327.51538131 1.66878874.91623344 2.07159981 1.6606731 2.24423313 3.49314 4.43092181 7.04354457 6.56006606 11.28112422"/>
      <path fill="rgb(255,255,255)" fill-rule="evenodd" d="M274.8160268 451.04208665c1.26597766.80170426 2.12914425 1.66067311 2.81967752 2.57690655.80562214.91623344 1.38106654 2.06152524 2.0715998 3.09228785-1.43861097-.11452917-3.04985527.11452918-4.31583293-.5153813-1.43861098-.74443967-3.3951219-1.83246688-3.91302186-3.14955245-1.26597766-3.60766916-4.02811074-4.69569637-6.73269937-6.12731112-1.09334435-.5153813-1.78387762-2.06152524-2.6470442-3.14955244 1.26597766.22905836 2.76213307 0 3.6828441.62991049 2.99231083 1.88973146 5.69689947 4.35210883 9.03447694 6.64269242"/>
      <path fill="rgb(255,255,255)" fill-rule="evenodd" d="M293.6330584 425.73113792c.28772219 4.5239026-1.09334435 7.959778-4.31583294 10.53668454-.5754444.40085213-1.15088878.74443967-1.78387762 1.03076262-.2877222-.6299105-.86316658-1.31708557-1.09334434-2.06152524-.57544439-2.8632295 4.37337737-10.7657429 7.30814377-11.8537701.11508888.68717507.11508888 1.31708556-.11508888 2.34784818"/>
      <path fill="rgb(255,255,255)" fill-rule="evenodd" d="M241.78551875 361.7093264c.17263332 1.2025564.17263332 2.23331901.11508888 3.26408163-3.2224886-.40085213-6.44497718-.62991049-9.66746578-1.20255639-.4603555 0-1.38106653-1.31708557-1.26597766-1.7179377.2877222-.74443966 1.26597766-1.54614392 1.84142206-1.54614392 2.9347664.05726459 5.86953279.5726459 8.9769325 1.20255639"/>
      <path fill="rgb(255,255,255)" fill-rule="evenodd" d="M262.09870576 354.78031103c-1.43861098.62991049-2.53195533 1.31708557-3.51021079 1.94699605.40281107-1.03076261.69053327-2.17605441 1.26597766-3.14955244 1.43861098-2.233319 2.9347664-4.5239026 4.48846625-6.64269243.5754444-.91623344 1.43861098-1.54614393 2.24423313-2.233319-.11508888 1.03076261.11508887 2.233319-.2877222 3.09228785-1.0357999 2.34784819-2.41686644 4.5811672-4.20074405 6.98627997"/>
      <path fill="rgb(255,255,255)" fill-rule="evenodd" d="M240.63462997 338.34537373c.69053326-.80170426 1.26597766-1.1452918 1.95651093-1.43161475.97825546 3.26408162 2.0715998 6.52816325 2.81967751 9.90677405.17263332.40085213-.57544439 1.1452918-.86316658 1.7179377-.40281108-.6299105-.8631666-1.1452918-1.15088879-1.7179377-.97825546-2.63417113-1.89896649-5.26834227-2.76213307-8.4751593"/>
      <path fill="rgb(255,255,255)" fill-rule="evenodd" d="M280.45538183 480.53335045c-2.6470442-.11452918-4.89127732-.40085212-7.25059932-.80170425-.46035552-.11452918-.97825547-.51538131-1.38106654-.91623344 0-.11452918.4603555-1.1452918.57544439-1.03076262 2.87722195.40085213 6.44497718-1.54614393 8.05622147 2.74870031"/>
      <path fill="rgb(255,255,255)" fill-rule="evenodd" d="M283.62032598 480.70514422c0 .28632295-.4603555.74443967-.97825546 1.03076262-.17263332 0-.46035551-.5153813-.80562215-.74443967.40281108-.05726459.86316659-.17179377 1.78387761-.28632295"/>
      <path fill="rgb(255,255,255)" fill-rule="evenodd" d="M265.03347215 417.54230156c.2877222-.11452918.5754444.11452918.86316659.28632295-.2877222-.11452918-.5754444-.11452918-.86316659-.28632295"/>
    </g>
    <g class="carrots" transform="rotate(-12.000004 137.71977907 249.82715727)">
      <path fill="rgb(255,255,255)" fill-opacity=".3" fill-rule="evenodd" d="M95.58815529 179.0503188c-.19395447-1.1269226-.3872223-2.24990844-.52796936-3.35855102-.17227173.1604309-.34236146.32357788-.50978089.48416138-1.65927124 1.59158325-3.05560303 2.93093872-3.70323181-1.13247681-.32408142-2.65811157-.90740967-5.44589233-1.10185242-8.1040039-1.10186767-12.05874634-2.13891601-24.24716187-3.4352417-36.3059082-.19444275-3.04711915-1.23149109-5.89971925-2.20372009-8.8171692-.32408142-.84280395-1.62039184-1.16696167-2.52780151-1.75045776-.19444275.77798462-.64816284 1.68563843-.64816284 2.52844238.32408142 3.37127686.64816284 6.7425232 1.10186767 9.98413086 1.55557251 10.11380005 3.30558777 20.16275024 4.86116028 30.2765503 1.4259491 8.5578308 2.72225952 17.18048095 3.8241272 25.73831176.19444275 1.36148071-1.29631043 4.27890015-1.4259491 4.27890015-3.4361267-1.03109742-5.5453949.99713134-7.63926697 3.01052856-1.46081543 1.4046936-2.9141388 2.80215454-4.8053131 3.14852905-1.4259491.19448853-2.3981781 2.3987732-3.6296692 3.56573487.49220276 0 1.01974488.06359863 1.55227661.12780761 1.08036805.13027955 2.1813202.26303101 3.04962159-.12780761 9.65751648-3.56573487 19.1205902-4.08441162 27.80586242 2.20428467 2.20373535 1.4911499 4.4074707 4.53826904 4.73153687 7.06671142.972229 7.7798462.84260559 15.62451172 1.29632568 23.40435791.06811524.9992981.1919098 2.00656128.31565857 3.01342774.22949219 1.86727905.45881653 3.73318481.33248901 5.54437255-.32408142 4.40856934-1.62039184 8.8171692-1.62039184 13.22573853.04985046 5.08685303.24353027 10.17370605.43721008 15.26055908.30989075 8.1388855.6197815 16.27774048.34057617 24.41662598-.32406616 8.36331177-2.59262085 16.59701538-4.14819336 24.96032715-.972229 4.73272705-2.98150634 9.40063476-3.17596435 14.263031-.51852417 13.54986572-6.28710938 25.41412354-10.43530274 37.7970581-1.3611145 3.82507325-4.99078369 6.74255372-5.96302795 10.69726563-3.56484985 12.96643067-8.29638672 23.987854-23.00952148 25.86798096-4.86116028.5834961-6.80563355-.45379639-6.93525696-5.44586182-.12963867-1.75048828-.45370484-3.5657959-.64816284-5.44592285-2.00927735-15.55969238-4.99079895-31.11938476-5.63894654-46.74389648-.34233093-7.789917.64311219-15.60806275 1.6321106-23.4544983.50904846-4.03860473 1.0190277-8.08465576 1.34939575-12.1382141.90742493-10.6324463 1.4259491-21.32974244 2.20373535-32.09185792.32408142-5.18658447.45370484-10.50280761 1.2314911-15.62451171 1.5555725-11.02142334 3.30560302-22.0428772 5.50932311-32.93466187 1.68521118-8.1040039 4.27783203-15.94866943 6.28710938-23.85818481.51852417-2.59326172.45370483-5.2513733.64816284-7.7798462-1.62039185 1.75048829-3.8241272 3.24160767-4.92599488 5.44589234-5.70376586 11.47528076-6.5463562 24.24716186-8.5556488 36.75976562-1.68519592 9.85446167-2.33335876 19.83859253-3.43522644 29.8227234-1.8148346 16.92114257-4.3426361 33.84228515-5.25004578 50.89312743-.05476379.9861145-.11036682 1.97225953-.16595459 2.95837403-.93125915 16.51849365-1.8625183 33.03704834 1.07336426 49.55554199.32408142 1.75042725.19444275 3.69537353.64816284 5.44586182 1.2314911 6.61291504 2.85188294 13.225708 3.6296692 19.83862304.64814758 6.74255371 2.3981781 9.40063477 8.5556488 10.30822754 2.07409668.32421875 4.14819336.5834961 6.1574707 1.16699219 1.00141907.33392334 2.0466919.92224121 3.06806946 1.49713135 1.75512695.987854 3.43965149 1.93597412 4.70979309 1.48516845 2.33337402-.84277343 3.75930786-4.538208 5.18525696-7.3260498 4.40745544-8.23364258 9.59269714-16.20800781 12.8982849-25.02514648 4.99079896-13.22570801 12.31495667-24.57128907 21.90766908-34.42578125 7.77786255-7.9743042 16.00942993-15.49481202 24.17617798-23.40435791 1.23150634-1.16696167 2.33337402-2.7229004 3.4352417-4.08441163-2.00927735.32415772-4.08337403.32415772-5.96304322 1.037323-1.42593384.4538269-2.52780151 1.88012696-3.8241272 2.78778076-9.9167633 7.52050782-19.05575561 15.88381958-24.43544006 27.94259644-.4537201.9076538-2.0092926 1.3614502-3.11116028 1.94494629-.04528808-.45300293-.13804626-.91394043-.23129272-1.3772583-.17362976-.86279297-.34892273-1.73382569-.22241211-2.57745362 1.94447327-8.2337036 4.14819336-16.33770752 6.02786255-24.5713501 2.98150634-12.96643066 4.40744018-26.32180785 4.53707885-39.74200439 0-10.30828857.90740967-20.55175781.90740967-30.86004638.07687378-4.72894288-.2109375-9.48065186-.49850464-14.2281189-.19735717-3.2581482-.39457702-6.51431275-.47372436-9.7597351-.04780579-2.39111329.02781677-4.79101563.103302-7.18676759.12919617-4.1000061.2579956-8.18774414-.23294067-12.19799804-1.23147583-8.62265015-1.87963867-18.02328492-13.54644776-19.38476563-4.01855468-.51864624-7.1296997-3.7602539-6.35191345-9.53030395.47221375-2.88128662-.05329895-5.93466187-.57389831-8.9595337zM75.42107155 410.38360129c-.58334351 1.75048828-1.03704834 3.56573486-1.55557251 5.31622314-1.36112977-1.29663086-2.13891602-2.91741943-1.62039185-3.82507324.32408142-.77801514 2.07409668-1.03735352 3.17596436-1.4911499z"/>
      <path fill="rgb(255,255,255)" fill-opacity=".3" fill-rule="evenodd" d="M96.42130043 136.72771749c-.45370484 12.96643066-.77778626 25.99761963-.77778626 38.96405029.59893799-.0637207 1.21292114-.06732178 1.82124329-.07086182 2.48570251-.01452636 4.87695312-.0284729 5.76217651-4.1432495 2.59262085-14.8464966 6.22229004-29.43371583 8.5556488-44.28024293 3.04634095-19.51443481 6.0278473-39.09368896 7.5834198-58.67295837.79878235-10.08714295.17477418-20.2512207-.45030212-30.4329834-.1864624-3.03712463-.37301636-6.07583618-.52192688-9.11453247-.25926208-4.14924622-1.75001526-8.42816162-2.9815216-12.51257324-.32406617-1.16697693-1.55557251-1.88012696-2.33335877-2.78778077-.09286499.30963135-.20050049.62294007-.30882263.9382019-.34526062 1.00495912-.69726563 2.02954102-.59858704 3.0165558.8426056 7.650177 2.65744019 15.300354 2.85188294 23.08018493.51852417 20.22758484-.12963867 40.52000427-3.11114502 60.55308533-2.20373535 14.263031-3.69448853 28.52609253-5.70376587 42.78912353-.4537201 3.56576538-1.55557251 7.06668091-2.52781677 10.43795777-.45370484 1.3614502-1.55557251 2.3988037-2.33335877 3.69543457-.02796936-.64334107-.15245056-1.27459717-.27453613-1.89379883-.1609192-.81600952-.31768799-1.61105347-.24398804-2.38513184 1.10186768-15.68933105 2.20373535-31.1842041 3.11114502-46.74386596-1.23149109-.90765381-2.85188293-1.62078858-2.98150635-2.65811158-.97224426-6.28869628-1.87965393-12.38290405-2.20373535-18.67163085-.972229-16.01348877-7.25933838-30.60069275-10.56492615-45.90104676-.32408142-1.16697693-1.10186767-2.33395386-1.62039184-3.50093078-.77778626 1.55596923-1.68521118 3.04710388-2.20373535 4.53823852-.19444275.9724884-.19444275 2.00979614 0 2.91744995 2.85188293 10.1137848 6.67601013 20.09791565 8.5556488 30.40620423 2.33337402 12.57740783 3.62968445 25.2844696 4.4074707 38.05638122.3506775 5.52456665-.03977966 11.01947022-.42955017 16.50479126-.18656921 2.62548828-.37297058 5.24874878-.47787475 7.8720398zm2.46299743 32.93466186c-.12963867-1.29663086-.19444275-2.52844238-.32408142-3.82507324.32408142.32415771.77778626 1.94494629 1.10186768 3.50091553 0 .06484985-.5833435.19451904-.77778626.32415771z"/>
      <path fill="rgb(255,255,255)" fill-opacity=".3" fill-rule="evenodd" d="M163.24613641 329.92709941c1.7500198 3.37126413 2.52780636 7.65017629 5.05561272 9.98412838 5.18524382 4.86240018 4.0833795 9.98412837 2.33335972 15.55968058-5.8333993 17.76396866-12.12050742 34.8796173-21.97247067 50.7634579-6.35192367 10.17862438-12.6390318 20.55174477-19.76874205 30.01721712-8.03712791 10.5676164-17.04648904 20.29241676-26.70400565 29.2392331-7.0648947 6.48320024-15.4909159 11.34560042-23.787306 16.2080006-7.25934135 4.27891216-12.18532297-2.20428808-17.62982898-5.70521621-7.58341908-4.73273618-9.13899223-9.85446437-5.25005936-17.76396867.32407773-.71315202.90741766-1.29664004 1.29631095-1.94496007.32407774.90764804.97223322 1.75046407 1.10186431 2.6581121.45370883 3.56576013-.51852438 8.55782432 1.42594205 10.4379524 4.0833795 3.82508814 9.46306996 6.28870423 14.51868268 8.68748832 1.23149541.58348802 3.62967068-.71315203 5.18524382-1.88012807 4.40745724-3.24160012 8.6852834-6.74252826 12.96310954-10.17862438.77778657-.58348803 1.55557315-1.16697605 2.20372862-1.88012807-.77778657-.58348803-1.55557314-1.16697605-2.39817526-1.75046407-2.52780636-1.49113606-5.05561272-2.9174401-7.45378799-4.53824017-.77778657-.58348802-1.1018643-1.88012807-1.62038869-2.7877761 1.2314954-.45382402 2.65743746-1.36147206 3.43522403-1.03731204 2.722253 1.36147205 5.8333993 2.6581121 7.77786572 4.99206418 3.17596184 3.82508815 5.50932156 2.98227212 8.16675901 0 7.38897244-8.55782432 14.64831378-17.24531264 22.10210177-25.60864095 9.26862332-10.17862439 17.04648904-21.3297288 22.87988834-34.10163328 5.18524381-11.34560043 10.56493427-22.82086485 15.4909159-34.29612928 1.75001978-4.08441616 3.11114629-8.36332832 4.27782614-12.64224048 1.29631096-5.12172819-2.20372862-12.05875245-6.61118586-15.04102456-3.62967067-2.4636161-6.9352636-5.5755522-10.24085654-8.49299232-.90741767-.71315202-1.2314954-2.07462408-1.75001979-3.11193611 1.10186432-.25932801 2.33335972-.71315203 3.17596184-.32416002 3.75930177 1.36147205 7.64823463 2.98227211 11.79642968 4.53824017"/>
      <path fill="rgb(255,255,255)" fill-opacity=".3" fill-rule="evenodd" d="M174.26477952 258.02840872c.97223322 2.7877761 1.6203887 5.57555221 2.39817527 8.36332832.19444664.90764803.51852438 1.88012807.90741766 2.9174401 1.23149541-1.16697604 3.1111463-2.20428808 3.43522403-3.56576013 1.6203887-9.14131234 4.40745725-18.41228869 4.0833795-27.61843303-.32407773-8.55782432 2.65743746-17.24531265-.45370883-26.06246498-.90741766-2.46361609 1.6203887-6.02937622 2.07409753-9.27097635.51852438-3.50092813.51852438-7.19635226 1.10186431-10.7621124.19444664-1.94496007 1.2314954-3.82508814 2.00928198-5.77004821.77778657 1.36147205 1.55557314 2.9174401 2.33335972 4.27891216.51852438 1.16697604.64815547 2.5284481 1.42594205 3.50092813 1.55557314 1.88012807 4.60190388 3.24160012 4.92598162 5.1865602.64815548 4.86240017.19444665 9.98412837.19444665 14.97619255 0 .32416001-.64815548.71315203-.97223322 1.03731204-.45370883-.71315203-.97223322-1.29664005-1.2314954-1.94496007-.77778658-3.95475215-1.29631096-7.9095043-2.33335972-11.73459244-.19444665-1.03731204-1.55557315-1.75046407-2.33335972-2.5284481-.32407774.90764804-.51852438 1.94496008-.90741767 2.91744011-2.20372862 7.52051228-.45370883 14.84652856.90741767 22.36704084.45370883 1.88012807-1.6203887 4.27891216-1.87965088 6.48320024-1.55557315 14.13337653-4.6019039 27.68326504-8.49083675 41.36281755-2.9815152 10.4379524-5.18524382 20.61657677-9.7871477 30.60070515-3.50003958 7.39084827-4.08337951 16.2080006-6.02784594 24.44166491-.32407774 1.03731204-1.10186431 1.88012807-1.87965089 2.7877761-2.8518841-5.5755522-1.87965088-10.7621124.1296311-16.3376646 2.20372862-6.02937623 2.65743746-12.05875246 1.2314954-18.99577672-1.62038869-7.9095043-.51852438-16.3376646-.51852438-24.70099292 0-.45382402.90741767-1.36147205 1.10186432-1.29664005.64815547.129664 1.29631095.58348802 1.75001978 1.16697604 2.00928198 3.11193612 3.95374841 6.28870424 5.9630304 9.40064036.32407773.58348802.51852437 1.16697604.90741766 1.75046406-.64815548 0-1.42594205.129664-1.87965088-.129664-3.43522403-2.4636161-4.14819506 1.16697604-4.40745725 2.7877761-.45370883 4.08441615-.19444664 8.2336643 0 12.38291246 0 .90764804.97223322 1.75046407 1.55557315 2.6581121.51852438-.71315202 1.29631095-1.36147205 1.62038869-2.20428808 1.87965088-6.48320024 4.14819505-12.96640048 5.25005936-19.57926473.45370884-2.98227211-1.62038869-6.48320024-2.65743745-9.59513636-.90741767-2.7877761-2.07409753-5.4458882-2.52780636-8.1040003-.64815548-4.40857617 2.00928198 0 2.9815152-1.16697605"/>
      <path fill="rgb(255,255,255)" fill-opacity=".3" fill-rule="evenodd" d="M200.90396963 223.21362342c1.2314954-3.69542414 2.00928198-7.19635227 3.62967067-9.98412837 1.6203887-2.98227212 3.82411731-6.02937623 6.48155477-7.9743363 3.9537484-3.11193612 8.49083675-5.4458882 12.89829399-7.9095043 1.2314954-.58348802 2.8518841-.259328 4.40745724-.32416001-.64815547 1.16697604-1.1018643 2.9174401-2.07409752 3.50092813-10.24085654 6.28870424-9.7871477 19.83859274-17.37056679 27.81292904-.19444664.25932801 0 1.49113606.45370884 1.88012807.45370883.38899202 1.29631095.32416001 1.87965088.129664 1.87965088-.71315202 3.75930177-1.88012806 5.63895265-2.33395208 1.2314954-.32416001 2.65743746.45382402 3.95374841.71315203-.97223321.90764803-1.75001979 1.94496007-2.8518841 2.6581121-2.39817526 1.62080006-5.05561272 2.9822721-7.45378798 4.53824016-9.98159435 6.48320025-13.09274064 17.95846468-18.14835336 27.94259305-1.87965088 3.50092813-2.8518841 7.19635227-4.40745724 10.7621124-.45370884 1.16697605-1.2314954 1.94496008-1.87965089 2.98227211-.19444664-1.29664004-.77778657-2.7877761-.32407773-3.82508814 2.52780636-7.19635227 4.92598162-14.52236854 8.166759-21.3297288 2.9815152-6.35353623 7.12971025-11.92908844 10.37048764-18.21779268 4.0833795-8.1040003 7.77786572-16.59699262 11.66679858-24.96032093.19444665-.71315203-.1296311-1.49113606-.1296311-2.33395209-.9722332.32416001-2.39817526.25932801-2.8518841.90764803-2.65743745 4.08441616-5.05561271 8.23366431-7.45378798 12.38291247-.90741766 1.49113605-1.29631095 3.37126412-2.39817526 4.73273617-.64815548.90764804-2.00928198 1.49113606-2.9815152 2.3339521.06481555-1.16697605.45370884-2.3339521.77778658-4.08441616"/>
      <path fill="rgb(255,255,255)" fill-opacity=".3" fill-rule="evenodd" d="M131.55133359 139.7748363c-2.39817527 4.73273617-5.18524382 8.68748832-7.38897244 12.96640048-6.02784594 12.18841646-11.86124523 24.57132892-18.01872226 36.75974538-.64815548 1.49113605-2.39817527 2.46361609-3.62967067 3.56576013-.19444664-1.62080006-.51852438-3.24160012-.64815548-4.86240018-.19444664-3.24160012 1.10186431-5.1865602 3.17596184-7.9095043 3.17596184-4.08441615 3.9537484-10.11379238 5.63895265-15.43001657 1.75001979-5.89971223 3.30559293-12.05875246 4.86116608-18.08812868.64815547-2.6581121 2.00928197-5.3162242 1.87965088-7.9095043-.45370883-7.77984029 7.71305018-8.94681633 9.7871477-14.58720054.1296311-.32416002 1.6203887 0 2.52780636.129664-.19444664.84281603-.32407774 1.75046407-.77778657 2.4636161-1.6203887 2.52844809-3.82411731 4.86240018-4.92598163 7.52051228-3.82411731 9.59513635-7.38897243 19.25510472-10.889012 28.85024107-.19444665.84281604 0 1.88012808 0 2.7877761.64815547-.71315202 1.55557314-1.16697603 2.00928197-1.88012806 5.05561272-9.40064035 9.98159435-18.8012807 15.03720707-28.20192106.90741766-1.49113605 2.33335971-2.6581121 3.50003957-3.95475214-.32407774 1.94496007-.64815548 3.82508814-.97223321 5.77004821-.1296311.58348802-.77778658.90764804-1.16667986 2.00979208"/>
      <path fill="rgb(255,255,255)" fill-opacity=".3" fill-rule="evenodd" d="M150.28302687 72.47921778c5.05561272-2.5284481 6.80563251-.45382402 6.48155477 4.14924815-.19444664 3.69542414-.32407774 7.52051228-1.62038869 10.7621124-3.50003958 8.55782433-7.25934134 17.05081664-11.66679859 25.02515294-1.87965088 3.24160012-5.50932155 5.3162242-8.36120565 7.7798403-.1296311.129664-1.29631095-.90764804-1.2314954-1.16697605 1.29631095-3.37126413 2.8518841-6.87219226 4.40745724-10.17862438 1.10186431-2.4636161 2.07409753-4.86240018 3.17596184-7.32601627.64815547-1.36147206 1.29631095-2.91744011 2.33335971-4.14924816 2.722253-3.50092813 5.63895265-6.74252825 8.49083675-10.17862438.51852438-.84281603.77778657-1.88012807 1.10186431-2.7877761-1.1018643-.12966401-2.07409752-.45382402-3.17596183-.25932802-.97223322.12966401-1.7500198.84281604-2.722253 1.16697605-1.42594206.45382402-2.8518841.71315203-4.14819506 1.16697604.90741767-1.36147205 1.55557314-2.9174401 2.65743745-4.08441615.97223322-1.03731204 2.33335972-1.62080006 3.43522403-2.5284481.90741767-.84281603 1.7500198-1.88012807 2.52780636-2.9174401-1.42594205-.25932801-2.9815152-.71315203-4.40745724-.84281604-.51852438-.129664-1.2314954.71315203-1.87965088.90764804-1.23149541.32416001-2.52780636.58348802-3.75930177.90764803.64815548-1.03731204 1.29631095-1.94496007 2.07409753-2.9174401.90741766-1.03731205 2.00928197-1.88012808 2.65743745-2.91744012.90741767-1.29664004 1.42594205-2.9174401 2.00928198-4.27891216.32407774 1.68563207.64815548 3.17676812 1.6203887 4.66790418"/>
      <path fill="rgb(255,255,255)" fill-opacity=".3" fill-rule="evenodd" d="M104.3936191 107.29400308c0-7.77984029.51852438-15.55968058.77778657-23.20985687.1296311-7.65017628 0-15.17068857-.19444664-22.75603285 0-.58348802-1.2314954-1.03731204-1.42594205-1.62080006-2.20372862-6.61286425-4.53708834-13.09606449-6.48155477-19.70892874-.32407774-.90764803.45370884-2.07462408.77778657-3.24160012.51852439.58348802 1.42594205.90764804 1.87965089 1.49113606 1.2314954 1.94496007 2.722253 3.95475215 3.17596183 6.15904023 1.10186432 5.12172819 2.20372863 9.98412837 6.48155477 13.3553925 1.87965089 1.62080006 2.39817527 2.9822721-.97223321 3.24160012-.77778657.129664-2.20372862 2.33395209-2.00928198 3.11193612 3.82411731 13.09606449 1.87965088 26.19212898-.1296311 39.15852946-.19444664 1.42630405-1.1018643 2.7229441-1.87965088 4.01958415"/>
      <path fill="rgb(255,255,255)" fill-opacity=".3" fill-rule="evenodd" d="M179.19076115 325.58335525c1.55557314-2.7877761 6.02784593-3.69542414 3.30559293-8.1040003-.19444664-.45382402 2.9815152-3.50092813 4.92598163-4.99206419 2.33335971-1.75046407 5.18524381-2.9174401 7.38897243-4.73273618 1.29631096-1.16697604 5.50932156-2.9174401.51852438-5.1865602-.32407773-.129664-.45370883-1.62080005-.1296311-1.94496006 1.23149542-1.03731204 2.72225301-1.94496008 4.08337951-2.98227212-.1296311.84281604-.51852438 1.75046407-.32407773 2.4636161 2.722253 7.39084827-1.6203887 11.15110441-6.48155477 15.30035257-4.53708834 3.69542414-7.77786573 8.81715233-11.86124523 13.2257285-1.87965089 2.07462407-4.14819506 4.08441615-6.48155477 5.7052162-.90741767.58348803-2.52780636.12966401-3.75930177.12966401.45370883-1.49113605.45370883-3.50092813 1.42594205-4.27891216 2.13891307-1.94496007 4.66671943-2.9822721 7.38897244-4.60307217"/>
      <path fill="rgb(255,255,255)" fill-opacity=".3" fill-rule="evenodd" d="M174.7833039 258.02840872c-1.87965088-1.36147205-3.62967067-2.6581121-4.92598162-4.40857616-2.33335972-2.91744011-4.27782615-6.15904023-6.35192368-9.27097635 1.10186431-.259328 2.65743746-1.29664005 3.1111463-.84281603 2.07409752 1.94496007 3.8241173 4.40857616 5.7037682 6.74252825.77778656.84281603 1.42594204 1.75046407 2.20372861 2.5284481.45370884-1.36147206 1.42594205-2.98227212 1.2314954-4.40857617-.90741766-8.49299232-2.07409752-16.92115263-3.11114628-25.41414495-.1296311-.90764803.64815548-1.88012807.90741767-2.7877761.64815547.32416 1.42594205.71315202 2.00928198 1.16697604 1.29631095 1.29664005 2.722253 2.6581121 3.82411731 4.14924815.32407774.45382402.19444664 2.20428809.1296311 2.20428809-6.02784594.90764803-2.20372863 4.53824017-1.6203887 6.93702426 1.87965089 8.1688323 1.87965089 16.0783366-3.11114629 23.40435287"/>
      <path fill="rgb(255,255,255)" fill-opacity=".3" fill-rule="evenodd" d="M218.27453641 257.76908071c-1.29631095 1.29664005-2.20372862 2.7877761-3.50003958 3.50092813-4.27782614 1.94496008-7.58341908 5.3162242-8.166759 10.11379238-.64815548 5.1217282-8.36120566 7.39084828-4.6019039 13.93888052-2.722253.90764804-5.50932155 1.94496008-8.166759 2.91744011.1296311-.58348802 0-1.16697604.32407774-1.62080006 1.1018643-1.62080006 2.52780636-3.11193611 3.43522402-4.86240018 2.33335972-4.99206419 6.80563251-9.01164834 5.63895265-15.55968058-.19444664-1.36147205.97223322-4.27891216 1.42594205-4.27891216 6.15747703.129664 8.36120566-5.77004822 12.6390318-8.49299232.19444665-.129664.64815548-.25932801.97223322-.32416001 1.10186431-.129664 2.20372862-.25932801 3.30559293-.45382402-.45370883 1.03731204-.97223321 2.20428808-1.55557314 3.24160012-.45370884.51865602-.97223322.97248004-1.75001979 1.88012807"/>
      <path fill="rgb(255,255,255)" fill-opacity=".3" fill-rule="evenodd" d="M74.70809825 87.32574633c0-1.29664004.19444665-2.33395208.51852439-3.24160012.77778657.45382402 1.87965088.58348802 2.39817526 1.29664005 2.39817527 2.91744011 3.17596184 7.7798403 8.36120565 7.06668827.45370884 0 1.29631096.90764803 1.42594205 1.62080006.45370884 4.86240018.90741767 9.85446436 1.23149541 14.71686455.1296311 1.16697604.19444664 2.46361609-.1296311 3.50092813-.19444664.84281603-1.1018643 1.29664005-1.75001978 1.94496007-.51852438-.71315203-1.55557315-1.29664005-1.7500198-2.07462408-.45370882-1.88012807-.19444663-3.82508814-.90741766-5.4458882-1.75001979-4.08441615-3.82411731-7.9743363-5.7037682-11.92908845-1.16667985-2.46361609-2.26854417-4.79756818-3.69448622-7.45568028"/>
      <path fill="rgb(255,255,255)" fill-opacity=".3" fill-rule="evenodd" d="M83.52301274 77.47128196c-.97223321.71315203-1.62038869 1.16697605-2.33335972 1.62080007-2.52780636-4.14924816-5.18524381-8.36332832-7.58341908-12.77190448-.51852438-1.03731204.1296311-2.7877761.1296311-4.14924816 1.10186431.58348802 2.20372862 1.03731204 3.11114629 1.88012807C80.476682 67.7464816 84.10635267 71.44190574 87.4119456 75.3966579c1.10186431 1.29664005 1.42594205 3.37126412 2.07409753 4.99206418-1.6203887-.84281603-3.30559293-1.62080006-4.92598162-2.46361609-.3888933-.194496-.58333993-.58348802-1.03704877-.45382402"/>
      <path fill="rgb(255,255,255)" fill-opacity=".3" fill-rule="evenodd" d="M73.60623394 429.96287916c-2.20372862 5.77004821-3.75930176 11.47526443-5.96303038 16.79148863-.90741767 1.94496007-3.1111463 3.24160012-4.73153499 4.86240018.19444665-2.20428809 0-4.66790418.77778658-6.61286425 2.39817526-6.35353624 5.18524381-12.77190448 8.03712791-18.9309447.64815548-1.36147206 2.33335972-2.2042881 3.43522403-3.24160013-.19444664 1.75046407-.45370884 3.50092813-.77778657 5.1865602-.1296311.64832002-.32407774 1.10214404-.77778658 1.94496007"/>
      <path fill="rgb(255,255,255)" fill-opacity=".3" fill-rule="evenodd" d="M122.80123465 109.62795517c.77778657-7.7798403 1.42594205-14.84652856 2.20372862-22.04288083.1296311-.84281603.51852438-1.49113605.90741767-2.33395208.45370883.84281603 1.29631095 1.62080006 1.2314954 2.46361609-.45370883 12.51257647-1.1018643 25.02515293-5.83339929 36.75974537-.45370883 1.03731204-1.42594205 1.75046407-2.20372862 2.5284481-.19444664-1.29664005-.90741767-2.5284481-.51852438-3.56576013 1.1018643-4.53824017 2.78706855-8.81715233 4.2130106-13.80921652"/>
      <path fill="rgb(255,255,255)" fill-opacity=".3" fill-rule="evenodd" d="M87.60639225 343.80114793c3.11114629-.32416001 5.7037682-.90764803 8.23157456-1.03731204.90741766-.129664 1.87965088.45382402 2.722253.84281603-.51852438 1.16697605-.90741767 3.24160013-1.75001979 3.56576014-3.82411731 1.49113605-7.71305018 2.6581121-11.66679859 3.50092813-1.2314954.259328-2.722253-1.03731204-4.14819505-1.62080006.97223322-1.03731204 2.00928198-2.20428808 3.1111463-3.11193612.84260211-.84281603 1.94446642-1.42630405 3.50003957-2.13945608"/>
      <path fill="rgb(255,255,255)" fill-opacity=".3" fill-rule="evenodd" d="M100.76394843 284.67436172c2.9815152.71315203 5.25005936 1.36147205 7.71305018 2.07462408-2.39817527 1.29664005-4.86116608 2.9174401-7.45378799 3.56576013-2.722253.84281603-5.8333993 1.03731204-8.81491449 1.16697604-.77778657.129664-1.62038869-.71315202-2.39817526-1.03731203.64815548-.90764804 1.10186431-2.07462408 1.87965088-2.5284481 2.8518841-1.16697604 5.7037682-2.20428808 9.07417668-3.24160012"/>
      <path fill="rgb(255,255,255)" fill-opacity=".3" fill-rule="evenodd" d="M114.3103979 388.79455762c2.65743746 2.7877761 5.18524382 5.18656019 7.38897244 7.9095043.77778657.84281602.90741767 2.07462407 1.2314954 3.24160011-1.55557314-.129664-3.62967067.58348803-4.73153498-.32416-2.52780636-1.94496008-4.73153498-4.66790418-6.9352636-7.19635228-.64815548-.84281603-.64815548-2.33395209-.97223322-3.50092813 1.16667986-.129664 2.46299081-.38899201 4.01856396-.129664"/>
      <path fill="rgb(255,255,255)" fill-opacity=".3" fill-rule="evenodd" d="M146.19964737 362.14860462c-.64815548-.84281603-1.29631096-1.16697604-1.42594205-1.62080006-.19444664-2.07462408-.45370884-4.14924816-.64815548-6.15904023 1.6203887.84281603 3.50003958 1.49113605 4.86116608 2.6581121 2.33335972 1.94496007 4.53708834 4.08441615 6.15747703 6.61286424.90741767 1.29664005.32407774 3.50092814.45370883 5.3162242-1.2314954-.71315202-2.65743745-1.29664004-3.75930176-2.20428808-1.87965089-1.36147205-3.62967067-2.8526081-5.63895265-4.60307217"/>
      <path fill="rgb(255,255,255)" fill-opacity=".3" fill-rule="evenodd" d="M60.44867776 367.33516481c4.40745724-1.16697604 8.5556523-2.07462407 12.898294-2.5284481.9722332-.129664 2.20372861 1.75046407 3.17596183 2.6581121-.97223322.71315203-1.87965088 1.62080007-2.8518841 1.75046407-3.62967067.58348803-7.38897244 1.03731204-11.0186431 1.16697605-.77778658 0-1.68520425-1.88012807-2.20372863-3.04710412"/>
      <path fill="rgb(255,255,255)" fill-opacity=".3" fill-rule="evenodd" d="M71.07842758 312.48729076c1.87965089 1.16697604 3.1111463 2.20428808 4.40745725 3.37126413-1.55557315.84281603-3.1111463 2.07462407-4.73153498 2.33395208-2.8518841.32416002-5.8333993.25932801-8.6852834.129664-.64815547-.129664-1.29631095-.84281602-2.00928198-1.16697603.45370884-.84281604.90741767-1.94496008 1.55557315-2.20428809 2.8518841-1.03731204 5.96303039-1.62080006 9.46306996-2.46361609"/>
      <path fill="rgb(255,255,255)" fill-opacity=".3" fill-rule="evenodd" d="M65.56910603 262.6314809c4.14819505-.84281604 8.36120565-1.16697605 12.5094007-1.03731204.90741767 0 1.7500198 1.94496007 2.65743746 2.9822721-1.10186431.45382402-2.20372862 1.62080007-3.17596184 1.36147206-4.0833795-.64832003-8.03712791-1.75046407-11.99087632-3.30643213"/>
      <path fill="rgb(255,255,255)" fill-opacity=".3" fill-rule="evenodd" d="M125.00496327 426.13779101c-3.17596184-1.49113605-5.8333993-2.9822721-8.36120565-4.66790417-1.42594205-.90764804-2.52780636-2.33395209-3.75930177-3.37126413 1.29631095-.45382401 2.8518841-1.49113605 4.0833795-1.16697604 2.9815152.90764803 6.02784594 2.07462408 8.6852834 3.82508814.77778657.51865602 0 3.50092813-.64815548 5.3810562"/>
      <path fill="rgb(255,255,255)" fill-opacity=".3" fill-rule="evenodd" d="M76.3933025 393.4624618c-4.14819506 1.03731203-8.03712792 1.88012806-11.86124523 2.46361608-.64815548.129664-1.42594205-1.29664005-2.20372863-2.07462407.64815548-.58348803 1.42594205-1.75046407 2.07409753-1.75046407 4.01856396.064832 8.6852834-5.83488022 11.99087633 1.36147205"/>
      <path fill="rgb(255,255,255)" fill-opacity=".3" fill-rule="evenodd" d="M100.56950179 240.39410406c-3.82411732-.129664-7.25934135-.45382401-10.75938092-.90764803-.32407774-.129664-.97223322-.90764804-.97223322-1.36147205-.1296311-.71315203 0-1.62080006.45370884-2.07462408 2.722253-2.4636161 10.56493427-1.16697604 12.89829399 2.07462408 0 .194496-.97223322 1.23180804-1.6203887 2.26912008"/>
      <path fill="rgb(255,255,255)" fill-opacity=".3" fill-rule="evenodd" d="M86.82860567 421.85887885c2.20372863.90764804 4.6019039 1.94496008 6.02784594 3.82508815.64815548.84281603-.64815548 3.37126412-.97223321 5.12172819-2.20372863-1.49113606-4.53708834-2.91744011-6.35192368-4.73273618-.45370883-.51865602.64815548-2.5932801 1.29631095-4.21408016"/>
      <path fill="rgb(255,255,255)" fill-opacity=".3" fill-rule="evenodd" d="M79.89334207 62.04126539v-8.68748833c.1296311-.58348802.51852438-1.16697604.90741767-1.75046406.51852438.32416 1.29631095.58348802 1.75001979 1.03731204 2.20372862 2.52844809 1.87965088 9.53030435-.51852439 12.05875245-.06481554.064832-1.3611265-1.36147205-2.13891307-2.6581121"/>
      <path fill="rgb(255,255,255)" fill-opacity=".3" fill-rule="evenodd" d="M198.700241 291.61138598c1.42594205.32416001 2.39817527.58348802 3.30559294.90764803-.19444665.45382402-.32407774 1.16697605-.64815548 1.36147205-4.0833795 1.75046407-8.166759 3.37126413-12.31495406 4.9920642-.64815548.259328-1.55557315.259328-2.33335972.32416.32407774-.71315202.45370883-1.94496007.90741767-2.33395208 3.50003957-1.75046407 7.00007915-3.50092814 11.08345866-5.2513922"/>
      <path fill="rgb(255,255,255)" fill-opacity=".3" fill-rule="evenodd" d="M125.84756539 368.50214086c0 1.62080006-.32407774 2.9174401-.51852438 4.27891216-.97223322-.71315203-2.00928198-1.36147205-2.9815152-2.20428809-.64815547-.58348802-1.55557314-1.29664004-1.87965088-2.07462407-.64815548-1.62080006-.97223321-3.37126413-1.42594205-5.1217282 1.2314954.71315203 2.65743746 1.16697605 3.75930177 1.94496008 1.1018643.77798403 1.87965088 1.88012807 3.04633074 3.17676812"/>
      <path fill="rgb(255,255,255)" fill-opacity=".3" fill-rule="evenodd" d="M145.09778306 387.62758157c-2.722253-1.75046406-5.18524382-2.9174401-7.38897244-4.40857616-.64815548-.45382402-.77778657-1.62080006-1.10186431-2.4636161.90741767-.32416 2.20372862-1.29664004 2.722253-.90764803 3.24077739 1.62080006 6.67600141 3.17676812 5.76858375 7.7798403"/>
      <path fill="rgb(255,255,255)" fill-opacity=".3" fill-rule="evenodd" d="M135.95879083 85.25112226c-.90741767 2.33395208-1.75001979 4.08441615-2.722253 5.77004821-.1296311-2.20428808-.51852438-4.53824017-.45370884-6.61286425.1296311-3.24160012.51852439-6.28870423.97223322-9.40064035.1296311-.45382401.45370883-.90764803.64815548-1.29664005.1296311.45382402.32407774 1.03731204.45370883 1.49113606.32407774 3.24160012.77778657 6.35353624 1.10186431 10.04896038"/>
      <path fill="rgb(255,255,255)" fill-opacity=".3" fill-rule="evenodd" d="M188.7834622 305.5502665c-2.39817526.32416001-4.14819505.84281603-6.02784593 1.03731204-.1296311 0-.64815548-1.16697604-.51852438-1.36147205 1.55557314-1.49113606 2.9815152-3.37126413 4.73153498-4.08441615 1.29631096-.58348803 3.17596184.71315202 4.86116608 1.16697604-.84260212 1.03731204-1.75001979 2.20428808-3.04633074 3.24160012"/>
      <path fill="rgb(255,255,255)" fill-opacity=".3" fill-rule="evenodd" d="M69.97656327 465.55564849c-1.2314954-.71315203-2.33335971-1.29664005-2.33335971-1.94496007-.19444665-2.20428809 0-4.40857617.1296311-6.61286425.77778656.32416001 1.87965087.58348802 2.20372861 1.16697604.97223322 2.26912009 4.73153498 4.60307217 0 7.39084828"/>
      <path fill="rgb(255,255,255)" fill-opacity=".3" fill-rule="evenodd" d="M71.40250532 231.70661574c-.32407774-3.24160012-.32407774-6.74252826-.19444664-10.17862438 0-.129664 1.6203887-.45382402 1.6203887-.32416002.64815547 1.49113606 1.62038868 3.11193612 1.42594204 4.53824017-.38889329 1.88012807-1.75001979 3.76025614-2.8518841 5.96454423"/>
      <path fill="rgb(255,255,255)" fill-opacity=".3" fill-rule="evenodd" d="M125.00496327 78.314098c0-.90764804-.1296311-1.36147205 0-1.75046407 1.10186431-2.07462408 2.20372862-4.27891216 3.17596184-6.35353624.1296311 2.07462408.1296311 4.08441616.1296311 6.15904023 0 .90764804 0 1.88012807-.19444665 2.7877761-.32407774.90764804-.97223322 1.75046407-1.55557315 2.5284481-.58333992-.97248003-1.03704876-1.88012807-1.55557314-3.37126412"/>
      <path fill="rgb(255,255,255)" fill-opacity=".3" fill-rule="evenodd" d="M203.82066927 253.03634454c-.84260212 1.68563206-1.62038869 3.37126412-2.33335971 5.12172819-.1296311.129664 1.62038869 1.03731204 2.52780636 1.49113605.32407773 0 .97223321-.58348802 1.2314954-1.03731204.2592622-.77798403.45370884-1.62080006.58333993-2.5284481-.90741767-.77798402-1.62038869-1.88012806-2.00928198-3.0471041z"/>
      <path fill="rgb(255,255,255)" fill-opacity=".3" fill-rule="evenodd" d="M194.81130814 270.8651452c-.77778657 1.55596806-1.03704876 3.37126413-1.2314954 5.0568962.1296311.064832.25926219.194496.38889328.259328 1.10186431-.90764803 2.33335972-1.75046406 2.722253-2.98227211.97223322-2.4636161 1.29631096-5.1217282 1.87965089-7.7798403-1.2314954 1.88012808-2.722253 3.50092814-3.75930177 5.44588821z"/>
      <path fill="rgb(255,255,255)" fill-opacity=".3" fill-rule="evenodd" d="M176.66295479 321.7582671c-.45370884-.90764803-.51852438-2.33395208-.1296311-2.6581121.90741767-.453824 2.07409753-.32416 3.17596184-.453824-.45370883.71315202-.90741767 1.36147204-1.42594205 1.94496006-.2592622.51865602-.71297103.84281604-1.6203887 1.16697605"/>
      <path fill="rgb(255,255,255)" fill-opacity=".3" fill-rule="evenodd" d="M118.71785514 129.0775559c0-.32416002.32407774-.45382402.64815548-.45382402-.1296311.194496-.32407774.45382402-.64815548.45382402"/>
    </g>
    <g class="avocado" opacity=".3" transform="rotate(7.000002 333.50177528 435.7560832)">
      <path fill="rgb(255,255,255)" fill-rule="evenodd" d="M322.06085802 370.89312942c-.68626914 2.8345272-1.28103574 5.34902714-2.05880743 7.77209071-.32025894 1.05151816-1.00652808 1.96588177-1.64704595 2.88024538-.13725383.13715455-.86927425.13715455-.86927425.09143637-2.05880743-5.8976453 4.02611231-19.3845086 9.56201675-21.44182673.91502552-.32002726 1.78429977-.6857727 2.74507657-.6857727.54901532 0 1.14378191.54861816 1.64704595.9143636-.32025893.68577271-.68626915 1.9201636-1.05227936 1.96588177-4.30061997.82292725-6.49668123 4.16035444-8.32673228 8.5035816"/>
      <path fill="rgb(255,255,255)" fill-rule="evenodd" d="M309.4334922 381.27117452c1.32681274 7.13201904 2.5163269 14.30975342 3.8888855 21.67041015-2.79083252 2.24017334-6.77120972 3.01739502-7.68621826 7.7263794-.27450562 1.46295166-1.3725586 2.83447265-2.19607544 4.11462402-2.74505616 4.29748535-4.1633606 8.54925537-2.97381592 14.03546143.48110962 2.16339111 1.05395508 4.30670166 1.62741089 6.45220947 1.71697998 6.42382813 3.43917846 12.8671875 2.71896362 19.92718506-.48034668 5.07427978-.34313965 10.2255249-.2059021 15.37835693.04574585 1.7173462.0914917 3.43463135.11437988 5.14910889.01644898 2.25262451.46490479 4.48162842.91329956 6.71032715.79840088 3.96820068 1.59658814 7.93554687-.04400634 12.03411865-.21810913.52923584.30633545 1.37646484.82208252 2.20965576.24163818.39038086.48138427.77770996.64193725 1.12774658.32025147-1.097229.64053345-2.14874267.82351685-3.24597168.18301391-.68579101.09152221-1.46295166 0-2.14874267 0-.77722168-.13723755-1.55444336-.22872925-2.331604.8692627.59429931 2.10455322.91430664 2.65356445 1.78295898 2.28756714 3.33746338 3.79736328 7.63494873 6.63394165 10.19519043 4.34637451 3.9317627 9.51626587 6.90344238 14.59463501 9.73797607.87661743.4963379 2.23843384.0043335 3.6328125-.49945068.78863526-.28491211 1.58758545-.5736084 2.31488037-.68920899 3.20257569-.59436035 6.54241944-1.28015136 9.74499512-1.69158935 5.39865112-.59436035 10.06530762-2.8345337 13.03912354-7.54351807 7.3659668-11.79528808 8.64700317-24.41351318 3.88885498-37.67175293-2.19604493-6.26342773-3.06533814-13.12115478-8.55548096-17.6472168-1.87579346-1.55444335-4.30062866-2.83453368-5.26141357-4.8918457-3.66009522-7.5892334-7.50320435-15.31561279-10.01953125-23.3619995-2.19604493-7.17779542-6.7711792-11.7952881-11.7123108-16.18426515-1.19546508-.94952392-3.3356018-.72924804-5.48553466-.5079956-1.0586853.10900879-2.1190796.21813965-3.0699463.18798828-.32028198 0-.77777099 0-.8692932-.18286133-.8692627-2.65167236-2.01306153-5.21191406-2.333313-7.86352539-.82351684-6.12628174-1.23529052-12.38964844-1.78430175-18.56158447-.0914917-.960083-.22875977-1.78302002-.41174317-2.74310303-2.24182128.68579102-4.66662597 1.14294434-6.6796875 2.331604-.54656982.31866456-.00482177 2.94830323.31604004 4.50567628l.00421143.02044677c.18301391.82293701.96078491 1.50872803 1.1437683 2.46881104zm1.50979614-4.84613037c.04574585.68579101.13723755 1.28009033.22875977 1.96588134-.59475708-.36572265-.64053345-1.05151367-.73202515-1.78302002 0 0 .32025147-.09143066.50326538-.18286132zm-1.23526 33.46569824c2.15029906-1.32580567 4.4378662-2.51446533 6.67965697-3.70318604 6.77120972-.41143798 11.94110108 1.96588135 16.60772706 5.66906739 3.06533813 2.46881103 3.93460083 6.40057373 2.88232421 9.73797607-2.27825927 7.22241211.83944703 12.52386475 3.96749878 17.8428955.51528931.87628175 1.0308838 1.75299073 1.52267456 2.63885499.41174317.77722168 1.37252808 1.55444336 2.10455323 1.64587402 9.60775757 1.46295166 12.44433593 9.41790772 15.09790039 17.37286377 1.46405029 4.38897705 2.97384643 9.00653076 3.06533813 13.53259278.091156 5.46343994-1.13357544 11.01757812-2.31860351 16.39178466l-.01470948.06677246c-.91500854 4.11462403-3.79733276 6.94915772-7.18295288 9.32653809-4.2548523 3.10882568-8.82998657 4.70892334-13.77111816 4.98327637-9.8822937.68572998-17.06521607-3.9317627-22.96713257-12.57250977-4.89538574-7.26922607-7.2744751-14.72125244-6.77120972-23.6362915.32028199-6.4920044.22875977-13.12115479 0-19.61309815-.13723755-3.47460937-1.09802246-6.90344238-1.50979614-10.42376709-.64050293-5.30328369-1.32678223-10.51519775-1.50976562-15.81848144-.13726807-4.11462403 2.013031-7.2234497 5.58163452-9.00646973.73202514-.41149902 1.69281006-.68579101 2.24182129-1.37158203.8692627-.82293701 1.60128784-2.05731201 2.33331299-3.15454102-1.14376832.274292-2.2418213.32000733-3.3855896.59436036-.73202515.27429199-1.37252808.68572998-2.01306153.86865234-.30499267.09143066-.65066528-.0203247-.99630737-.13208008-.17285156-.0559082-.34570313-.1118164-.51348877-.14227295.32025146-.32000732.45751953-.91436767.86929321-1.097229zm32.89517211 23.27056885c-.82351684-1.96588135-1.4640503-3.9317627-2.33331299-5.80621338-.32028198-.77722168-1.0522766-1.371521-1.60131836-2.05731201-.0958557.30108642-.23684692.62268066-.37872314.9463501-.33209229.75750732-.66918945 1.52648925-.4447937 2.07104492.82351684 2.37738037 1.92156982 4.80041503 3.15686035 7.04058837 1.05227661 1.78302002 2.42480469 3.42889405 3.61434936 5.0289917-.73202514-2.10302734-1.37255859-4.20605468-2.01306152-7.2234497z"/>
      <path fill="rgb(255,255,255)" fill-rule="evenodd" d="M352.07368995 482.81127462c6.7711792-12.93829346.777771-29.35107422-15.0979309-32.9628296-.62008667-.05310058-1.2196045-.18847656-1.77194214-.31323242-.87402344-.1973877-1.63000489-.36810302-2.1626587-.14398193-3.2026062 1.64587402-6.45092773 3.5203247-9.42477416 5.66906738-6.54241944 4.61755371-9.2875061 16.77856446-5.07839966 23.72772217 2.74508667 4.48040772 6.22219848 8.04644775 10.88882446 10.97241211 10.79730225 6.4005127 17.88873291 2.10302734 22.6468811-6.94915771zm-28.41156006-4.52612305c-1.69277954-5.3947754-1.9215393-10.46948242 0-15.58990479 3.15686036-7.17773437 11.346344-9.73797607 17.2482605-5.76049804 1.50976563 1.05151367 3.79733277 1.05151367 5.07836914 2.24017334 3.61434937 3.5203247 5.30715943 8.36645507 4.43786621 13.25830078-.73199462 4.11462402-3.15682983 8.04638672-5.26138305 11.74957275-2.2418213 3.9317627-6.95419312 6.08050537-10.1567688 4.02319336-4.16339111-2.65167236-9.42477417-4.02319336-11.346344-9.9208374z"/>
    </g>
  </g>
</svg>
