<svg class="food-right" xmlns="http://www.w3.org/2000/svg" width="459.942" height="452.38" viewBox="0 0 459.942 452.38">
  <g>
    <g  class="wheat-right" opacity=".3" transform="scale(-1 1) rotate(2 0 -18849.38879957)">
      <path fill="rgb(255,255,255)" fill-rule="evenodd" d="M376.88781236 365.7045718c16.41845704 6.32452393 24.57397461 18.22320557 24.2520752 36.6607666 2.57263184-.28912353 5.21276855-.12579345 7.84521484.03710938 6.15197754.3805542 12.2623291.75860596 17.3725586-4.64654541 7.94091797-9.21875 16.95495605-17.57995606 23.8227539-27.7635498 2.89733887-4.28778077 2.36083985-11.89862061.85852051-17.47277833-.42919922-1.71514892-8.58483887-1.17913818-13.30639648-1.71514892-7.31188965-1.19085694-11.97497559 3.02789306-16.64855957 7.25616455-1.63671875 1.48071289-3.2746582 2.96258545-5.02807618 4.21374512-2.36083984 1.9295044-3.97045898 4.609375-6.00927734 6.86047363 1.42687988 0 2.83642578.06964111 4.2355957.1387329 2.07299805.102417 4.12329102.20367433 6.17346192.0756836 1.07299804-.10723877 1.82421875-2.46551513 3.11193847-3.21588134 6.00939942-3.32305909 12.01867676-6.7532959 18.24267579-9.4331665 2.57543945-.96478272 5.36547851-1.9295044 3.32653808 4.609375-5.25817871 17.04406737-18.7791748 23.79736327-31.65637207 31.62261962-4.38000488 2.75482178-5.14282226-.06347656-5.81030273-2.52966309-.21557618-.79656982-.42126465-1.55633544-.7355957-2.07977294-2.46813965-3.8590088-4.39965821-8.4683838-5.15087891-12.86340333-.53649903-4.18060302-.53649903-10.39794921 1.82434082-12.64904785 6.43859863-5.89569091 13.8428955-10.71948242 21.35461426-15.11450195 7.83361816-4.609375 10.51635742-11.5770874 10.51635742-20.15270996 0-10.50512695-1.71691895-12.43463135-11.16027832-7.82525635-9.4432373 4.39501953-18.5645752 10.29077149-26.93469239 16.82965088-4.08398437 3.3829956-4.74694824.20861816-5.0784912-1.37896728-.02563477-.12280274-.04931641-.23608399-.0723877-.33612061-5.90209961-17.47283936-10.94567871-34.94561768-17.16955567-51.98968506-2.14624023-5.78851318-1.60961914-6.86047363 3.64855957-9.00439453 9.65783692-3.96621704 21.14001465-7.39645386 27.3638916-15.11450195 11.26757813-13.61376953 15.88195801-31.8369751 16.20385743-50.06015015 0-5.14535522-4.3996582-11.68426514-11.69677735-9.00439453-12.44799804 4.39501953-23.39355468 11.68429565-32.08569336 22.1894226-1.50231933 1.7150879-2.79003906 3.96618653-3.11193847 6.11010743-.15478516 1.08267212.47229004 2.27694702 1.11572265 3.50228882.24841309.47314453.49926758.95089721.7084961 1.42868042 1.07312012-.9647522 2.57543945-1.50073243 3.43395996-2.6798706 3.86315918-4.39501954 7.51171875-9.00439454 11.48217773-13.18499757.56420899-.64413452 1.79431153-.56253052 3.00830078-.48202514.40234375.02670288.80285645.05325317 1.17675782.05325317-.53649903.96472168-1.07312012 2.25109863-1.60961914 3.21582031-2.89733887 4.60940552-6.00939942 9.00439453-8.37023926 13.61380005-.5354004.99334717-.25292969 2.42245484.03112793 3.86019898.11450195.57922363.22924805 1.15985107.29089355 1.71395874 1.28771973-1.07196045 3.00463867-1.82232666 3.86315918-3.21585083 4.72155762-6.86050415 8.90661621-14.14978028 14.05749512-20.4743042 2.03894043-2.4654541 6.00939941-3.10864258 9.12133789-4.609375.10595703 1.02264404.32800293 2.08010864.5477295 3.1265564.44824218 2.13458251.88684081 4.22341918.310791 5.87783813-2.68273925 8.03964233-6.11669921 15.97207641-9.4432373 23.79733276-.9658203 2.14389038-1.07312011 5.14535523-2.57543945 6.32449341-8.58483887 6.2173462-17.16955566 12.32745361-25.86169434 17.68722534-3.43395996 2.03671265-6.86779785 1.71511841-8.90673828-3.8590393-3.54125976-9.6475525-8.37011718-18.65194703-11.69677734-28.40670777-.96582031-3.00146484.32189941-9.00439453 2.68273926-10.71951294 6.33129883-5.46697998 14.3795166-8.6828003 20.71081543-14.04257202 15.45263672-12.43463135 24.03747558-28.728302 20.92541504-50.06015015-.1072998-1.9295044-1.82421875-3.6446228-2.68273926-5.3597412-1.50231934 1.60791015-3.32653809 2.89425658-4.1850586 4.82376098-.52758789.828125-.41992187 2.02630615-.30908203 3.2604065.046875.52316284.09448243 1.05276489.09448243 1.563385-.10729981 21.86782837-9.0140381 37.6255188-28.5444336 46.41549683-3.97045898 1.71514893-8.15551758 3.64465332-12.34069824 5.35977173.32202148-3.96621704.5366211-8.14682007.8585205-12.22024536v-1.9295044c.32189942-19.40234375 12.01867676-36.44638061 29.51025391-43.52124023 2.03881836-.75036621 3.5411377-3.75183106 5.1508789-5.89575196-.4165039-.32009887-.89050292-.77401733-1.37902831-1.2418518-1.147583-1.09890747-2.37536621-2.27474976-3.12805176-1.97399903-6.43859863 2.35830689-14.91601562 3.43023682-18.24267578 8.25402832-9.2286377 13.61380005-18.5645752 27.76354981-17.27685547 45.98672486 0 1.7151184-.96582031 3.21585083-1.28771973 4.93096924-1.39501953-1.39352417-3.43395996-2.57266236-3.97045898-4.07339478-3.32666016-7.5036621-6.43859863-15.11453247-9.3359375-22.83258057-.40222168-1.11593627-.84155273-2.2277832-1.2800293-3.33718872-2.72009277-6.88308715-5.40356445-13.6734314 1.0654297-20.78173828.85839843-.9647522.75109862-4.07339477 0-5.5741272-.75122071-1.9295349-2.68273927-3.32305908-4.18518067-4.8237915-.53649903 1.82232666-1.60961914 3.75183106-1.82421875 5.89572144-.06750489 1.21347046.16210937 2.55413818.39526367 3.91534424.13745117.80319213.27624512 1.61358642.35595703 2.40917968 0 .9647522-.7512207 2.89428711-1.28771973 2.89428711-1.28771972.21438599-2.89746093 0-3.97045898-.7503662-2.03894043-1.17916871-3.54125977-2.89428712-5.1508789-4.39501954 0 .91131592-.0645752 1.85028076-.12878419 2.78445435-.15490722 2.25250244-.30786132 4.47723388.4506836 6.21994018 10.62365722 26.0484314 21.35461425 51.98965454 32.08557129 78.03808594 4.82897949 12.22024536 9.9798584 24.33331299 14.16491699 36.76794433 4.72167969 13.61376954 8.37023926 27.76354981 12.87719726 41.37731934 4.50708008 12.9706421 9.8725586 25.6196289 14.3795166 38.69744873.6595459 1.6105957.26818848 3.62109375-.11474609 5.58764649-.17773437.91308593-.35375976 1.81665039-.42175293 2.66638183-1.82434082-1.17913818-3.86315918-2.4654541-5.6875-3.64459228-1.93151855-1.3935547-3.6484375-3.32305909-5.79467773-4.0734253-1.52709961-.48535156-3.23376465-.47735595-4.97473145-.46923828-.9506836.00445557-1.91149902.00897217-2.85888672-.06677246 1.82421875 1.50073242 3.32653809 3.64465332 5.47277832 4.39501953zm50.97216797-33.12329101c-.64379883 1.71508789-1.82421875 3.10864258-2.68273926 4.609375-8.37011718 8.25402832-15.98913574 15.11450195-23.39355468 22.72540283-2.6730957 2.7510376-2.77807617 1.8986206-2.99206543.16271973-.06945801-.56384278-.15039063-1.2208252-.33459473-1.87786866-3.21923828-11.3626709-2.14611816-14.36413574 7.51171875-19.93829345 5.90209961-3.53747559 11.69677734-7.18206787 17.70617676-10.39794922 1.60961914-.96472168 3.97045898-.75036621 6.00927734-1.17913819-.53649902 2.03668213-1.07299804 3.96624756-1.82421875 5.89575196z"/>
      <path fill="rgb(255,255,255)" fill-rule="evenodd" d="M313.57494689 327.22150618c-6.545902-7.71805293-6.00935265-14.1497637-.53654935-19.50952268.75116909-.75036626 1.28771843-1.50073252 2.03888751-2.1439036-1.82426777-.96475661-3.4339158-1.92951323-5.25818357-2.89426984-2.57543684-1.39353734-4.93625396-2.89426985-7.5116908-4.39500237 2.68274671-.96475661 5.68742304-3.1086602 8.37016975-3.1086602 11.16022635-.42878072 21.99852309-.42878072 33.15874943 0 2.57543685.21439035 5.1508737 2.46548913 7.61900068 4.07341682-2.36081711 1.17914698-4.93625396 2.25109877-7.51169081 3.43024575-.21461974.21439036-.53654935-.21439036-.75116908 0-8.9067191 3.85902646-17.70612834 7.71805293-26.3982277 11.68427457-.53654934.21439036-.3219296 4.07341683.75116908 5.14536862 8.37016976 10.18354206 18.77922702 14.79293479 31.871031 12.1130553 1.60964803-.42878072 5.1508737.75036625 5.1508737.96475661-.21461974 4.07341683-.75116908 7.82524811-1.82426777 11.46988422-.3219296.96475662-3.86315527.75036626-5.7947329.5359759-5.68742305-.42878072-11.16022635-1.39353734-16.52571979-1.50073252-2.0388875 0-4.18508488 1.71512288-6.22397238 2.6798795 1.50233816 1.5007325 2.68274672 4.07341682 4.50701448 4.60939272 5.1508737 1.71512287 10.51636714 2.46548913 15.66724083 4.07341682 8.15555002 2.46548913 16.20379018 4.93097826 24.3593402 7.82524811.21461973 0 .3219296 3.43024575-.21461974 3.6446361-2.36081711.96475662-5.1508737 2.25109878-7.29707107 1.71512288-11.48215595-3.43024575-22.74969216-6.8604915-33.69529877-11.46988422-9.12133884-3.85902646-9.65788818-13.0778119-1.50233816-18.97354678 1.07309868-.96475662 2.14619737-1.92951324 3.4339158-2.89426985-1.50233817-.75036626-2.89736646-1.92951324-4.39970462-2.6798795-3.4339158-1.28634215-7.29707107-2.67987948-11.48215595-4.39500236"/>
      <path fill="rgb(255,255,255)" fill-rule="evenodd" d="M260.7784915 160.42580674c1.07309868-5.89573488 1.50233815-14.90012997 4.3997046-16.07927694 4.93625397-1.71512288 11.6967757 1.39353733 17.4915086 2.67987949 1.28771843.21439036 2.14619738 2.14390359 3.32660593 3.21585538-1.50233816.42878072-2.68274671.75036626-4.18508487.96475662-1.0730987.21439036-2.36081712 0-3.64853554 0-3.4339158.42878072-6.8678316.75036626-10.40905726.96475662 2.14619737 3.6446361 4.18508488 7.2892722 6.54590199 10.5051276 3.11198619 4.180612 6.00935264 8.79000472 9.97981779 11.89866493 3.32660592 2.25109877 8.04824015 2.1439036 12.01870529 3.43024575 2.68274672.96475662 5.25818356 2.67987949 7.83362041 3.85902646-2.3608171 1.50073252-4.72163422 2.89426985-6.8678316 4.39500237-6.22397238 4.39500236-13.62835332 7.71805293-18.24267767 13.39939745-7.29707107 8.79000472-5.25818357 14.57854442 4.93625396 18.43757089 8.15555002 3.21585539 16.74033952 5.14536862 25.11050927 7.8252481 2.68274672.96475662 5.1508737 2.46548914 7.61900068 3.85902647.75116908.5359759 1.28771842 1.50073252 2.0388875 2.25109877-.85847894.42878072-1.82426776 1.50073252-2.68274671 1.50073252-15.66724083-.21439036-30.36869284-4.39500236-43.67511656-13.61378781-4.93625396-3.43024575-3.86315527-21.65342628.85847895-27.65635633 8.37016976-10.39793243 8.37016976-10.39793243-.21461974-19.40232751-4.077775-3.96622165-7.83362041-8.03963847-12.23332503-12.43464083"/>
      <path fill="rgb(255,255,255)" fill-rule="evenodd" d="M339.97317459 235.2480421c-9.87250792 8.57561436-20.71080466 13.0778119-32.62220009 15.7576914-2.89736645.75036625-5.7947329 2.14390358-8.37016975 4.07341682-1.82426777 1.39353733-3.1119862 3.85902646-3.86315528 6.11012523 0 .5359759 2.89736646 2.25109878 4.50701449 3.2158554 11.26753621 6.7532963 22.74969216 12.86342154 36.37804549 11.4698842 1.82426776-.21439035 3.64853553 0 5.4728033-.21439035 3.1119862-.42878072 6.22397238-.75036626 9.33595857-1.39353734-2.89736645 3.10866021-5.4728033 7.50366258-8.9067191 9.0043951-11.26753621 4.39500235-21.89121321-1.39353734-32.08565074-4.60939273-6.33128225-2.1439036-12.23332503-6.53890596-17.4915086-10.71951796-2.57543684-2.25109877-5.25818356-7.82524811-4.3997046-10.18354206 2.57543684-5.35975898 7.5116908-14.04256853 10.9456066-13.82817817 14.701452.75036626 26.18360796-8.57561437 39.49003168-11.14829868.75116908.10719518 1.50233816 1.28634216 1.60964803 2.46548913"/>
      <path fill="rgb(255,255,255)" fill-rule="evenodd" d="M356.92813384 135.8781106c-.53654934-7.8252481-1.07309869-14.79293478-2.0388875-21.43903591 0-.21439036-3.1119862-.75036626-3.86315528 0-4.93625396 4.93097826-9.33595857 10.5051276-14.16490267 15.54330104-2.3608171 2.25109877-5.25818356 4.07341683-8.04824015 5.89573488.75116908-3.43024575.85847895-7.50366257 2.57543685-10.18354206 3.4339158-5.89573488 7.51169081-11.89866494 12.23332503-16.72244802 6.8678316-7.07488185 14.59414214-4.39500236 18.77922702 4.60939272 5.25818357 11.36268904 4.18508488 21.86781664-1.82426776 32.37294424-4.93625396 9.00439509-9.44326845 18.22318053-14.70145202 27.01318526-1.07309868 2.25109877-3.86315527 3.43024575-6.00935264 4.93097826.3219296-3.1086602 0-6.3245156 1.07309868-8.79000473 5.04356383-10.82671314 10.73098687-21.5462311 15.98917044-33.23050567"/>
      <path fill="rgb(255,255,255)" fill-rule="evenodd" d="M268.93404151 107.68577838c-6.33128225-11.36268904-12.23332503-22.18940218-18.34998754-33.01611532-11.26753622-19.50952269-22.53507243-39.12624055-33.90991851-58.8501536-.85847895-1.39353733-2.14619738-2.89426985-2.57543685-4.60939272-.42923947-1.71512287-.21461974-3.85902647-.21461974-5.7885397 1.50233816.96475662 3.4339158 1.50073252 4.39970462 2.89426985 8.5847895 12.1130553 18.24267768 23.58293951 25.53974875 36.66075142 9.44326844 17.25842392 17.4915086 35.6959948 25.64705862 53.91917534 1.50233816 2.67987949.85847894 6.53890595 1.28771842 9.75476134 0 0-.53654934.21439036-.53654934 0-.32192961 0-.53654935-.32158554-1.28771843-.96475661"/>
      <path fill="rgb(255,255,255)" fill-rule="evenodd" d="M324.19862389 24.71670937c7.29707107 18.22318053 14.70145201 35.26721409 21.67659347 52.74002836 1.28771843 3.21585539.32192961 7.50366257 0 11.36268904 0 1.71512287-1.28771842 3.21585538-2.0388875 4.93097826-1.07309869-1.71512288-2.68274672-3.10866021-3.32660593-4.93097826-7.5116908-26.04842864-17.169579-51.13210067-30.58331258-74.607845-1.60964803-2.6798795-1.07309868-6.75329632-1.60964803-10.18354206 2.57543685 1.71512287 5.68742304 2.89426985 7.29707107 5.35975898 3.21929606 4.39500236 5.79473291 9.54037098 8.5847895 15.32891068"/>
      <path fill="rgb(255,255,255)" fill-rule="evenodd" d="M411.548857 272.0159887c-1.07309868-.21439037-2.14619737-.42878073-3.4339158-.75036626 1.60964804-.96475662 3.1119862-2.89426985 4.72163423-2.89426985 15.66724083 0 21.67659348 10.71951796 15.98917043 26.7987949-5.25818356 14.79293478-17.8134382 20.36708412-28.7590448 27.76355151-1.28771843.96475662-4.39970462-1.39353733-6.76052173-2.1439036 1.07309868-1.71512286 1.82426776-3.85902646 3.11198619-5.14536861 8.15555002-8.57561437 21.14004413-12.43464083 24.25203032-26.262819.75116908-3.85902647.75116908-7.71805293 1.0730987-11.46988422-2.89736646 1.71512287-5.79473292 3.21585539-8.69209937 4.93097826-.85847895.5359759-1.60964803 1.50073252-2.57543685 2.25109877.21461974-1.39353733.3219296-2.67987949.3219296-4.07341682.32192961-2.6798795.53654935-5.57414934 1.28771843-8.57561437.3219296-1.17914697.3219296-1.71512287.53654934-2.25109877-.3219296.64317108-.64385921 1.28634216-1.07309869 1.82231805"/>
      <path fill="rgb(255,255,255)" fill-rule="evenodd" d="M400.2813208 402.36532708c1.50233815 1.50073251 2.14619737 3.6446361 3.64853553 4.180612 16.20379017 7.71805293 14.91607175 22.83257326 14.91607175 37.62550804 0 1.39353734-.75116908 2.89426985-1.0730987 4.180612-1.50233815-.96475661-3.86315526-1.5007325-4.18508487-2.89426984-1.50233816-5.89573488-4.18508488-12.43464084-3.4339158-18.22318053 1.50233816-12.43464084-6.8678316-14.79293479-14.3795224-17.04403356-13.62835333-4.07341682-27.68594613-6.53890596-41.52891919-9.9691517-2.3608171-.5359759-4.18508488-2.89426985-6.33128225-4.60939272 2.0388875-.21439036 3.97046514-1.17914698 5.7947329-.96475662 12.0187053 2.1439036 23.82279086 4.180612 35.73418628 6.3245156 3.32660593.64317107 6.8678316 1.0719518 10.83829674 1.39353733"/>
      <path fill="rgb(255,255,255)" fill-rule="evenodd" d="M284.064733 99.43174955c1.07309868-4.07341683 1.50233816-7.82524811 3.4339158-9.75476135 2.0388875-2.14390359 5.7947329-2.46548913 8.69209936-3.6446361-.53654934 2.25109877-.53654934 4.82378308-1.60964803 6.8604915-7.61900068 15.32891067-2.36081711 29.3714792 3.64853554 43.5212429.3219296.96475662 1.28771842 1.71512288 1.82426776 2.6798795-.53654934.21439036-1.07309868.5359759-1.60964803.5359759-9.87250792-1.39353734-20.06694544 6.53890595-29.72483363-1.71512288-.85847894-.75036626-2.0388875-1.50073251-2.89736645-2.25109877 1.07309869-.5359759 2.14619737-1.17914698 3.4339158-1.71512287.53654934-.21439036 1.07309868 0 1.82426777 0 6.00935264-.42878072 12.01870529-.75036626 18.24267767-1.17914698-2.14619737-5.35975898-5.1508737-10.71951796-6.00935264-16.2936673-.85847895-5.14536862.42923947-10.71951796.75116908-17.04403355"/>
      <path fill="rgb(255,255,255)" fill-rule="evenodd" d="M242.2138842 149.27750806c-.75116907 11.14829868 0 21.11745038 4.18508489 30.443431.75116908 1.71512288.3219296 3.85902647.53654934 5.7885397-1.82426777-.5359759-4.50701449-.5359759-5.4728033-1.92951323-2.57543685-4.07341683-5.79473291-8.57561437-6.22397239-13.1850071-1.07309868-9.00439508-.85847895-18.22318052-.21461973-27.2275756.3219296-3.2158554 3.64853553-6.11012525 5.4728033-9.21878545 1.07309869 3.1086602 2.57543685 6.3245156 3.32660593 9.54037098.42923947 1.39353733-1.07309869 3.1086602-1.60964803 5.7885397"/>
      <path fill="rgb(255,255,255)" fill-rule="evenodd" d="M258.63229412 34.25708035c7.5116908 14.57854443 15.13069148 28.19233224 22.42776255 42.0205104.53654935 1.17914698-.53654934 3.43024575-.75116908 5.14536862-.85847895-.96475661-1.82426776-1.92951323-2.57543685-3.1086602-10.9456066-18.54476607-21.8912132-36.98233696-32.62220008-55.63429821-1.07309868-1.71512288-1.28771842-3.85902647-1.82426777-5.7885397 1.60964803 1.17914697 3.64853554 2.1439036 4.93625396 3.6446361 3.64853554 4.180612 6.8678316 8.57561437 10.40905727 13.720983"/>
      <path fill="rgb(255,255,255)" fill-rule="evenodd" d="M334.50037128 99.110164c-1.82426776-.42878071-4.18508488-.75036625-4.72163422-2.14390358-8.5847895-16.50805766-16.74033952-33.01611532-24.89588954-49.4169778-1.07309868-2.25109877-1.28771842-4.82378308-1.82426776-7.28927221 2.14619737 1.50073251 5.1508737 2.25109877 6.22397238 4.39500236 8.69209936 17.79439982 17.27688886 35.80318999 25.21781914 54.45515124"/>
      <path fill="rgb(255,255,255)" fill-rule="evenodd" d="M314.32611597 203.41107375c-.53654934-.32158554-1.28771843-.5359759-2.14619737-.75036625-.96578882.42878071-2.14619738.64317107-3.4339158.64317107-1.50233816 0-2.79005659-.32158554-3.86315528-.85756143-6.43859212.5359759-13.73566319 2.35829395-15.34531122 4.39500236-.21461974.21439036 0 .5359759.3219296 1.50073251 2.36081712.96475662 4.18508489 2.1439036 6.2239724 2.25109878 9.44326844.75036625 19.31577636.96475661 25.11050927 11.36268903.53654934.75036626 1.60964803.96475662 2.57543684 1.50073252.21461974-.96475662.32192961-1.71512288.32192961-2.6798795.42923947-8.03963846-3.7558454-13.39939744-9.76519805-17.36561909z"/>
      <path fill="rgb(255,255,255)" fill-rule="evenodd" d="M304.45360805 92.3568677c4.72163422.5359759 10.9456066.42878071 12.76987437 3.21585538 3.97046515 6.53890596 6.00935265 14.57854443 8.5847895 22.082207.3219296 1.17914697-1.50233816 3.1086602-2.36081711 4.60939272-1.07309869-.96475662-2.36081711-1.71512287-3.1119862-3.1086602-5.4728033-8.79000473-10.9456066-17.58000946-15.88186056-26.7987949"/>
      <path fill="rgb(255,255,255)" fill-rule="evenodd" d="M289.32291656 65.34368244c-3.4339158-16.93683838-11.48215595-30.76501655-21.5692836-43.30685256-.85847895-1.39353734-2.68274672-2.1439036-4.39970462-2.67987949-1.28771842-.42878072-2.68274672 0-4.18508488 0 .75116908 1.17914698 1.50233816 2.25109877 2.0388875 3.21585539 7.08245134 11.36268903 14.0575928 22.6181829 21.14004414 33.76648157 2.14619737 3.32305057 4.39970462 6.3245156 6.54590199 9.21878544.10730987-.10719517.21461974-.10719517.42923947-.21439035z"/>
      <path fill="rgb(255,255,255)" fill-rule="evenodd" d="M378.81934705 174.2539849c1.82426777.75036626 3.64853554 2.1439036 3.4339158 2.25109877-5.25818356 9.9691517-10.73098687 19.5095227-16.4184099 29.37147921-.21461975.21439036-3.32660594-.96475661-3.32660594-1.17914697.75116908-4.93097826.3219296-10.71951796 2.68274672-14.90012997 3.4339158-5.7885397 8.47747963-10.39793242 13.62835332-15.54330104"/>
      <path fill="rgb(255,255,255)" fill-rule="evenodd" d="M347.806795 263.97635022c-4.18508488 1.39353734-8.37016976 2.25109878-12.55525464 3.10866021-1.82426776.21439036-3.97046514.96475662-5.4728033.21439036-3.86315527-1.92951323-7.5116908-4.60939272-11.16022634-6.8604915 3.64853553 0 7.29707107.21439037 10.9456066.21439037h3.64853554c1.60964803-.21439036 3.4339158-.42878072 5.1508737-.5359759-1.28771843-1.50073252-2.36081711-3.21585539-3.86315528-4.82378308-1.50233816-1.50073252-3.32660593-2.89426985-4.93625396-4.39500237.75116908-.5359759 1.82426777-1.71512287 2.36081711-1.50073251 2.68274672.42878072 6.22397239.5359759 8.04824016 2.46548913 3.11198619 3.1086602 5.25818356 7.50366257 7.83362041 12.1130553"/>
      <path fill="rgb(255,255,255)" fill-rule="evenodd" d="M296.83460737 45.83415975c2.89736646 7.28927221 6.00935265 13.6137878 8.69209937 19.9383034.53654934 1.17914698 0 3.10866021 0 4.39500237-1.0730987-.75036626-2.68274672-1.39353734-3.32660593-2.25109877-7.08245134-13.82817817-14.0575928-27.44196598-20.9254244-41.37733933-.75116908-1.39353733-.3219296-3.21585539-.53654934-4.93097826 1.28771842.96475662 3.11198619 1.71512287 3.86315527 3.1086602 4.18508488 6.53890596 8.2628599 13.1850071 12.23332503 21.11745039"/>
      <path fill="rgb(255,255,255)" fill-rule="evenodd" d="M366.04947268 327.6502869c2.36081711 1.50073252 3.97046514 3.10866021 5.25818357 4.82378308 1.50233816 1.71512288 2.57543684 3.85902647 3.86315527 5.7885397-2.68274672-.21439036-5.68742304.21439036-8.04824015-.96475661-2.68274672-1.39353734-6.33128226-3.43024575-7.29707108-5.89573488-2.3608171-6.75329632-7.5116908-8.79000473-12.55525463-11.46988422-2.0388875-.96475661-3.32660593-3.85902646-4.93625396-5.89573488 2.3608171.42878072 5.1508737 0 6.8678316 1.17914698 5.58011317 3.53744093 10.623677 8.14683365 16.84764938 12.43464083"/>
      <path fill="rgb(255,255,255)" fill-rule="evenodd" d="M401.13979974 280.27001752c.53654935 8.46841919-2.0388875 14.90012997-8.04824015 19.72391305-1.07309869.75036625-2.14619737 1.39353733-3.32660593 1.92951323-.53654934-1.17914698-1.60964803-2.46548913-2.0388875-3.85902647-1.0730987-5.35975898 8.15555002-20.15269376 13.62835332-22.18940217.21461974 1.28634215.21461974 2.46548913-.21461974 4.39500236"/>
      <path fill="rgb(255,255,255)" fill-rule="evenodd" d="M304.45360805 160.42580674c.3219296 2.25109877.3219296 4.180612.21461974 6.11012523-6.00935265-.75036625-12.0187053-1.17914697-18.02805794-2.25109877-.85847895 0-2.57543685-2.46548913-2.36081711-3.21585539.53654934-1.39353733 2.3608171-2.89426985 3.4339158-2.89426985 5.4728033.10719518 10.9456066 1.0719518 16.7403395 2.25109878"/>
      <path fill="rgb(255,255,255)" fill-rule="evenodd" d="M342.3339917 147.45519c-2.68274672 1.17914698-4.72163422 2.46548914-6.545902 3.64463611.75116909-1.92951323 1.28771843-4.07341682 2.36081712-5.89573488 2.68274672-4.180612 5.4728033-8.46841918 8.37016976-12.43464083 1.07309868-1.71512287 2.68274671-2.89426985 4.18508488-4.180612-.21461974 1.92951323.21461973 4.180612-.53654935 5.7885397-1.93157763 4.39500236-4.50701448 8.57561436-7.83362041 13.0778119"/>
      <path fill="rgb(255,255,255)" fill-rule="evenodd" d="M302.30741068 116.69017346c1.28771842-1.50073251 2.3608171-2.1439036 3.64853553-2.67987949 1.82426777 6.11012524 3.86315527 12.22025047 5.25818357 18.54476607.3219296.75036626-1.07309869 2.1439036-1.60964803 3.21585539-.75116908-1.17914698-1.60964803-2.1439036-2.14619738-3.21585539-1.82426777-4.93097826-3.54122566-9.86195652-5.1508737-15.86488658"/>
      <path fill="rgb(255,255,255)" fill-rule="evenodd" d="M376.56583981 382.8558044c-4.93625396-.21439037-9.12133884-.75036626-13.52104345-1.50073252-.85847895-.21439036-1.82426777-.96475662-2.57543685-1.71512287 0-.21439036.85847895-2.1439036 1.07309868-1.92951324 5.36549344.75036626 12.0187053-2.89426985 15.02338162 5.14536862"/>
      <path fill="rgb(255,255,255)" fill-rule="evenodd" d="M382.46788259 383.17738993c0 .5359759-.85847895 1.39353734-1.82426777 1.92951324-.3219296 0-.85847895-.96475662-1.50233816-1.39353734.75116908-.10719518 1.60964803-.32158554 3.32660593-.5359759"/>
      <path fill="rgb(255,255,255)" fill-rule="evenodd" d="M347.806795 264.94110684c.53654934-.21439036 1.07309869.21439036 1.60964803.5359759-.53654934-.21439036-1.07309869-.21439036-1.60964803-.5359759"/>
    </g>
    <g class="broccoli" opacity=".3" transform="rotate(13.000005 126.14221103 301.80703436)">
      <path fill="rgb(255,255,255)" fill-rule="evenodd" d="M219.9610464 276.73906489c.91996155 7.57805137-3.5489505 12.96335305-11.2966411 14.24367223-1.56004845.25361855-4.1200554 1.22500814-4.17342778 1.93806468-.91021068 5.14670022-4.13330834 7.3042286-8.35521251 8.72891166-5.68456335 1.9798184-7.43572625 7.155558-8.88603336 12.23337989-4.04538002 13.90893594-.90819488 27.2999001 2.68793324 40.62938122 1.57973103 5.4425474 3.33012572 10.8686828 4.90985675 16.3112302.27949299.95728036.04710023 1.9638836-.03908187 3.0599924-.94200083-.4964795-2.41655525-.61371876-2.78553097-1.42434471-1.7398756-3.30325883-3.44317006-6.76551065-4.59778719-10.43590446-2.89289739-9.14954519-6.17981323-18.27843113-5.98849994-28.50150116-.09683361-5.60238337-.41336955-10.97648766.36286385-16.26568196.26302174-2.28047027 1.20690955-4.53147442 2.1470818-6.77343915.4489825-1.07054284.8969675-2.13893564 1.26940002-3.20729436.19159319-.50211881.43064146-1.01389052.66844972-1.5230044.63670861-1.36326983 1.26414688-2.70700623.94863069-3.7953162-.50616216-1.90242803-2.30843435-3.49033382-3.75338819-4.93993334-.13396355-.14255354-2.39392174 1.45614187-3.04477223 2.58926242-5.30048348 8.98777455-7.31144991 18.90236999-7.66107454 29.08889095-.01291459.77820976.0148665 1.62162767.00207086 2.39986489-.5724491-.41116172-1.1204452-.92824098-1.70512768-1.28641419-9.22455352-5.8124875-10.85677001-16.5681783-14.07018045-26.01490836-2.43554976-7.03513568-4.29452242-8.85932038-10.83684293-6.29633958-.36567509.13882844-.88655759 1.19032887-.75259403 1.33288241 5.84234435 8.65866061 8.45839562 18.52548215 8.957385 29.13110973.1926022 2.77872936-.2404844 5.85932153-1.37999738 8.38625792-1.81494914 3.7660065-4.81995828 2.57005526-7.71100423 1.12141313-6.50085687-3.39803847-10.94008134-9.2217508-15.02575888-15.13121614-.72641302-.9489597-1.59504112-1.76325129-2.56538531-2.37789996-.21513074-.27285544-1.03596366.15145584-1.51570716.54288824-.20723107.17534549-.22014566.95355525-.041715 1.38537621 2.84180157 6.96148793 5.5414018 14.05758449 8.56608668 20.9497314.79466562 1.85747135 2.69479101 3.02152855 4.07470139 4.5119244.55187273.74122547 1.06316874 1.41727025 1.56211244 2.14627608-.31633257.05262596-.66300125.16176587-1.0102418.27121224-.73212803.23055945-1.46722977.46206104-1.92709074.16665638-2.47256076-1.5752784-4.85951543-3.5213574-7.18976963-5.23115748-2.0907894-1.54288966-4.03092925-3.49737626-6.21955812-4.6164768-8.86003044-4.50069955-15.69455258-11.99341565-23.48901877-17.9779313-1.14940556-.90698928-2.66247809-1.23507455-4.17818106-1.56370447-.593204-.12862078-1.18676481-.25732394-1.75913198-.42084832-.0753387.5971113-.22227088 1.17493773-.36838388 1.74975862-.49738898 1.95418877-.96300813 3.783791 1.61732041 5.84842985 11.75646162 9.2986015 23.48456614 18.47909328 33.20773873 30.32153785 8.76963334 10.67367286 16.88897847 21.75521756 21.80123072 35.16536142.58789162 1.3074812 1.07415862 2.81475171 1.00785794 4.30607749-.04552823.73008918-.49743032 1.51807513-.93561495 2.2819167-.1560301.27210687-.31035353.54116253-.44393885.80341743-.73087939-.44773824-1.92080696-.83408038-2.20862923-1.51434497-2.37622988-5.12418111-4.03711438-10.69708988-6.90520219-15.37682263-4.83987164-7.70184293-9.96815528-15.3585828-15.82009986-22.28963873-9.74374896-11.51238082-20.483685-22.08293131-33.42343175-29.86914458-1.79462414-1.1397003-4.80853856-1.33332758-6.74271717-.66386255-9.58972588 3.47762704-22.70353764 4.6350846-30.18151358-5.85194851-3.65176356-5.13972264-8.08322104-10.51520204-9.39833932-16.62203727-1.76079482-7.54898453 1.40993633-15.01962888 7.60943468-20.6749588 1.55296953-1.42710248 2.35504557-3.69712816 3.61183611-5.52736052 1.48015907-1.83453909 2.74974525-4.44300866 4.72062396-5.27143922 7.99841815-3.34745497 8.03940525-3.70569286 8.99294227-12.04852591.0299162-.26144577.06066574-.53084243.09266038-.80834548.64243165-5.1334471 2.96365181-10.19806206 5.15915185-14.98836454l.16291386-.35564625c4.96052547-10.40542283 12.57914874-17.63038132 23.3593782-21.44697441 4.42914897-1.60008802 8.21451951-.89354182 12.11329097.2855622 4.49556835 1.48426127 8.01437422.45525788 11.85940986-2.2282818 3.2230908-2.15749866 6.85586673-3.43922268 10.28173597-5.27090484 2.26327255-.64930049 4.5264193-1.2985987 6.77733954-1.89493813 2.65728414-.66993 5.34680201-.99760406 8.07678453-1.26015464 3.18012544.67837728 6.33201272 1.23867229 9.5127073 1.19177111 4.75697881-.1293643 8.36667079 1.82000458 12.09809982 3.96488578 5.25799339 2.99950642 10.84576193 5.29395614 15.81090441 8.83966815 2.86212658 2.05578112 5.79650135 5.24424757 6.89454382 8.6783602 2.325358 7.51188584 6.48579129 11.65300735 13.3844243 15.25450532 7.81240943 3.97983572 12.96068656 12.03184976 14.07772355 21.88737932zm-25.60335195 18.64118218c1.55560267.2475137 4.89208752-1.43739739 4.94547362-2.1505134.0844943-6.4019095 3.97413241-6.87903394 7.97245479-7.36946534.30994938-.03800098.6205484-.07610255.93005202-.1170566.6947553-.11860442 1.40162502-.2902248 2.01522-.53916086 3.75439403-1.08623917 5.42966289-3.04307805 5.14102699-7.57373697-.50858273-8.87805264-7.13048857-13.1968544-11.08996955-19.41199914-.3209438-.4597428-1.10923817-.59964046-1.86432019-.73362438-.22818385-.0404968-.45335983-.0804558-.66174562-.12856546-6.0273855-1.11253073-12.2254278-2.2086792-18.38289336-3.239647-2.88784367-.4993044-5.82072357-.56259777-8.69621494-1.11486322-.6148187-.06755638-1.13167213-.55890416-1.64852556-1.05025194-.25837411-.24563043-.51674822-.49126085-.78734883-.6839325.93478924-.67697244 1.74407687-1.7735462 2.5850291-1.80258559 1.48666884.0642233 3.03838114.08765026 4.52516893.15190102l.1056202.02438435c2.38432152.27146282 4.6462179 1.07266432 7.0188752.6718372.4063639-.07359056.75979876-.15940075 1.12557907-.29814226l.82860677.02389193c-.02835023-.11813945.008343-.27707524-.02000722-.3952147 1.86148023-1.07684444 3.24435525-3.2128134 2.36075543-5.64881959-3.38407409-9.43031808-13.57565745-14.90805933-22.07950095-17.81992544-1.16210489-.39886755-2.31351747-.8331955-3.46321457-1.26681418-4.2537091-1.60447514-8.48241793-3.1994827-13.13559433-2.9559199-2.53497795.14016387-4.94432848.69992677-7.29697855 1.4959686-.6419452.13079659-1.23108031.27378536-1.88525888.45757046-3.94951756 1.20859843-8.37351894 1.58224375-11.94182054 3.54844989-6.70577945 3.75287444-15.00648106 5.74252506-18.0443732 14.80622038-.1223062.52976614-1.09779798 1.14156016-1.79255328 1.26016458-4.70473787.86683493-4.62665427 4.62347416-4.24782695 8.28213848.21775702 1.94750136.95961255 3.79278053.96613605 5.69148345.07119686 1.0504147-.30066385 2.14342924-.66304527 3.20840815-.08749621.25689074-.17425115.51219868-.25425119.76483787-1.10432148-.75714275-2.80988562-1.3183105-3.38176559-2.45475066-3.06652568-5.50676842-1.42968255-15.00554711 3.11970175-19.53526617 1.69138572-1.78571091 3.68728657-3.44533746 5.45594226-5.32480348.90268132-1.01923064 1.74477182-2.49882693-.7940965-2.5827498-9.63112311-.43791824-18.34653163 1.90239818-25.22204214 9.5221064-4.5782968 5.13682831-8.10509596 11.01866667-8.23732015 18.576959-.1539457 9.3389427-.86044536 18.66188121-1.61963618 27.972655-.45879534 5.20519003-3.79033825 8.58022145-7.0713708 11.90414818-.6487242.65722944-1.29547192 1.31240955-1.91763588 1.97940406-1.1750748 1.235345-3.29979849 1.52600504-4.97004557 2.25640349.66765543-1.68724358 1.18911394-3.4640522 1.97839434-4.95584066.59805412-1.1453722 1.89863053-1.96111588 2.4684465-3.22457034 2.16506278-4.80118188 4.4479791-9.63096791 6.05670278-14.6721538.36814891-1.09972839-.02561252-2.40154148-.42220032-3.71227566-.18237173-.60305071-.36544322-1.20795428-.47500878-1.79588765-1.18787044 2.01358223-2.38784157 4.08012095-3.36459058 6.14244443-1.59548445-1.03797511-3.44794733-.96339743-5.02091722.06846061-.27615117-.00800438-.61747847.02481958-.94645347.0046825l.68629336.15844336-.62193111.52598156c-2.2238341 2.16503807-3.68454136 5.12001084-5.24264475 7.77349655-1.95531725 1.7247775-3.7767899 3.59208108-4.96065103 5.8297775-2.1806105 3.90477546-3.62325584 9.43074336-2.65975979 13.44764037 2.28695734 9.84665699 9.58179862 15.82738806 18.5009113 17.66333966 5.3854403 1.24332732 11.5091704-1.19310416 17.40772622-1.4495102 2.86335305-.13804917 3.48130532-2.13637779 4.04056364-3.94505076.14377868-.46486173.28365388-.91715692.45670551-1.3221412.4151571-1.07597172-.70014052-3.2306554-1.64157908-4.4523836-1.4121441-1.83265178-3.32837948-3.16786668-4.9477684-4.82511349-.52352937-.62305627-.6729217-1.66198877-.92417654-2.50118687.2700043-.00932546.54083932-.04721118.80960651-.0848226.56832762-.07945164 1.12708468-.15760493 1.64810148.03841384.79203249.18285518 1.5266833.8546527 2.26978232 1.2494619 3.90643325 1.62725004 7.69902224 3.50721843 11.75610504 4.72287153 1.13711748.37414996 3.3681563-.61740645 4.07181689-1.73833483.58981632-.86821003-.23708304-3.06793731-.91457632-4.22879156-1.46427298-2.57006521-3.42052283-4.6957095-5.03934946-7.07820503-.41789545-.5987314-.486267-1.50727052-.69681243-2.28131995.33846207-.01770001.67866967-.06249628 1.01138828-.10632796.82950908-.1091677 1.61302278-.21229188 2.2099951.12466466 1.31544291.805884 2.21572873 2.6877397 3.51115756 3.09843873 1.20789981.40834393 2.41512024.84133671 3.62395093 1.27495181 4.52179176 1.62192339 9.06696443 3.2521888 13.76232574 3.63174222 2.8961798.22225889 6.1366447-3.21464124 9.04687737-5.22114902 5.62536241-3.89074549 6.2739044-11.99943346 1.8501087-16.92676684-1.15254626-1.27052892-1.0000772-3.85790402-1.50634457-5.76041897 1.75848632.57341711 3.80149427.87764443 4.92581611 2.03003161 3.84356586 4.0679982 6.08581847 9.04968524 5.79253771 14.89675513-.0611531.26488306-.13453956.58275464-.30131285.82325336.27239348-.21611437.50409129-.49743688 1.19884659-.6160413 2.9013274-1.00418381 5.73749238-1.96759875 8.53319958-2.99616692.91421974-.34693842 1.63789441-1.07268184 2.43048918-1.61507538-.6252592-.42335389-1.35601965-.87106467-2.04632231-1.25362223-6.4318041-3.2147206-10.96121999-8.16643834-13.42123648-15.095597-.22065779-.55714184.02966403-1.27728449.27589719-1.98568636.10664863-.30674716.21253764-.61128935.27905914-.89942551.75522031.3417635 1.73391437.6793072 2.25743688 1.30239321 2.2279621 2.6347512 4.1958693 5.43271517 6.4238314 8.06746636.75076082.84295522 2.07466568 1.37179143 3.02055687 2.09235765-.1899828-1.1040537-.60343933-2.20388761-.62287742-3.32438076-.04377215-1.01454815.10744655-2.15142355.35205894-3.21095582.27685298-.71730608.85820737-1.30846832 1.39899188-1.96484098.47460278.83498057 1.47330407 1.56773897 1.4360417 2.4519532.34147794 14.41953233 14.70412102 20.8601763 25.8098787 11.53870979 1.03652593-.87670456 4.52962157-.34926097 5.1259614.68123192 2.63909371 4.0366026 6.6180033 4.5647049 10.5456074 5.08603627.29283249.03885368.58541336.0777119.87705628.11791961zm-4.19484009-45.66455147c.52409165-.10219244.9303366-.17581045 1.40161816-.29019507-.28393876-.45614812-.59622089-1.03046543-.8802786-1.486641-.32119426.42803638-.56524438.76231994-.52133956 1.77683607zm-12.35479085 45.80553616c-4.30716741 6.37127312-7.7657071 13.1615934-7.34995578 21.2370542-.03726237.88421424-.33468485 1.93155433-.6604507 2.86072524-.26450754.66437477-.69978395 1.34507459-1.00497343 1.94418174-.62903062-.64741317-1.5183403-1.13172794-1.72889946-1.9057179-.69681244-2.28131994-1.22297495-4.5789924-1.80194756-6.88885703-1.24537081-2.07315049-2.29631992-3.54334978-2.88808817-5.07497719-1.31750005-3.20580835-2.3871923-6.52178152-3.52192801-9.79695836 3.2251548.24239598 6.56440547.23206906 9.83402736.76373245 3.5702398.43369077 5.7857309-1.45427206 7.84347293-4.10403267.54077765-.65634292 1.30891941-1.09281892 1.8902738-1.68398116-.07529493.32613802-.10728136.66221196-.13850755.98956644-.0601032.62988186-.11711996 1.22740203-.47302343 1.65926424zm-28.5363784 38.3310774c.17635978-1.96804393.61666483-3.87521392.66283248-5.76175211.16184537-8.89074179-3.59760925-16.45471367-7.80834506-23.50905651-1.78502392-2.867305-11.14294678.32908647-13.165127 4.27043846-.45962419.78670429-1.05333088 1.43082758-1.61857526 2.19314752-.8498575 1.03136335-1.6224519 1.96900132-2.40727966 2.9596278.2796628.22179326.58620938.51544051.89370287.80987014.67489288.64628751 1.35276825 1.29539337 1.75730227 1.19716974 4.3802155-1.38813399 6.4703237.87997692 8.4614404 5.02249333 2.42250275 3.23772985 4.56027345 6.74447564 7.30410314 9.5541371 1.4609449 1.62072975 3.8897335 2.18146 5.91994582 3.26392453zm-22.982706-1.623147c.806899 1.80448285 1.34208574 3.0998588 1.83669574 4.33005407-.45118322-.14306372-.92054673-.23614055-1.38776929-.3287231-.86879828-.17213912-1.72082115-.34096909-2.40538198-.82599657-4.7784809-3.39102348-9.43064632-7.0876989-13.96120048-10.58885974-1.05151138-.74495057-1.97293585-1.57149381-3.01221386-2.3694329-1.81450557-1.53491728-3.6535968-2.963885-5.37471553-4.42142943 1.78478627-1.70839753 3.55332988-3.58792074 5.40703625-5.1129684.58135438-.59116224 1.67012814-.7304259 2.47050363-.82464597.38564657-.0202117.77126765.13333582 1.13967906.2800287.38435391.15306706.75012577.29871208 1.07786918.23193284 7.4281531-1.63816553 8.71528347 3.24629086 10.01204026 8.16773523.27852749 1.05696927.55742537 2.11559007.89774554 3.11165655.90360018 2.83125063 2.16052314 5.57663386 3.29971149 8.35064872z"/>
      <path fill="rgb(255,255,255)" fill-rule="evenodd" d="M207.85958286 374.40596914c-13.03265875 1.28779573-23.96025623 6.4654017-32.57667795 16.80800985-1.33788028 1.69993673-3.54439885 2.58552913-5.31242105 3.73975732.96828943-1.78526353 1.7904134-3.66007233 2.94543636-5.29062442 3.06266232-4.59395704 5.49621857-9.83535744 10.71794495-11.97784454 7.8428821-3.37875535 15.71410164-6.63936787 23.73536283-9.58633903 1.3328-.47350298 4.70743808.8077966 4.8002028 1.61041726.39999833 2.60336048-1.26302853 4.50723268-4.30984794 4.69662356"/>
      <path fill="rgb(255,255,255)" fill-rule="evenodd" d="M160.96017973 358.5351599c-1.70446088-2.01171468-3.2427733-3.53866855-4.62656585-5.25314988-.49904743-.72901753-.70128572-1.78011336-.98078395-2.73744546.9587309-.05766095 2.234856-.76744957 2.80728719-.35629186 3.81193035 3.00046524 7.7944874 5.98452247 11.0900594 9.53538056 2.4108269 2.5653943 4.29694103 5.95825418 5.80123367 9.3187639.9852622 2.23627663 1.00731525 5.03138304 1.19611882 7.58598535.0238592.61931165-1.09386982 1.3656689-1.58189073 2.03420457-.62075164-.92451608-1.57052606-1.86919278-1.87836173-2.9446677-1.87474945-7.29625722-6.01777263-12.71677394-11.82709682-17.18277948"/>
      <path fill="rgb(255,255,255)" fill-rule="evenodd" d="M181.3083251 346.24709364c.21360297-2.85230151.56501695-5.33798503 1.13985633-7.82788701.05340074-.71307538.8582138-1.3084738 1.37457215-1.85886665.39345005.70463845 1.16872158 1.44162706 1.19645697 2.2850348.14341912 8.29155552 1.92419975 16.23572194 6.31778167 23.22069286.28397648.45616327.0065483 1.89872204-.17630904 1.96810668-.80033482.09422959-2.09644293.40880266-2.53881548-.08392924-1.83451953-1.9301405-4.0347537-3.7215117-4.98332403-6.11671824-1.23194474-3.57663474-1.41954422-7.5817669-2.33021857-11.5864332"/>
      <path fill="rgb(255,255,255)" fill-rule="evenodd" d="M170.1039838 203.01883437c.0026721 1.67462594-.14469745 3.03561051-.26372956 4.51473791-.91756078-.60243778-2.03020952-1.08251429-2.80548105-1.8195029-3.60400972-3.90106808-7.90456303-5.50773273-13.29243787-3.85000644-1.3328.47350298-2.98566628-.07549232-4.5779815-.16410588 1.22780466-1.22314699 2.22830772-2.6661716 3.55335533-3.58786678 4.56428286-2.90807327 11.81768677-.8428903 17.38627465 4.90674409"/>
      <path fill="rgb(255,255,255)" fill-rule="evenodd" d="M31.55455336 287.42034662c1.67369909.05577222 3.02871158.25054893 4.50278386.42112851-.63409271.8959774-1.15270705 1.9911942-1.91630288 2.74027334-4.02446788 3.46567116-5.7802386 7.70753386-4.3115533 13.14997957.42670124 1.34851286-.17964293 2.98121295-.32377264 4.56946567-1.17955282-1.26974327-2.5867819-2.31999692-3.46167286-3.67640356-2.74701313-4.66299121-.42995201-11.83990396 5.51051782-17.20444353"/>
      <path fill="rgb(255,255,255)" fill-rule="evenodd" d="M176.4736462 355.34465668c-1.40558169.06609789-3.23355292.03467943-3.85430456-.88983665-2.03288162-2.75714023-3.8339834-5.79557165-5.22880248-8.9076062-.53513726-1.29535253.19361996-3.24751706.28431462-4.84478728 1.18155425.6633855 2.74105378 1.13502508 3.39014286 2.17768398 1.99946389 3.86543115 3.72657988 7.94698733 5.40864956 12.46454615"/>
    </g>
    <g class="tomato" opacity=".32">
      <path fill="rgb(255,255,255)" fill-rule="evenodd" d="M163.8153026 149.94923123c-1.82617188-8.52026368-2.61584473-16.59472657-.78967285-24.76824952 3.84973144-16.99099731 15.49755859-25.9571228 29.66247558-31.3565979 14.85583496-5.64715576 34.10437012 2.32821656 41.65576172 17.13961792 4.34326172 8.42120362 7.9954834 17.63500977 8.58776856 27.64138794.69104004 12.87948609-4.93554688 22.24188233-14.80651856 28.83023072-8.88391113 6.04345703-18.80432129 6.14251709-29.1196289 5.00317382-8.1928711-.94119262-15.49743653-3.51708984-21.81494141-8.7184143-4.73815918-3.91339112-8.93334961-8.81750488-13.37524414-13.77114868zm8.29162597.94119262c4.58996583 7.0341797 10.16711426 13.62252808 18.16271973 15.50491333 7.30456543 1.68423462 15.20141602 1.7833252 22.80212402 1.0402832 13.67138672-1.28796386 24.08532715-9.01565551 25.1217041-25.85806274 0-.4458313-.54284667-1.08978271-.78967285-1.58517456-.1973877.34677124-.34545898.84213257-.59216308 1.1888733-3.109375 5.30041503-5.9227295 10.84851074-9.72302246 15.6040039-1.62878418 2.03100586-5.33032227 2.52636719-8.09423828 3.3189392-.61938477.13815308-1.35876465-.32568359-2.06750489-.77035522-.30786132-.19311523-.60986328-.38259887-.89379882-.51757812.78967285-.84213257 1.381958-2.13006592 2.36901855-2.42730713 5.82397461-1.8328247 9.22937012-6.68740845 12.2401123-11.59152222 1.28320313-2.13006592 2.17163086-6.68743896 1.23388672-7.52954101-2.16748046-1.94885254-2.06274414-3.98065186-1.95361328-6.09536743.01013184-.19662476.02026367-.39398194.02868653-.59207154.23266601-4.29507446-2.07739258-7.00619507-4.45117188-9.7920227-.14489746-.1701355-.29003906-.34051514-.43493652-.51156616-1.13513184-1.28793335-2.07287598-2.67495728-3.109375-4.01245118 1.82617187.2972107 3.84973144.34674073 5.57714844 1.08981324.93774414.34674072 2.02355957 1.48608398 2.36901855 2.57589721 1.5793457 4.55734253 2.8626709 9.1642456 4.4420166 13.72158814.4440918 1.18887329 1.381958 2.13006592 2.07287598 3.26940918.140625-.37646485.33081054-.75790406.52026367-1.1380005.40905762-.82040404.81481934-1.63442992.71362305-2.37908935-.24682618-2.8731079-.69104004-5.74621582-1.62878418-8.42120361-1.48059082-3.71524048-3.5534668-7.03417969-5.13293457-10.74942017-2.96130371-7.52954101-7.74865723-12.23550415-15.7442627-12.53271484-.93774414-.09909058-2.02355957-.29724121-2.76391601-.74307251-6.3668213-4.01245117-13.47387696-4.55734253-19.84082032-2.13006592-12.8815918 4.90411377-22.80200195 12.97857666-25.56591797 29.22653198-.83459472 4.8762207.25683594 9.01168824 1.32861329 13.07235718.70275878 2.66299439 1.39709472 5.29367066 1.53393554 8.07974243-.09863281.5944214.88842774 1.13934327 2.27038574 1.68423462zm65.34619141-12.18597412c-.1973877-.14859009-.34545898-.24768066-.54284668-.34674072.37341309-.16656494.4329834.01690674.50097656.2267456.01293946.03979493.02612305.08050538.04187012.11999512z"/>
      <path fill="rgb(255,255,255)" fill-rule="evenodd" d="M189.08510019 107.29832081c-4.68874447 5.5480881-9.32813374 10.74942069-12.9804189 16.69380079-3.45486435 5.7462341-3.8990612 12.2355157-.19742083 18.47711481.69097287 1.04026652 1.28323533 2.13006954 1.72743218 3.31894556.19742082.64397451-.19742082 1.48609502-.24677603 2.13006953-.59226246-.198146-1.38194574-.297219-1.72743217-.7430475-3.9977716-4.45828508-5.37971734-9.80822717-5.13294132-16.04982628.24677603-6.93511012 2.9613123-12.43366171 7.20585993-17.1396293 3.10937791-3.31894555 6.86037349-6.1425261 10.51265865-9.01564315.69097287-.5449015 2.17162902.099073 3.40550915.099073-.74032808.74304752-1.48065615 1.48609503-2.56647066 2.22914254"/>
      <path fill="rgb(255,255,255)" fill-rule="evenodd" d="M189.2331658 161.73893524c-1.0364593-1.04026652-2.27033942-1.68424103-2.76389147-2.67497105-.54290726-1.18887602-.54290726-2.77404404-.78968328-4.16106607 1.0364593.54490151 2.17162901.94119352 3.0600227 1.68424103 4.68874448 4.26013908 10.16717223 4.01245657 15.8430208 3.31894556 1.23388012-.198146 2.61582586-.94119352 3.55357475-.54490151 1.924853.74304751 3.45486435 2.03099653 5.23165173 3.17033605-1.62872176.44582851-3.40550914 1.38702203-5.0342309 1.28794903-6.31746624-.49536501-12.8323533 1.73377753-19.10046433-2.08053304"/>
      <path fill="rgb(255,255,255)" fill-rule="evenodd" d="M207.34652603 111.01355838c-2.8626019-1.04026652-5.23165173-1.83285053-7.50199116-2.97219005-.44419684-.198146-.88839369-1.04026652-.88839369-1.58516803.09871041-.3467555.9377489-1.08980302 1.23388013-1.04026652 6.021335 2.13006954 13.32590534-.4458285 18.11336022 5.7462341.54290725.5449015.78968328 1.38702202 1.13516971 2.13006954-.78968328.198146-1.62872176.4458285-2.41840504.3467555-.78968328 0-1.48065615-.5449015-2.27033943-.74304751-2.36904984-.69351101-4.73809968-1.23841252-7.40328074-1.88238703"/>
      <path fill="rgb(255,255,255)" fill-rule="evenodd" d="M182.96508287 124.63609036c-.14807129.94119262.29614258 2.03100586.88842774 3.07125854 2.41833496 2.87310791 4.9354248 4.6564331 8.39038086 3.56661988.69091796-.2972107 1.5300293-2.42727662 1.28320312-2.87310791-1.67810059-2.2291565-3.65234375-4.26013184-5.57714844-6.2911377-.98706054-.8916626-2.02355957-1.73376465-3.0600586-2.57589722-.64160155 1.7833252-1.48059081 3.31893921-1.92480468 5.1022644zm4.09643555-.4458313c.04943848 1.04025268.14807129 2.03100586.24682617 3.07125854-.78967285-.49536132-1.13513184-1.3374939-1.381958-2.22912597 0-.19815064.78967284-.54492188 1.13513183-.84213257z"/>
      <path fill="rgb(255,255,255)" fill-rule="evenodd" d="M208.18556451 125.82497213c1.82614258-2.22914254 3.55357476-4.16106607 5.72520378-5.4490151 1.23388012-.6439745 3.20808832-.5449015 1.28323532 2.22914254-1.92485299 2.67497105-3.30679873 5.8453071-4.9355205 8.81749715-.44419684.74304752-1.1351697 1.18887602-1.72743217 1.78331403-.44419684-.94119351-1.23388012-1.78331403-1.23388012-2.67497104.0493552-1.43655853.54290725-2.82358055.88839369-4.70596758"/>
      <path fill="rgb(255,255,255)" fill-rule="evenodd" d="M215.14464841 133.25544726c3.45486435-1.28794903 6.61359746-2.52636155 9.82168579-3.61616457.19742082-.099073.69097287 1.04026652 1.13516971 1.68424103-3.45486435 1.83285053-6.76166308 4.35921208-10.41394825 5.3994786-2.27033942.7430475-3.15873311-1.43655853-.54290725-3.46755506"/>
      <path fill="rgb(255,255,255)" fill-rule="evenodd" d="M190.81253236 140.68592238c-2.86260189.94119352-5.23165172 2.03099654-7.65005677 2.67497105-.78968328.198146-1.92485299-.94119352-2.76389147-1.38702203.59226246-.6439745 1.13516971-1.58516802 1.82614258-1.83285053 2.61582586-1.18887602 5.23165173-2.67497104 7.8968328-2.97219005 2.51711545-.297219 3.20808832 1.38702203.69097286 3.51709156"/>
      <path fill="rgb(255,255,255)" fill-rule="evenodd" d="M197.91968188 127.41014016c-.54290726-2.87311705-.9377489-5.4490151-.9377489-8.07444964 0-.94119352 1.23388013-1.83285053 1.924853-2.77404405.44419684.74304751 1.23388012 1.58516803 1.38194574 2.42728854.44419684 2.77404405.78968328 5.5480881.88839368 8.37166864 0 .74304752-1.0364593 1.48609503-1.62872176 2.22914254-.49355205-.693511-.9377489-1.33748552-1.62872176-2.17960603"/>
      <path fill="rgb(255,255,255)" fill-rule="evenodd" d="M222.30115313 146.43215648c-2.86260189-.3467555-5.57713816-1.04026652-8.19296402-1.78331403-.59226246-.198146-1.0364593-1.04026652-1.57936656-1.48609503.59226246-.5449015 1.28323533-1.58516802 1.82614258-1.48609502 2.9613123.3467555 5.9226246.94119351 8.8839369 1.68424103.78968327.198146 1.48065614 1.04026652 2.27033942 1.58516802-1.0364593.39629201-2.0235634.84212052-3.20808832 1.48609503"/>
      <path fill="rgb(255,255,255)" fill-rule="evenodd" d="M211.83784968 149.70156554c.54290725.94119351.69097287 1.58516802 1.13516971 2.13006953.59226246.84212052 1.38194574 1.48609503 2.17162902 2.22914254-.9377489.4458285-1.924853 1.38702202-2.86260189 1.38702202-1.13516971-.099073-2.27033943-.84212051-3.20808832-1.48609502-.44419685-.198146-.69097287-.94119352-.69097287-1.48609503-.09871041-2.32821554 0-4.65643108 0-6.88557361 1.0364593 1.33748552 2.17162902 2.62543454 3.45486435 4.11152957"/>
      <path fill="rgb(255,255,255)" fill-rule="evenodd" d="M196.63644655 145.98632797c.78968328-.198146 1.924853-.198146 1.924853-.099073 0 2.52636154.44419684 5.10225959-.24677603 7.43047513-.34548644 1.08980302-2.76389148 1.48609502-4.19519242 2.22914253 0-1.08980301-.09871041-2.32821553.19742082-3.31894555.59226245-2.08053304 1.38194573-4.01245657 2.31969463-6.2415991"/>
      <path fill="rgb(255,255,255)" fill-rule="evenodd" d="M200.38744213 137.91187833c1.62872176-.5449015 3.30679873-.6439745 4.9355205-.7430475l-1.03645931 4.45828507c-1.28323533-1.13933952-2.61582587-2.22914254-3.8990612-3.71523757"/>
      <path fill="rgb(255,255,255)" fill-rule="evenodd" d="M206.45813234 103.58308325c1.38194573-.84212051 2.86260188-1.08980302 4.34325803-1.38702202.09871041 0 .34548644.84212051.54290726 1.18887602-1.67807697.297219-3.30679874.495365-4.8861653.198146"/>
    </g>
  </g>
</svg>
